<?xml version="1.0" encoding="utf-8"?>
<!-- Generator: Adobe Illustrator 19.0.0, SVG Export Plug-In . SVG Version: 6.00 Build 0)  -->
<svg version="1.1" id="图层_1" xmlns="http://www.w3.org/2000/svg" xmlns:xlink="http://www.w3.org/1999/xlink" x="0px" y="0px"
	 viewBox="0 0 1220 650" style="enable-background:new 0 0 1220 650;" xml:space="preserve">
<style type="text/css">
	.st0{fill:#F5F7FC;}
	.st1{fill:#FFFFFF;}
	.st2{opacity:0.8;}
	.st3{font-family:'PingFang-SC-Medium';}
	.st4{font-size:24px;}
	.st5{opacity:0.1;fill:#FAAD14;}
	.st6{font-size:20px;}
	.st7{writing-mode:tb;}
	.st8{font-size:24px;glyph-orientation-vertical:1;}
	.st9{font-size:24px;glyph-orientation-vertical:0;}
	.st10{opacity:0.1;fill:#FAAD14;stroke:#FFFFFF;stroke-miterlimit:10;}
	.st11{fill:#FAAD14;}
	.st12{font-family:'PingFang-SC-Bold';}
	.st13{opacity:0.7;}
	.st14{font-family:'PingFang-SC-Regular';}
	.st15{font-size:16px;}
	.st16{fill:#D8D8D8;}
	.st17{fill:#1890FF;}
	.st18{fill:#4E4E4E;}
	.st19{fill:#767677;}
	.st20{fill:#F37726;}
	.st21{fill:#616262;}
	.st22{fill:#9E9E9E;}
	.st23{fill:#C72C48;}
	.st24{fill:#231F20;}
	.st25{fill:#67CFE3;}
	.st26{fill:#DFCAA3;}
	.st27{fill:#648C1A;}
	.st28{fill:#FF7C00;fill-opacity:0.75;}
	.st29{fill:#FF7C00;}
	.st30{fill:#00758F;}
	.st31{opacity:0.2;fill:#FAAD14;}
	.st32{fill:#4461EB;}
	.st33{fill:#29DD90;}
	.st34{letter-spacing:1;}
	.st35{letter-spacing:-1;}
	.st36{opacity:0.6;fill:#4461EB;enable-background:new    ;}
	.st37{opacity:0.6;fill:#29DD90;}
	.st38{opacity:0.5;fill:#4461EB;}
	.st39{opacity:0.9;fill:#4461EB;}
	.st40{opacity:0.8;fill:#4461EB;}
	.st41{opacity:0.7;fill:#4461EB;}
	.st42{opacity:0.6;fill:#4461EB;}
	.st43{opacity:0.5;}
	.st44{opacity:0.6;}
	.st45{opacity:0.9;}
	.st46{opacity:0.8;fill:#29DD90;}
	.st47{opacity:0.2;fill:#4461EB;}
</style>
<rect x="0" y="0" class="st0" width="1220" height="650"/>
<rect x="19.2" y="570.1" class="st1" width="1180" height="60"/>
<g>
	<rect x="1139.2" y="20" class="st1" width="60" height="530"/>
</g>
<g>
	<rect x="19.2" y="500.1" class="st1" width="354" height="50"/>
</g>
<g>
	<rect x="392.2" y="500.1" class="st1" width="354" height="50"/>
</g>
<g>
	<rect x="765.2" y="500.1" class="st1" width="354" height="50"/>
</g>
<g class="st2">
	<text transform="matrix(1 0 0 1 100.1875 532.2352)" class="st3 st4">多集群多租户管理</text>
</g>
<g class="st2">
	<text transform="matrix(1 0 0 1 521.1875 532.2355)" class="st3 st4">菜单管理</text>
</g>
<g class="st2">
	<text transform="matrix(1 0 0 1 858.188 532.2355)" class="st3 st4">角色和成员管理</text>
</g>
<g>
	<rect x="19.2" y="20" class="st1" width="1100" height="270"/>
</g>
<rect x="237.5" y="120" class="st5" width="513.6" height="70"/>
<rect x="237.5" y="40" class="st5" width="513.6" height="70"/>
<g id="XMLID_16_" class="st2">
	<text transform="matrix(1 0 0 1 257.5406 162.1277)" class="st3 st6">存储</text>
</g>
<path class="st1" d="M518.2,180H323c-1.3,0-2.4-1.1-2.4-2.4v-45.2c0-1.3,1.1-2.4,2.4-2.4h195.2c1.3,0,2.4,1.1,2.4,2.4v45.2
	C520.6,178.9,519.5,180,518.2,180z"/>
<path class="st1" d="M518.2,100H323c-1.3,0-2.4-1.1-2.4-2.4V52.4c0-1.3,1.1-2.4,2.4-2.4h195.2c1.3,0,2.4,1.1,2.4,2.4v45.2
	C520.6,98.9,519.5,100,518.2,100z"/>
<path class="st1" d="M728.7,100H533.5c-1.3,0-2.4-1.1-2.4-2.4V52.4c0-1.3,1.1-2.4,2.4-2.4h195.2c1.3,0,2.4,1.1,2.4,2.4v45.2
	C731.1,98.9,730,100,728.7,100z"/>
<rect x="237.5" y="200" class="st5" width="513.6" height="70"/>
<g id="XMLID_25_" class="st2">
	<text transform="matrix(1 0 0 1 257.5406 242.1278)" class="st3 st6">观测</text>
</g>
<path class="st1" d="M518.2,259.8H323c-1.3,0-2.4-1.1-2.4-2.4v-44.9c0-1.3,1.1-2.4,2.4-2.4h195.2c1.3,0,2.4,1.1,2.4,2.4v44.9
	C520.6,258.7,519.5,259.8,518.2,259.8z"/>
<path class="st1" d="M728.7,259.5H533.5c-1.3,0-2.4-1.1-2.4-2.4v-44.9c0-1.3,1.1-2.4,2.4-2.4h195.2c1.3,0,2.4,1.1,2.4,2.4v44.9
	C731.1,258.4,730,259.5,728.7,259.5z"/>
<text transform="matrix(1 0 0 1 1169.1875 227.7479)" class="st2 st7"><tspan x="0" y="0" class="st3 st8">OIDC </tspan><tspan x="0" y="66.5" class="st3 st9">认证</tspan></text>
<rect x="40.5" y="39.9" class="st10" width="180.2" height="230"/>
<text id="XMLID_37_" transform="matrix(1 0 0 1 57.5402 89.6901)" class="st11 st12 st4">自定义仓库</text>
<g id="XMLID_15_" class="st13">
	<text transform="matrix(1 0 0 1 58.4777 122.2259)"><tspan x="0" y="0" class="st14 st15">自定义组件，快</tspan><tspan x="0" y="23.2" class="st14 st15">速发布、安装、</tspan><tspan x="0" y="46.4" class="st14 st15">应用</tspan></text>
</g>
<g id="XMLID_22_" class="st2">
	<text transform="matrix(1 0 0 1 257.5406 82.1279)" class="st3 st6">AI</text>
</g>
<rect x="762.1" y="40" class="st5" width="336.4" height="70"/>
<rect x="761.1" y="120" class="st5" width="336.4" height="70"/>
<rect x="761.1" y="200" class="st5" width="336.4" height="70"/>
<g id="XMLID_31_" class="st2">
	<text transform="matrix(1 0 0 1 781.5701 82.1278)" class="st3 st6">CI/CD</text>
</g>
<path class="st1" d="M728.7,180H533.5c-1.3,0-2.4-1.1-2.4-2.4v-45.2c0-1.3,1.1-2.4,2.4-2.4h195.2c1.3,0,2.4,1.1,2.4,2.4v45.2
	C731.1,178.9,730,180,728.7,180z"/>
<g id="XMLID_21_" class="st13">
	<text transform="matrix(1 0 0 1 399.3969 242.5842)" class="st3 st6">skywalking</text>
</g>
<g>
	<path class="st16" d="M382.3,224.2c-0.1,0-0.3,0-0.3,0c-0.3,0-0.6,0.1-0.9,0.2c-1.1,0.3-2,0.9-2.8,1.6c-0.2,0.2-0.7,0.7-0.7,0.8
		c0,0,0.1,0,0.2,0c0.6-0.1,1.7-0.1,2.3,0c0,0,0.1,0,0.2,0c0.8,0.1,1.8,0.6,2.5,1c1.2,0.8,2.2,2,2.7,3.3c0.2,0.4,0.3,1,0.4,1.3
		c0,0.1,0,0.2,0,0.2c0.1,0.6,0.1,1.4,0,2.1c-0.1,0.7-0.5,1.9-0.7,2.3c-0.1,0.2-0.1,0.2,0.6-0.1c1.3-0.6,2.4-1.8,3.1-3.1
		c0.2-0.5,0.5-1.2,0.5-1.6c0-0.1,0-0.1,0-0.2c0.1-0.1,0.1-1.5,0-2c-0.3-2.8-2.4-5.1-5-5.7c-0.2-0.1-0.5-0.1-0.8-0.1
		C383.4,224.2,382.5,224.2,382.3,224.2L382.3,224.2z"/>
	<path class="st17" d="M355.1,226.1c0,0-0.2,0-0.3,0c-0.2,0-0.4,0-0.4,0c0,0-0.2,0-0.3,0c-0.1,0-0.2,0-0.2,0c0,0-0.1,0-0.2,0
		c-0.5,0.1-1.2,0.3-1.7,0.5c-1.3,0.6-2.1,1.6-2.3,2.9c-0.1,0.7-0.1,1.6,0,2.3c0.2,1,0.8,2,1.9,2.8c0.2,0.1,1,0.7,1,0.7
		c0,0,0.2,0.1,0.4,0.2c0.2,0.1,0.3,0.2,0.4,0.2c0,0,3.6,2.1,3.6,2.1c0,0,0.1,0.1,0.2,0.2c0.1,0.1,0.3,0.3,0.5,0.4
		c0.3,0.3,0.5,0.6,0.6,1c0.1,0.5,0,1.2-0.2,1.6c-0.2,0.5-0.8,0.8-1.5,0.9c-0.5,0.1-2,0.1-3.5,0c-0.1,0-0.4,0-0.6,0
		c-0.2,0-0.4,0-0.5,0c-0.1,0-0.3,0-0.5,0c-0.2,0-0.3,0-0.3,0c-0.1,0-0.2,0-0.3,0c-0.3,0-0.4,0-0.5,0.2c-0.1,0.1-0.1,0.2-0.1,1.1
		c0,0.5,0,1,0,1.1c0.1,0.2,0.3,0.4,0.7,0.4c0.4,0.1,0.4,0.1,0.9,0.2c0.4,0.1,0.8,0.1,1.1,0.1c0.1,0,0.3,0,0.4,0
		c0.6,0.1,2.1,0.1,2.8,0c0.4,0,0.6,0,1.2-0.1c0.3-0.1,1.2-0.3,1.5-0.4c0.6-0.3,0.9-0.4,1.3-0.7c0.5-0.3,0.9-0.8,1.2-1.3
		c0.1-0.2,0.3-0.6,0.3-0.6c0,0,0-0.1,0-0.1c0.1-0.2,0.2-0.4,0.2-0.8c0.3-1.3,0.1-2.6-0.5-3.7c-0.3-0.4-0.8-1.1-1.2-1.4
		c0,0-0.2-0.1-0.3-0.2c-0.4-0.3-1.1-0.7-1.9-1.2c-0.1,0-0.4-0.2-0.8-0.4l-0.8-0.4c-0.1-0.1-0.3-0.2-0.5-0.3
		c-0.2-0.1-0.3-0.2-0.3-0.2c0,0-1-0.6-1.3-0.8c-0.4-0.3-0.8-0.6-0.9-0.9c-0.2-0.4-0.3-0.9-0.1-1.4c0.2-0.5,0.6-0.9,1.3-1.1
		c0.2-0.1,0.4-0.1,0.8-0.1c0.1,0,1.4,0,1.9,0c0.9,0,2.4,0.1,2.9,0.2c0.1,0,0.3,0,0.5,0c0.4,0,0.4,0,0.5,0c0.2-0.1,0.2-0.2,0.2-1.3
		c0-1.1,0-1.1-0.2-1.3c-0.1-0.1-0.6-0.2-0.9-0.2l-0.5-0.1c-0.3,0-0.6-0.1-0.9-0.1c-0.3,0-0.6-0.1-0.8-0.1c-0.2,0-0.3,0-0.5,0
		C357.2,226.1,355.1,226,355.1,226.1z M363.7,230.9c-0.2,0-0.3,0.2-0.4,0.4c0,0.1,0,0.3,0.1,0.7c0,0,0,0.1,0,0.2c0,0.1,0,0.1,0,0.2
		c0,0,0.1,0.3,0.1,0.6c0.1,0.3,0.1,0.7,0.2,0.9c0,0.2,0.1,0.4,0.1,0.5c0,0.1,0.1,0.5,0.2,1.1c0.1,0.5,0.2,1,0.2,1
		c0,0.1,0,0.2,0.1,0.3c0,0.1,0.1,0.3,0.1,0.3c0,0.1,0.1,0.4,0.2,0.8c0.1,0.4,0.1,0.7,0.2,0.8c0,0.1,0,0.1,0,0.2l0,0.1
		c0.1,0.6,0.2,1,0.4,1.9c0.1,0.6,0.2,1.2,0.3,1.4c0.2,1.1,0.3,1.4,0.5,1.8c0.2,0.5,0.6,0.7,1.2,0.9c0.1,0,0.5,0,1,0
		c0.9,0,1.1,0,1.4-0.2c0.2-0.1,0.5-0.3,0.6-0.4c0.3-0.3,0.5-0.7,0.6-1.2c0.2-0.8,0.5-1.7,0.7-2.6c0-0.1,0.1-0.4,0.2-0.7
		c0.1-0.3,0.2-0.6,0.2-0.7c0,0,0.1-0.3,0.2-0.7c0.3-1,0.5-2.1,0.7-2.7c0.2-0.6,0.2-0.8,0.3-0.7c0,0,0.2,0.8,0.3,1
		c0,0.1,0.3,1.3,0.4,1.7c0,0.1,0.2,0.6,0.3,1.1c0.1,0.5,0.3,1.1,0.4,1.5c0.1,0.3,0.3,1,0.4,1.6c0.3,1.2,0.4,1.4,0.5,1.7
		c0.2,0.5,0.6,0.8,1,1c0.4,0.1,0.5,0.2,1.4,0.2c0.8,0,1.1,0,1.4-0.2c0.5-0.2,0.8-0.7,1-1.5c0.1-0.3,0.1-0.3,0.1-0.5
		c0-0.1,0.1-0.3,0.1-0.5l0.1-0.4c0-0.1,0-0.1,0-0.2c0-0.1,0-0.1,0-0.2c0-0.1,0.1-0.3,0.1-0.5c0-0.2,0.1-0.4,0.1-0.4c0,0,0-0.2,0-0.3
		c0-0.1,0-0.2,0.1-0.3c0,0,0.1-0.4,0.1-0.8c0.1-0.4,0.1-0.7,0.1-0.8c0,0,0.1-0.6,0.2-1.2c0.1-0.6,0.2-1.2,0.2-1.2c0,0,0-0.2,0.1-0.2
		c0-0.1,0-0.2,0.1-0.3c0,0,0-0.1,0-0.2l0-0.2c0-0.1,0.1-0.7,0.2-0.9c0,0,0-0.2,0.1-0.4c0-0.2,0.1-0.4,0.1-0.4c0,0,0-0.2,0.1-0.4
		c0-0.2,0.1-0.4,0.1-0.4c0-0.1,0.1-0.4,0.1-0.7c0.1-0.3,0.1-0.7,0.1-0.7c0-0.2-0.1-0.3-0.2-0.4c-0.1-0.1-0.1-0.1-1.5-0.1
		c-1.2,0-1.3,0-1.4,0.1c-0.1,0.1-0.2,0.2-0.2,0.4c0,0.1,0,0.2,0,0.2c0,0.1,0,0.1,0,0.2c0,0.1,0,0.2-0.1,0.3c0,0.1,0,0.3-0.1,0.3
		s0,0.2-0.1,0.3c0,0.1,0,0.3-0.1,0.4c0,0.1,0,0.2,0,0.2c0,0.1,0,0.1,0,0.2c0,0.1,0,0.1,0,0.2c0,0,0,0.1,0,0.2c0,0.1,0,0.2,0,0.2
		c0,0,0,0.2-0.1,0.4c0,0.2-0.1,0.8-0.1,0.9c0,0.1-0.1,0.5-0.1,0.7l-0.1,0.6c0,0.2,0,0.3-0.1,0.3c0,0,0,0.1,0,0.2c0,0.1,0,0.2,0,0.2
		c0,0,0,0.2,0,0.2c0,0.1-0.1,0.5-0.1,0.7c0,0,0,0.2,0,0.2c0,0.2,0,0.3-0.1,0.4c0,0,0,0.2,0,0.2c0,0.3-0.1,0.6-0.1,0.9
		c0,0,0,0.2,0,0.3c0,0.1,0,0.2,0,0.2c0,0.1,0,0.2,0,0.2c0,0.1,0,0.2,0,0.2c0,0.1,0,0.2,0,0.2c0,0.3-0.1,0.4-0.1,0.5
		c0,0-0.1,0-0.1-0.1c0-0.1-0.2-0.8-0.3-1.2c0,0-0.2-0.9-0.5-1.9c-0.3-1-0.5-1.9-0.5-2c-0.1-0.3-0.1-0.6-0.2-0.8
		c-0.1-0.4-0.2-0.8-0.2-0.8c0,0,0-0.1,0-0.1c0-0.1-0.1-0.3-0.1-0.4c-0.1-0.2-0.1-0.4-0.1-0.4c0-0.2-0.3-1.2-0.4-1.3
		c-0.2-0.4-0.4-0.6-0.8-0.7c-0.2,0-2.5,0-2.7,0c-0.4,0.1-0.6,0.2-0.7,0.6c-0.1,0.2-0.3,0.8-0.3,1.1c0,0-0.1,0.4-0.2,0.8
		c-0.1,0.4-0.2,0.7-0.2,0.8c-0.2,0.9-0.5,1.9-0.7,2.8c0,0,0,0.1,0,0.1c0,0-0.1,0.4-0.2,0.8c-0.1,0.4-0.2,0.8-0.2,0.8
		c0,0,0,0.2-0.1,0.4l-0.1,0.3c0,0-0.1,0.4-0.1,0.5c0,0,0,0.2-0.1,0.3c-0.1,0.4-0.1,0.5-0.2,0.5c-0.1,0-0.1-0.2-0.2-0.6
		c0-0.1,0-0.1,0-0.2c0,0,0-0.1,0-0.2c0-0.2,0-0.3-0.1-0.5c0-0.2-0.1-0.4-0.1-0.5c0-0.1,0-0.1,0-0.2c0,0,0-0.1,0-0.2
		c0-0.1,0-0.2,0-0.3c0,0,0-0.1,0-0.2c0-0.1,0-0.3-0.1-0.4c0-0.2-0.1-0.4-0.1-0.5c0-0.1,0-0.1,0-0.2c0-0.1,0-0.1,0-0.2
		c0-0.2,0-0.3-0.1-0.5c-0.1-0.3-0.1-0.8-0.1-0.9c0,0,0-0.2,0-0.2c0-0.1,0-0.2,0-0.2c0-0.1,0-0.2-0.1-0.8c0-0.3-0.1-0.5-0.1-0.5
		c0,0,0-0.2,0-0.3c0-0.1,0-0.3-0.1-0.4c0-0.1,0-0.2-0.1-0.3c0-0.1,0-0.3-0.1-0.4c0-0.1,0-0.2,0-0.2c0-0.1,0-0.1,0-0.2
		c0-0.1,0-0.2-0.1-0.4c-0.1-0.4-0.1-0.7-0.2-1.1c0-0.3-0.1-0.4-0.3-0.5c-0.1-0.1-0.2-0.1-1.4-0.1
		C364.4,230.9,363.8,230.9,363.7,230.9z"/>
</g>
<g id="XMLID_20_" class="st13">
	<text transform="matrix(1 0 0 1 399.6965 82.5267)" class="st3 st6">jupyter</text>
</g>
<g>
	<path class="st18" d="M353.9,75.9c0,1.3-0.1,1.7-0.3,1.9c-0.3,0.2-0.6,0.4-1,0.4l0.1,0.7c0.6,0,1.2-0.2,1.6-0.6
		c0.2-0.3,0.4-0.6,0.6-1c0.1-0.4,0.2-0.7,0.1-1.1v-4.7h-1V75.9z M361,75.3c0,0.6,0,1,0.1,1.4h-0.9l-0.1-0.9
		c-0.2,0.3-0.4,0.6-0.7,0.7c-0.3,0.2-0.6,0.2-1,0.2c-0.8,0-1.8-0.5-1.8-2.2v-3h1v2.9c0,1,0.3,1.7,1.2,1.7c0.2,0,0.3,0,0.5-0.1
		c0.2-0.1,0.3-0.2,0.4-0.3c0.2-0.2,0.2-0.2,0.3-0.4c0.1-0.2,0.1-0.3,0.1-0.5v-3.2h1V75.3z M365.5,71.5c-0.4,0-0.7,0.1-1,0.2
		c-0.3,0.2-0.6,0.5-0.8,0.8l-0.1-0.9h-0.9c0.1,0.5,0.1,1,0.1,1.7v5.6h1V76c0.2,0.2,0.4,0.5,0.7,0.6c0.3,0.2,0.6,0.2,0.9,0.2
		c1.2,0,2.4-1,2.4-2.8C367.7,72.5,366.7,71.5,365.5,71.5z M365.2,76.1c-0.3,0-0.6-0.1-0.9-0.3c-0.2-0.2-0.5-0.5-0.6-0.8
		c0-0.2-0.1-0.2-0.1-0.4v-0.9c0-0.4,0.2-0.8,0.5-1c0.2-0.3,0.6-0.5,1-0.5c1,0,1.5,0.9,1.5,1.9C366.7,75.3,366.2,76.1,365.2,76.1z
		 M369.4,71.5l1.1,3c0.2,0.3,0.2,0.7,0.3,1c0.1-0.3,0.2-0.7,0.3-1.1l1-3h1l-1.4,3.7c-0.7,1.8-1.1,2.7-1.8,3.3
		c-0.3,0.3-0.7,0.5-1.2,0.6l-0.2-0.8c0.3-0.1,0.6-0.2,0.8-0.5c0.3-0.3,0.6-0.6,0.8-1c0-0.1,0.1-0.2,0.1-0.2c0-0.1,0-0.2-0.1-0.2
		l-1.9-4.8L369.4,71.5z M375.8,70v1.5h1.4v0.7h-1.4v2.8c0,0.6,0.2,1,0.7,1c0.2,0,0.4,0,0.6-0.1l0.1,0.7c-0.2,0.1-0.6,0.2-0.9,0.2
		c-0.2,0-0.4,0-0.6-0.1s-0.3-0.2-0.5-0.3c-0.3-0.4-0.4-0.9-0.4-1.4v-2.9H374v-0.7h0.8v-1.3L375.8,70z M382.6,73.9
		c0-1-0.4-2.5-2.2-2.5c-1.5,0-2.5,1.2-2.5,2.8c0,0.3,0,0.7,0.2,1s0.3,0.6,0.6,0.9c0.2,0.2,0.6,0.5,0.9,0.6c0.3,0.2,0.6,0.2,1,0.2
		c0.6,0,1.2-0.1,1.8-0.3l-0.2-0.7c-0.5,0.2-1,0.3-1.4,0.2c-0.2,0-0.5,0-0.7-0.1c-0.2-0.1-0.4-0.2-0.6-0.4c-0.2-0.2-0.3-0.4-0.4-0.6
		c-0.1-0.2-0.1-0.5-0.1-0.7h3.7V73.9z M381.7,73.6h-2.8c0-0.4,0.2-0.8,0.4-1c0.2-0.3,0.6-0.5,1-0.5c0.2,0,0.4,0.1,0.6,0.2
		s0.3,0.2,0.5,0.3c0.2,0.2,0.2,0.3,0.2,0.5C381.8,73.2,381.8,73.4,381.7,73.6z M384,73.1c0-0.6,0-1.1-0.1-1.6h0.9v1h0.1
		c0.1-0.3,0.2-0.6,0.6-0.8c0.2-0.2,0.6-0.3,0.9-0.3h0.2v0.9h-0.3c-0.3,0-0.6,0.2-0.9,0.4c-0.2,0.2-0.4,0.6-0.4,0.9
		c0,0.2-0.1,0.3-0.1,0.5v2.8h-1L384,73.1z"/>
	<path class="st19" d="M383.6,57.2c0,0.5-0.1,1-0.3,1.4c-0.2,0.4-0.6,0.7-1,1c-0.4,0.2-0.9,0.3-1.4,0.2c-0.5-0.1-0.9-0.2-1.3-0.6
		s-0.6-0.7-0.7-1.2c-0.1-0.5-0.1-1,0.1-1.4c0.2-0.5,0.5-0.9,0.9-1.1c0.4-0.3,0.9-0.5,1.4-0.5c0.3,0,0.6,0,1,0.2
		c0.3,0.2,0.6,0.2,0.8,0.5c0.2,0.2,0.4,0.5,0.6,0.7C383.5,56.6,383.6,56.9,383.6,57.2z"/>
	<path class="st20" d="M369.5,85.1c-6.4,0-12.1-2.3-14.9-5.7c1.1,3,3.2,5.7,5.8,7.5c2.6,1.8,5.8,2.9,9.1,2.9c3.3,0,6.4-1,9.1-2.9
		c2.6-1.8,4.7-4.5,5.8-7.5C381.6,82.8,376,85.1,369.5,85.1z M369.5,63.1c6.4,0,12.1,2.3,14.9,5.7c-1.1-3-3.2-5.7-5.8-7.5
		c-2.6-1.8-5.8-2.9-9.1-2.9c-3.3,0-6.4,1-9.1,2.9c-2.6,1.8-4.7,4.5-5.8,7.5C357.6,65.3,363.2,63.1,369.5,63.1z"/>
	<path class="st21" d="M355.3,62.3c-0.3,0-0.7-0.1-1-0.2c-0.3-0.2-0.6-0.5-0.6-0.8c-0.2-0.3-0.2-0.6-0.2-1c0.1-0.3,0.2-0.6,0.5-0.9
		c0.2-0.2,0.6-0.4,0.9-0.5s0.7-0.1,1,0.1c0.3,0.2,0.6,0.3,0.8,0.6s0.3,0.6,0.3,1c0,0.5-0.2,1-0.5,1.3
		C356.3,62,355.8,62.3,355.3,62.3z"/>
	<path class="st22" d="M360.8,91.8c0,0.6-0.1,1.2-0.4,1.8c-0.3,0.6-0.7,1-1.3,1.2S358,95,357.3,95c-0.6-0.1-1.1-0.3-1.6-0.7
		c-0.5-0.4-0.8-1-0.9-1.5c-0.2-0.6-0.1-1.2,0.1-1.8c0.2-0.6,0.6-1,1-1.4c0.5-0.3,1-0.6,1.7-0.6c0.4,0,0.8,0,1.2,0.2
		c0.4,0.2,0.7,0.3,1,0.6c0.3,0.2,0.6,0.6,0.7,1C360.6,91,360.7,91.4,360.8,91.8z"/>
</g>
<g id="XMLID_14_" class="st13">
	<text transform="matrix(1 0 0 1 399.3969 160.9397)" class="st3 st6">minio</text>
</g>
<path class="st23" d="M384.5,145.9l-14.6,7.8c-0.2,0.1-0.5,0.1-0.7,0l-14.6-7.8c-0.3-0.2-0.7-0.3-1-0.3h0c-1-0.1-1.9,0.7-2,1.8v16.9
	h7.2v-8c0-0.4,0.4-0.7,0.8-0.6c0.1,0,0.2,0,0.3,0.1l8.2,4.4c0.8,0.4,1.8,0.4,2.6,0l8.6-4.4c0.3-0.2,0.8-0.1,1,0.3
	c0.1,0.1,0.1,0.2,0.1,0.3v8.1h7.2v-16.9c-0.1-1-1-1.8-2-1.8h0C385.2,145.7,384.8,145.8,384.5,145.9z"/>
<g id="XMLID_18_" class="st13">
	<text transform="matrix(1 0 0 1 627.1181 241.2965)" class="st3 st6">jaeger</text>
</g>
<g>
	<path class="st24" d="M587.8,251.1c-0.6,0.1-2.3,1.1-3.8,1.4c-1.5,0.3-2.8,0.4-3.2,0.6c-0.5,0.2-0.8,0.5,0.1,0.8
		c0.9,0.3,5.2,0.5,5.6,0c0.4-0.5-0.3-0.6-1.2-0.6c-0.7,0-0.6-0.2-0.6-0.3c0,0,0-0.3,1.1-0.4c1-0.1,5.6-0.6,5.5-1.1
		C591.1,251,588.4,251,587.8,251.1z"/>
	<path class="st24" d="M584,254.9c0,0.1,0.4,0.2,0.9,0.1c0.5-0.1,0.8-0.3,0.8-0.4l0,0c0-0.1-0.4-0.2-0.9-0.1
		C584.3,254.5,584,254.7,584,254.9L584,254.9z"/>
	<path class="st24" d="M581.9,254.6c0,0.1,0.4,0.2,1,0.2c0.5,0,0.9-0.2,0.9-0.3c0,0,0,0,0,0c0-0.1-0.4-0.2-0.9-0.2
		S581.9,254.5,581.9,254.6C581.9,254.6,581.9,254.6,581.9,254.6z"/>
	<path class="st24" d="M580.6,254.4c0,0.1,0.3,0.2,0.6,0.1s0.6-0.2,0.6-0.3v0c0-0.1-0.3-0.2-0.6-0.1S580.5,254.3,580.6,254.4z"/>
	<path class="st24" d="M579.4,254.3c0,0.1,0.3,0.1,0.6,0.1c0.3,0,0.6-0.2,0.6-0.2c0,0,0,0,0,0c0-0.1-0.3-0.1-0.6-0.1
		C579.6,254.1,579.4,254.2,579.4,254.3z"/>
	<path class="st24" d="M579.1,253.9c0,0.1,0.3,0.1,0.6,0.1c0.3,0,0.6-0.2,0.6-0.2c0,0,0,0,0,0c0-0.1-0.3-0.1-0.6-0.1
		S579.1,253.8,579.1,253.9z"/>
	<path class="st24" d="M579.1,253.5c0,0.1,0.3,0.1,0.5,0.1c0.3,0,0.5-0.1,0.5-0.2l0,0c0-0.1-0.3-0.1-0.5-0.1
		S579.1,253.4,579.1,253.5L579.1,253.5z"/>
	<path class="st24" d="M596.7,251.6c-1,0.1-3.3-0.1-3.6,0.5c-0.3,0.5,0.9,0.7,2.9,0.6c2-0.2,4.8-0.4,4.9-1c0.1-0.6-0.5-0.5-0.6-0.9
		c-0.1-0.4,0.7-0.4,0.9-1c0.2-0.6-1-0.5-2.1-0.5c-1.1,0-2.8,0.1-3,0.7c-0.2,0.6,0.8,0.6,1.5,0.7c0.7,0.1,0.5,0.4,0.5,0.4
		C598,251.4,597.7,251.5,596.7,251.6z"/>
	<path class="st24" d="M593.1,253c0,0.2,0.4,0.3,0.9,0.3c0.5,0,0.9-0.1,0.9-0.3v0c0-0.2-0.4-0.3-0.9-0.3
		C593.5,252.8,593.1,252.9,593.1,253L593.1,253z"/>
	<path class="st24" d="M595.7,253c0,0.1,0.3,0.3,0.6,0.3c0.3,0,0.6-0.1,0.6-0.3v0c0-0.1-0.3-0.3-0.6-0.3S595.7,252.8,595.7,253z"/>
	<path class="st24" d="M597.5,252.8c0,0.1,0.3,0.2,0.6,0.2c0.4,0,0.6-0.1,0.6-0.2v0c0-0.1-0.3-0.2-0.6-0.2
		C597.8,252.6,597.5,252.7,597.5,252.8L597.5,252.8z"/>
	<path class="st24" d="M599.1,252.6c0,0.1,0.2,0.2,0.5,0.2s0.5-0.1,0.5-0.2l0,0c0-0.1-0.2-0.2-0.5-0.2S599.1,252.4,599.1,252.6z"/>
	<path class="st24" d="M600.3,252.3c0,0.1,0.2,0.2,0.5,0.2s0.5-0.1,0.5-0.2s-0.2-0.2-0.5-0.2S600.3,252.2,600.3,252.3z"/>
	<path class="st24" d="M580,246.1c0,0.3,0.6,0.6,1.7,0.8c-0.1-0.6,0-1.1,0-1.6C580.6,245.6,580,245.9,580,246.1L580,246.1z
		 M612.5,245.4c0,0,0,0.1-0.1,0.1c-0.1,0.3-0.3,0.6-0.6,0.8c-0.5,0.5-0.9,0.8-1.3,0.9c2.2-0.3,3.4-0.7,3.4-1.1
		C614,245.9,613.5,245.6,612.5,245.4L612.5,245.4z"/>
	<path class="st25" d="M608.8,244.8c-0.1-1-0.6-1.5-0.9-1.9c-0.4-0.4-0.7-0.7-0.6-1.4c0.1-0.6,0.6-1,1.3-1.1
		c-0.5-3.2-1.2-7.2-2-10.6c-0.4-1.7-1.1-2.9-2.1-3.7c-1.1,0.5-2.4,1.1-3.8,1.8c-1,0.4-2.1,0.9-3.1,1.3c-0.8,0.9-1.7,1.7-2.3,2
		c-0.4,0.2-0.7,0.2-1,0.2c-0.7,0-1.1-0.3-1.3-0.6c-0.2,0.1-0.4,0.1-0.6,0.1c-0.2,0-0.4,0-0.7,0.1c0.1,0.3,0.1,0.6-0.1,0.9
		c-0.2,0.3-0.6,0.4-1.2,0.4c-0.8,0-1.9-0.3-3.4-0.9c-0.2-0.1-0.4-0.2-0.6-0.2c-0.1,0-0.2,0-0.3,0h0c-1.4,0-2.6,0-3.4-0.1
		c-1,2-0.5,4.2-0.2,6c0.3,1.8,1.5,4.9,2.6,7.6c0.4,0.9,0.7,1.8,1.1,2.7c2.9,0.3,6.7,0.4,10.8,0.4c4.9,0,9.3-0.2,12.4-0.6
		C609.2,246.5,608.9,245.2,608.8,244.8L608.8,244.8z M584.6,236.3c0-1.9,1.5-3.4,3.4-3.4c1.9,0,3.4,1.5,3.4,3.4c0,0.9-0.4,1.8-1,2.4
		c-0.2,0.2-0.4,0.4-0.7,0.5c-0.5,0.3-1.1,0.5-1.7,0.5C586.1,239.7,584.6,238.2,584.6,236.3L584.6,236.3z M593.7,243.5
		c-0.7,0.2-1-0.6-1.1-1c0,0,0,0,0,0c0.3-0.2,0.7-0.4,1.2-0.6c0.1,0.1,0.1,0.4,0.2,0.6C594,242.9,594,243.4,593.7,243.5L593.7,243.5z
		 M594.8,243.2c-0.2-0.1-0.3-0.4-0.4-0.7c-0.1-0.3-0.1-0.6-0.2-0.8c0.1,0,0.2,0,0.3,0c0,0,0.1,0,0.3,0c0.2,0,0.4,0,0.6,0
		c0.1,0,0.1,0,0.2,0c0,0.2,0,0.4,0.1,0.7c0,0,0,0.1,0,0.1C595.7,243.3,595,243.3,594.8,243.2z M597.9,241.1
		c-0.3,0.2-0.9,0.2-1.7,0.2c-0.3,0-0.6,0-0.9,0c-0.2,0-0.4,0-0.6,0c-0.2,0-0.3,0-0.4,0c-0.8,0.1-1.5,0.5-2,0.9
		c-0.2,0.1-0.3,0.2-0.4,0.3c-0.2,0.1-0.5,0.2-0.8,0.2c-0.5,0-1-0.2-1.4-0.6c-0.3-0.3-0.4-0.7-0.3-1.1c0.2-1.2,1.9-1.8,2.1-1.9
		l0.3-0.1c0,0,0-0.1,0-0.1c-0.1-0.6,0.6-1.2,1.6-1.3c0,0,0.1,0,0.1,0c0.8-0.1,1.6,0.1,1.8,0.5l0.4,0c0.9,0,1.6,0.1,2.2,0.4
		c0.6,0.2,0.9,0.6,1,0.9C599,240.2,598.6,240.8,597.9,241.1z M598.5,237.2c-1.9,0-3.4-1.5-3.4-3.4c0-1.9,1.5-3.4,3.4-3.4
		c1.9,0,3.4,1.5,3.4,3.4C601.9,235.7,600.4,237.2,598.5,237.2z"/>
	<path d="M602.9,222.3L602.9,222.3L602.9,222.3c-0.1-0.1-0.2-0.2-0.2-0.2l0,0l0,0l0,0l0,0l0,0l0,0l-0.1,0c0,0-0.1,0-0.1,0
		c-0.1,0-0.1,0-0.2,0c-0.1,0-0.1,0-0.2,0c-0.2,0-0.4,0.1-0.5,0.3c-0.1,0.1-0.3,0.3-0.3,0.4c-0.2,0.3-0.3,0.5-0.3,0.8
		c-0.1,0.2-0.1,0.4-0.1,0.6c0,0.1,0,0.1,0,0.2c0,0,0,0.1,0,0.1l0.1-0.2c0.1-0.1,0.2-0.3,0.3-0.5c0.1-0.2,0.3-0.4,0.4-0.6
		c0.1-0.1,0.2-0.2,0.3-0.3c0.1-0.1,0.2-0.1,0.3-0.1c0,0,0.1,0,0.1,0c0,0,0.1,0,0.1,0c0,0,0.1,0,0.1,0l0.1,0l0,0c0,0,0,0,0,0
		c0,0,0,0,0,0c0,0,0,0,0,0l0,0l0,0l0,0c0,0,0,0,0,0c0,0,0,0,0,0c0,0,0,0.1,0,0.1c0,0.1,0,0.2,0,0.4c0,0.1,0,0.2-0.1,0.4
		c-0.1,0.2-0.1,0.4-0.1,0.6c0,0.1-0.1,0.2-0.1,0.2s0.1-0.1,0.1-0.2c0.1-0.2,0.2-0.3,0.3-0.5c0.1-0.1,0.1-0.2,0.2-0.4
		c0.1-0.1,0.1-0.3,0.1-0.5C603,222.6,603,222.5,602.9,222.3C602.9,222.4,602.9,222.4,602.9,222.3z"/>
	<path d="M602.5,222.6L602.5,222.6C602.5,222.6,602.5,222.6,602.5,222.6L602.5,222.6L602.5,222.6
		C602.5,222.6,602.5,222.6,602.5,222.6z"/>
	<path class="st24" d="M581.7,228.8L581.7,228.8C581.8,228.8,581.8,228.8,581.7,228.8L581.7,228.8z M582.2,227.5
		c0.1,0.2,0.2,0.3,0.3,0.5c0,0.1,0.1,0.1,0.1,0.1c0,0,0,0,0,0s0-0.1,0-0.2c0-0.1-0.1-0.3-0.1-0.5c0-0.1,0-0.2,0-0.3
		c0-0.1,0-0.2,0-0.3c0,0,0-0.1,0-0.1c0,0,0,0,0,0l0,0l0,0c0,0,0,0,0,0c0,0,0,0,0,0c0,0,0,0,0,0l0,0c0,0,0,0,0,0c0,0,0.1,0,0.1,0.1
		c0.1,0.1,0.2,0.2,0.3,0.3c0.1,0.1,0.2,0.2,0.2,0.3c0.2,0.2,0.3,0.4,0.4,0.6c0.1,0.1,0.2,0.3,0.3,0.4c0,0.1,0.1,0.1,0.1,0.2l0-0.1
		c0,0,0-0.1,0-0.1c0-0.2-0.1-0.3-0.1-0.5c-0.1-0.2-0.2-0.5-0.3-0.7c-0.1-0.1-0.1-0.2-0.2-0.4c-0.1-0.1-0.2-0.2-0.3-0.4
		c-0.1-0.1-0.2-0.1-0.3-0.1c0,0-0.1,0-0.1,0l0,0l0,0c0,0,0,0-0.1,0c0,0,0,0-0.1,0l0,0l0,0l0,0l0,0l0,0c-0.1,0-0.2,0.1-0.3,0.2
		c-0.1,0.1-0.1,0.2-0.1,0.3c0,0.2,0,0.3,0.1,0.5C582.1,227.3,582.1,227.4,582.2,227.5L582.2,227.5z"/>
	<path class="st26" d="M583.7,248.5c0.8,0,1.4-0.4,1.8-1c-0.5-1-1.2-2.8-1.9-4.7c-0.2,0.2-0.4,0.4-0.7,0.8c-0.6,0.9-1.1,3.1-0.5,4.2
		C582.7,248.3,583.1,248.5,583.7,248.5z M612,243.2c-0.5-1.2-1.5-2.1-2.4-2.1l0,0c0,0-0.2,0-0.4,0c-0.5,0-1.2,0.1-1.3,0.6
		c-0.1,0.4,0.1,0.6,0.4,0.9c0.4,0.4,0.9,1,1.1,2.1c0.2,1.3,0.5,2,1,2c0.2,0,0.6-0.1,1.3-0.7C612.4,245.3,612.3,244,612,243.2z"/>
	<path class="st24" d="M586.6,237.5c0,0.6,0.5,1.1,1.1,1.1s1.1-0.5,1.1-1.1s-0.5-1.1-1.1-1.1S586.6,236.9,586.6,237.5L586.6,237.5z"
		/>
	<path class="st24" d="M597,235c0,0.6,0.5,1.1,1.1,1.1s1.1-0.5,1.1-1.1s-0.5-1.1-1.1-1.1S597,234.4,597,235z"/>
	<path class="st27" d="M584.7,225.5c0.8,0.2,1.8,0.3,2.8,0.3c1.7,0,5.2-0.3,10.1-2.5l0.1,0c0-0.3,0-0.5,0.1-0.8
		c0.1-0.5,0.3-0.9,0.6-1.2c-0.1-0.2-0.1-0.3-0.1-0.4c-0.6-0.3-5.3-2.1-7.7-2.1c-0.2,0-0.5,0-0.6,0.1c-2.2,0.4-5.5,4.2-5.6,4.8
		c0,0.2,0,1,0,1.7L584.7,225.5L584.7,225.5z M584.7,230.8c-0.1,0-0.2,0-0.2,0c-0.5,0-0.9-0.3-1-0.7c0,0,0-0.1,0-0.1
		c-0.2,0.1-0.5,0.3-0.7,0.5l-0.4,0.3l-0.3-0.4c-0.1-0.1-0.5-0.7-0.9-1.4c-0.7,0.3-1.3,0.7-1.4,1.1c0,0.1,0,0.1,0,0.1
		C579.9,230.2,580.6,230.7,584.7,230.8L584.7,230.8z M593.3,229.7c0.4-0.2,0.8-0.2,1.1,0.1c0,0,0.1,0,0.2-0.1c0.5-0.2,2.1-2,3.3-3.4
		c0-0.1,0.1-0.1,0.1-0.1c-2.8,1.2-6.8,2.6-10.5,2.6c-0.6,0-1.2,0-1.7-0.1l0.1,0.2l-0.5,0.2c0,0-0.1,0-0.2,0.1
		c0.6,0.1,1.4,0.4,2.4,0.8c1.9,0.8,2.6,0.8,2.8,0.8c0.3-0.1,0.6-0.1,0.8,0c0.5,0,0.9-0.1,1.1-0.1c0.1,0,0.3,0,0.5-0.1
		C592.8,230.2,593,229.8,593.3,229.7z M604.2,224.1c-0.1,0.8-0.4,1.7-0.6,2l-0.2,0.2c0.7-0.4,1.4-0.7,2-1c2-1.1,2.2-1.6,2.2-1.7
		c0-0.1,0-0.1,0-0.1c0,0-0.2-0.2-0.8-0.2c-0.7,0-1.6,0.2-2.6,0.4C604.2,223.8,604.2,223.9,604.2,224.1z M603.4,226.3l-0.3,0
		c0,0-0.5,0-1.2,0c-0.7,0-1.7,0-2.5,0.2c0.2,0.3,0.1,0.7-0.1,1c-0.3,0.4-0.6,0.7-0.9,1.1c0.7-0.3,1.4-0.6,2.1-0.9
		C601.6,227.1,602.6,226.7,603.4,226.3L603.4,226.3z"/>
	<path class="st26" d="M597.9,223.8c-2,0.9-6.3,2.5-10.3,2.5c-1,0-2-0.1-3-0.4c0.1,0.2,0.2,0.3,0.3,0.5c0.3,0.6,0.6,1.2,0.7,1.6
		c0.5,0.1,1.1,0.1,1.9,0.1c2.3,0,5.9-0.5,10.9-2.8c0.1-0.2,0.2-0.6,0.3-0.9c0,0,0,0,0,0c-0.1,0-0.1,0-0.2,0
		C598.3,224.4,598,224.2,597.9,223.8z"/>
	<path class="st25" d="M581.8,228.8c0.4,0.6,0.7,1.1,0.7,1.1c1.2-0.8,2.8-1.4,2.8-1.4s0-0.1-0.1-0.3c0-0.1-0.1-0.2-0.1-0.3
		c-0.1-0.1-0.1-0.2-0.2-0.4c0-0.1-0.1-0.1-0.1-0.2c-0.1-0.1-0.1-0.3-0.2-0.4c-0.1-0.2-0.3-0.5-0.4-0.7c-0.5-0.7-1.1-1.3-1.8-1.3
		c-0.2,0-0.4,0.1-0.7,0.2C580.5,225.9,581.1,227.6,581.8,228.8C581.8,228.8,581.8,228.8,581.8,228.8L581.8,228.8z M582,226.7
		c0-0.1,0-0.2,0.1-0.3c0.1-0.1,0.2-0.2,0.3-0.2l0,0l0,0l0,0l0,0l0,0c0,0,0,0,0.1,0c0,0,0,0,0.1,0l0,0l0,0c0,0,0.1,0,0.1,0
		c0.1,0,0.2,0.1,0.3,0.1c0.1,0.1,0.2,0.2,0.3,0.4c0.1,0.1,0.2,0.2,0.2,0.4c0.1,0.2,0.2,0.5,0.3,0.7c0.1,0.2,0.1,0.3,0.1,0.5
		c0,0.1,0,0.1,0,0.1l0,0.1c0,0,0-0.1-0.1-0.2c-0.1-0.1-0.2-0.3-0.3-0.4c-0.1-0.2-0.3-0.4-0.4-0.6c-0.1-0.1-0.2-0.2-0.2-0.3
		c-0.1-0.1-0.2-0.2-0.3-0.3c0,0-0.1-0.1-0.1-0.1c0,0,0,0,0,0l0,0c0,0,0,0,0,0c0,0,0,0,0,0c0,0,0,0,0,0l0,0l0,0c0,0,0,0,0,0
		c0,0,0,0,0,0.1c0,0.1,0,0.2,0,0.3c0,0.1,0,0.2,0,0.3c0,0.2,0.1,0.4,0.1,0.5c0,0.1,0,0.2,0,0.2s0,0,0,0c0,0-0.1-0.1-0.1-0.1
		c-0.1-0.1-0.2-0.3-0.3-0.5c-0.1-0.1-0.1-0.2-0.1-0.3C582,227,582,226.9,582,226.7z M582.4,224.6v0.3V224.6z"/>
	<path class="st26" d="M599.2,220.9c0.1,0,0.1,0,0.2,0c0.4,0.1,0.6,0.5,0.7,1c0.7-1,1.5-1.5,2.4-1.5c0.4,0,0.7,0.1,0.9,0.2
		c0.4-0.5,0.7-0.9,0.7-0.9c-0.3,0.1-1,0.2-1,0.2c2.7-1,2.5-3.7,2.5-3.7c0,0.5-1.4,1.6-1.4,1.6c0.1-0.4-0.2-0.9-0.2-0.9
		c0.1,0.5-1.6,1.9-1.6,1.9c0.1-0.2,0-0.7,0-0.7c-0.1,0.5-0.8,0.7-0.8,0.7c0.5-0.6,1.3-3.5,0.7-3.7c-0.6-0.2-1.5,1.9-1.5,1.9
		c0-0.5-0.3-0.5-0.3-0.5c0.1,1.5-1.1,2.8-1.1,2.8c-0.1-0.3-0.6-0.5-0.6-0.5c0.2,0.3,0,1.9-0.1,2.3C598.8,221,599,220.9,599.2,220.9z
		"/>
	<path d="M598.5,223.9L598.5,223.9C598.5,223.9,598.6,223.9,598.5,223.9C598.6,223.9,598.6,223.9,598.5,223.9
		C598.6,223.9,598.6,223.9,598.5,223.9c0.1,0.1,0.1,0.1,0.1,0.1h0c0,0,0.1,0,0.1,0c0.1,0,0.2-0.1,0.3-0.1c0.1-0.2,0.2-0.4,0.3-0.6
		c0.1-0.2,0.2-0.3,0.3-0.5c0.1-0.7,0-1.3-0.3-1.3c0,0,0,0,0,0c-0.3,0-0.7,0.5-0.8,1.2c-0.1,0.5-0.1,0.9,0.1,1.2l0,0
		C598.5,223.8,598.5,223.9,598.5,223.9L598.5,223.9z"/>
	<path class="st25" d="M602.5,222.6C602.5,222.6,602.5,222.6,602.5,222.6C602.5,222.6,602.5,222.6,602.5,222.6L602.5,222.6
		C602.5,222.6,602.5,222.6,602.5,222.6z M602.5,222.6L602.5,222.6L602.5,222.6C602.5,222.6,602.5,222.6,602.5,222.6L602.5,222.6
		C602.5,222.6,602.5,222.6,602.5,222.6L602.5,222.6z"/>
	<path class="st25" d="M602.5,220.9c-1.5,0-2.6,2.3-3.2,3.8c-0.1,0.3-0.2,0.5-0.3,0.8c0,0.1-0.1,0.3-0.1,0.4c0.1,0,0.1,0,0.2,0.1
		c0.9-0.3,2-0.3,2.9-0.3c0.7,0,1.3,0,1.3,0C603.4,225.4,604.8,220.9,602.5,220.9z M603,222.7c0,0.2-0.1,0.3-0.1,0.5
		c0,0.1-0.1,0.2-0.2,0.4c-0.1,0.2-0.2,0.3-0.3,0.5c-0.1,0.1-0.1,0.2-0.1,0.2s0-0.1,0.1-0.2c0-0.1,0.1-0.3,0.1-0.6
		c0-0.1,0.1-0.2,0.1-0.4c0-0.1,0-0.3,0-0.4c0-0.1,0-0.1,0-0.1c0,0,0,0,0,0l0,0c0,0,0,0,0,0l0,0l-0.1,0c0,0-0.1,0-0.1,0
		c0,0-0.1,0-0.1,0c0,0-0.1,0-0.1,0c-0.1,0-0.2,0.1-0.3,0.1c-0.1,0.1-0.2,0.2-0.3,0.3c-0.2,0.2-0.3,0.4-0.4,0.6
		c-0.1,0.2-0.2,0.4-0.3,0.5l-0.1,0.2c0,0,0,0,0-0.1c0,0,0-0.1,0-0.2c0-0.2,0-0.4,0.1-0.6c0.1-0.2,0.2-0.5,0.3-0.8
		c0.1-0.1,0.2-0.3,0.3-0.4c0.1-0.1,0.3-0.2,0.5-0.3c0.1,0,0.1,0,0.2,0c0.1,0,0.1,0,0.2,0c0,0,0.1,0,0.1,0l0.1,0l0,0l0,0l0,0l0,0l0,0
		l0,0c0,0,0.1,0.1,0.2,0.1l0,0l0,0c0,0,0,0.1,0,0.1C603,222.5,603,222.6,603,222.7z"/>
	<path d="M594.3,231.1c0.2,0,0.5-0.1,0.8-0.2c0.6-0.3,2.1-1.8,3.8-3.8c0.1-0.1,0.1-0.2,0.1-0.3c0-0.1-0.1-0.2-0.1-0.2
		c-0.1-0.1-0.1-0.1-0.2-0.1c-0.1,0-0.2,0-0.3,0.1c-0.7,0.9-2.8,3.2-3.5,3.6l0,0c-0.1,0.1-0.3,0.1-0.4,0.1l-0.3,0l-0.2-0.2
		c-0.1-0.1-0.2-0.1-0.2-0.1c-0.1,0-0.1,0-0.2,0.1c-0.1,0.1-0.1,0.1-0.2,0.2c0,0.1,0,0.2,0,0.3C593.5,230.7,593.7,231.1,594.3,231.1z
		 M590.9,231.1c-0.1,0-0.1,0-0.2,0l-0.1,0.1l-0.1,0c0,0-0.1,0-0.1,0c-0.3,0-1.2-0.1-2.9-0.8c-1.9-0.8-2.7-0.9-3-0.9
		c-0.1,0-0.1,0-0.1,0c-0.1,0-0.2,0.1-0.2,0.1c-0.1,0.1-0.1,0.2-0.1,0.3c0,0.2,0.2,0.3,0.4,0.3c0,0,0,0,0,0l0,0l0,0
		c0.2,0,0.9,0.1,2.7,0.8c1.4,0.6,2.5,0.9,3.2,0.9c0.4,0,0.6-0.1,0.8-0.2c0.1-0.1,0.1-0.2,0.1-0.3c0-0.1-0.1-0.2-0.1-0.2
		C591.1,231.2,591,231.1,590.9,231.1z"/>
	<path class="st26" d="M595.8,238.7c0,0-0.1,1.2-1.8,1.4c-0.3,0-0.6,0.1-0.8,0.1c-0.9,0-1.2-0.3-1.5-0.5c0,0-1.6,0.5-1.7,1.5
		c-0.1,0.7,0.6,1,1.2,1c0.2,0,0.4,0,0.5-0.1c0.6-0.3,1.5-1,2.6-1.2c0.1,0,0.3,0,0.4,0c0.4,0,0.9,0,1.5,0c0.6,0,1.2,0,1.5-0.2
		c0.7-0.3,0.7-0.9,0.7-1.2C598.3,239.2,597.6,238.7,595.8,238.7z"/>
	<path class="st24" d="M593.8,239.6C593.8,239.6,593.9,239.6,593.8,239.6c0.1,0,0.1,0,0.1,0c0.9-0.2,1.5-0.7,1.5-1.2
		c0-0.1,0-0.2-0.1-0.3c-0.2-0.4-1-0.7-1.8-0.5c0,0-0.1,0-0.1,0c-1,0.2-1.7,0.8-1.6,1.3c0,0,0,0.1,0,0.1
		C592,239.5,592.9,239.8,593.8,239.6z"/>
</g>
<g id="XMLID_4_" class="st13">
	<text transform="matrix(1 0 0 1 626.8181 80.9398)" class="st3 st6">gradio</text>
</g>
<g>
	<path class="st28" d="M596.6,56l19.9,10.6v6.2l-19.9-10.6V56L596.6,56z"/>
	<path class="st29" d="M616.5,66.6l-20,10.6v6.2l20-10.6V66.6L616.5,66.6z"/>
	<path class="st28" d="M576.5,66.6l20,10.6v6.2l-20-10.6V66.6L576.5,66.6z"/>
	<path class="st29" d="M596.6,56l-20.1,10.6v6.2l20.1-10.6V56z"/>
	<path class="st28" d="M596.6,66.7l19.9,10.6v6.1l-19.9-10.6V66.7z"/>
	<path class="st29" d="M616.5,77.2l-20,10.6V94l20-10.6V77.2z"/>
	<path class="st28" d="M576.5,77.2l20,10.6V94l-20-10.6V77.2z"/>
	<path class="st29" d="M596.6,66.6l-20.1,10.6v6.2l20.1-10.6V66.6L596.6,66.6z"/>
</g>
<g id="XMLID_2_" class="st13">
	<text transform="matrix(1 0 0 1 626.8182 160.9399)" class="st3 st6">mysql</text>
</g>
<path class="st30" d="M580.3,136.5c0.3,0,0.5,0.1,0.8,0.1c0.4,0.1,0.8,0.2,1.2,0.4c0.7,0.3,1.4,0.6,2.1,1.1c0.3,0.2,0.6,0.5,0.9,0.7
	c0.1,0,0.2,0.1,0.2,0.1c1.2,0.1,2.4,0.2,3.6,0.5c0.7,0.2,1.4,0.6,2.1,1c1.9,1.1,3.6,2.4,5.2,3.9c0.8,0.8,1.5,1.6,2.2,2.5
	c0.8,1,1.5,2,2.1,3.1c0.4,0.8,0.7,1.7,1.1,2.5c0.8,1.7,1.6,3.3,2.4,5c0.2,0.5,0.5,0.9,0.7,1.4c0.1,0.3,0.3,0.5,0.6,0.5
	c2.2,0.7,4.1,1.9,5.8,3.3c0.4,0.4,0.9,0.7,1.4,1.1c0.3,0.3,0.6,0.6,0.9,0.9c0.2,0.3,0.4,0.5,0.6,0.8c0.1,0.1,0.1,0.2-0.1,0.3
	c-0.7,0.2-1.4,0.5-2.1,0.6c-0.8,0.1-1.7,0.3-2.5,0.4c-0.2,0-0.5,0.1-0.8,0.1c0.1,0.1,0.1,0.3,0.2,0.4c0.4,0.5,0.9,0.9,1.5,1.2
	c1.2,0.6,2.2,1.5,3.2,2.4c0.3,0.4,0.7,0.7,1,1.1c0.1,0.2,0.3,0.3,0.4,0.4c0.3,0.3,0.5,0.6,0.5,1c0,0-0.1,0-0.1,0
	c-0.4-0.2-0.9-0.5-1.3-0.7c-1.8-0.8-3.6-1.7-5.3-2.5c-1.1-0.6-2.2-1.2-3.4-1.7c-1.8-0.9-3.7-1.7-5.5-2.5c-1.5-0.7-3-1.5-4.2-2.5
	c-1.4-1.1-2.5-2.4-3.5-3.9c-1.2-1.7-2.3-3.6-3.3-5.4c-0.8-1.5-1.6-2.9-2.6-4.3c-0.8-1-1.7-2-2.5-3c-0.1-0.2-0.3-0.3-0.5-0.5
	c0,0.1,0,0.1,0,0.2c0.4,1.2,1,2.3,1.9,3.3c0.5,0.5,0.6,1,0.4,1.6c-0.2,0.4-0.3,0.9-0.4,1.3c-0.3,0.6-0.3,1.3-0.5,2
	c-0.2,0.9-0.1,1.8,0,2.8c0.1,0.8,0.1,1.5,0.4,2.2c0.2,0.5,0.5,1.1,0.7,1.6c0.1,0.2,0.3,0.4,0.6,0.5c0.2,0.1,0.3,0.1,0.3-0.2
	c0-0.3,0.1-0.5,0.1-0.8c0.1-0.6,0.1-1.3,0.3-1.9c0.2-0.8,0.5-1.5,1-2c0.2-0.2,0.4-0.5,0.6-0.7c0,0.1,0.1,0.1,0.1,0.2
	c0.6,1.9,1.5,3.6,2.5,5.3c0.8,1.3,1.5,2.6,2.6,3.7c0.3,0.3,0.7,0.6,1.1,1c0,0,0.1,0,0.1,0.1l-0.1,0.1c-0.1,0-0.2-0.1-0.3-0.2
	c-0.4-0.3-0.7-0.6-1.1-0.9c-0.8-0.7-1.5-1.4-2.3-2.1c-0.6-0.6-1.1-1.2-1.6-1.9c-0.2-0.4-0.4-0.9-0.6-1.3c-0.1-0.2-0.2-0.4-0.3-0.5
	c0-0.1-0.1-0.1-0.1-0.1c0,0.1-0.1,0.1-0.1,0.2c0,0.2,0,0.5-0.1,0.7c-0.1,0.6-0.2,1.2-0.3,1.8c-0.1,0.3-0.2,0.7-0.5,0.9
	c-0.3,0.4-0.7,0.4-1.2,0.4c-0.6-0.1-1-0.4-1.4-0.9c-1-1.2-1.5-2.6-1.7-4.1c-0.2-1.3-0.2-2.6,0-3.9c0.1-0.5,0.2-1,0.4-1.5
	c0.1-0.4,0.2-0.8,0.4-1.3c0.1-0.2,0.1-0.3,0.2-0.5c0.1-0.1,0.1-0.3-0.1-0.4c-0.5-0.3-0.7-0.9-1.1-1.3c-0.8-1.3-1.3-2.8-1.8-4.2
	c-0.1-0.3-0.2-0.6-0.3-0.9c-0.1-0.4-0.3-0.7-0.5-1c-0.6-0.9-1.2-1.8-1.9-2.6c-0.4-0.5-0.7-1-0.8-1.6l-0.1-0.3v-0.6
	c0-0.1,0-0.2,0.1-0.3c0.2-0.7,0.6-1.2,1.4-1.4c0.1,0,0.3,0,0.4-0.1H580.3z M585,143c0.1,0.1,0.2,0.2,0.2,0.4
	c0.4,0.6,0.8,1.3,1.2,1.9c0,0.1,0.1,0.1,0.1,0.1c0.6-0.1,1-0.6,0.9-1.1c-0.1-0.5-0.5-0.9-0.8-1.3c-0.3-0.4-0.7-0.4-1.2-0.2
	C585.3,142.8,585.2,142.9,585,143z"/>
<path class="st1" d="M1075.6,100H880.4c-1.3,0-2.4-1.1-2.4-2.4V52.4c0-1.3,1.1-2.4,2.4-2.4h195.2c1.3,0,2.4,1.1,2.4,2.4v45.2
	C1078,98.9,1076.9,100,1075.6,100z"/>
<g>
	<g id="XMLID_28_" class="st13">
		<text transform="matrix(1 0 0 1 972.3414 80.94)" class="st3 st6">tekton</text>
	</g>
	<g>
		<path d="M926.7,55c-0.7,0-1.3,0.5-1.5,1.1c-0.4,1.3-0.5,2.7-0.3,4.1c0.2,1.4,0.6,2.7,1.3,3.9c0.4,0.8,0.9,1.5,1.5,2.2
			c-0.1,0.4-0.2,0.9-0.2,1.3c-0.1,0.8-0.1,1.5-0.1,2.3c0,0.3,0,0.6,0.1,0.9c0.1,0.9,0.9,2,1.5,2.7c0.9,1.2,2.1,2.1,3.4,2.9
			c0,0,0,0.1,0.1,0.1c0.1,0.3,0.3,0.6,0.5,0.8c-0.4,0.9-0.7,1.8-0.8,2.8c-0.2,0.7-0.3,1.4-0.3,2.2c-0.3,0.1-0.5,0.3-0.8,0.5
			c-0.7,0.5-1.1,1.2-1.4,2.1c-0.1,0.2-0.1,0.5-0.2,0.7l-0.4-0.1l0,0.3c-0.2,1.2-0.1,2.3,0.4,3.3c-0.4,0.1-0.8,0.2-1.2,0.5
			c-0.3,0.2-0.5,0.5-0.6,0.8c-0.2,0.6-0.5,1.2-0.5,1.8c0,0.5,0.1,0.9,0.5,1.2c0.2,0.2,0.5,0.3,0.7,0.3h3.9c0.2,0.6,0.7,1.2,1.3,1.4
			c0.2,0,0.4,0.1,0.6,0.1c0.2,0,0.4,0,0.6,0c0.5,0,1,0,1.5,0c0.8,0,1.6,0,2.4,0c0.5,0,0.9-0.3,1.1-0.7c0.2,0.4,0.6,0.7,1.1,0.7
			c0.8,0,1.6,0,2.4,0c0.5,0,1,0,1.5,0c0.2,0,0.4,0,0.6,0c0.2,0,0.4,0,0.6-0.1c0.7-0.2,1.1-0.7,1.3-1.4h4c0.3,0,0.5-0.1,0.7-0.3
			c0.4-0.3,0.5-0.7,0.5-1.2c0-0.6-0.2-1.3-0.5-1.8c-0.4-0.8-1-1.1-1.8-1.3c0.5-1.1,0.6-2.1,0.4-3.3l0-0.3l-0.3,0.1l0-0.1
			c0,0,0-0.1,0-0.1c0.2-0.5,0.5-1,0.8-1.5c0.4-0.6,0.8-1.2,1.2-1.8c0.2-0.3,0.5-0.6,0.8-0.8c0.5-0.5,1.1-0.9,1.8-0.9
			c0.5,0,1,0.1,1.3,0.4c0.3,0.2,0.4,0.5,0.6,0.8c0.2,0.6,0.4,1,0.8,1.5c0.8,0.8,2,0.8,3,0.3c0.8-0.4,1.4-1,1.6-1.8
			c0.1-0.2,0.1-0.5,0.1-0.8c-0.2-1.5-1.1-2.9-2.3-3.9c-1.1-0.9-2.4-1.5-3.8-1.6c-1.3,0-2.6,0.4-3.7,1c-1.9,1.1-3.5,2.8-4.6,4.8
			c0-0.3-0.1-0.6-0.2-0.9c-0.1-0.6-0.2-1.1-0.4-1.7c-0.1-0.3-0.2-0.5-0.3-0.8c0.2-0.2,0.3-0.3,0.4-0.5c0.1-0.2,0.3-0.4,0.4-0.7
			l0.1-0.1c1.3-0.7,2.4-1.7,3.4-2.9c0.6-0.7,1.4-1.7,1.5-2.7c0-0.3,0-0.6,0.1-1c0-0.8,0-1.5-0.1-2.3c-0.1-0.4-0.1-0.8-0.2-1.2
			c0.6-0.7,1.1-1.4,1.5-2.2c0.7-1.2,1.1-2.6,1.3-3.9c0.2-1.4,0.1-2.8-0.3-4.1c-0.2-0.7-0.8-1.1-1.5-1.1c-2.6,0-4.9,1.1-6.9,2.4
			c-3.9-2.4-8.9-2.4-12.8,0C931.6,56.1,929.4,55,926.7,55z M926.8,56.5h0.1c1.4,0.8,2.7,2.4,3.7,4c-0.2,0.3-0.4,0.5-0.6,0.8
			c-0.7,1.1-1.2,2.2-1.6,3.4C927.2,63.2,925.8,60.3,926.8,56.5C926.8,56.6,926.8,56.5,926.8,56.5z M953.3,56.5h0.1l0,0
			c1,3.7-0.5,6.6-1.7,8.2c-0.4-1.3-1-2.5-1.7-3.6c-0.1-0.2-0.3-0.4-0.5-0.6C950.6,58.9,951.8,57.3,953.3,56.5z M928.9,56.8
			c1.3,0.3,2.5,1,3.7,1.7c-0.5,0.4-0.9,0.8-1.3,1.2c-0.2-0.4-0.5-0.7-0.7-1.1C930.1,58,929.5,57.4,928.9,56.8z M951.3,56.8
			c-0.6,0.6-1.1,1.2-1.6,1.9c-0.3,0.3-0.5,0.7-0.7,1.1c-0.4-0.4-0.8-0.9-1.3-1.2C948.8,57.8,950,57.2,951.3,56.8L951.3,56.8z
			 M939.8,57.1v4.3c-2.3,0-4.6,0.7-6,1.9c-1.6,1.4-2.7,3.9-2.6,5.2c0.1,1.2,2,1.9,4.4,2.4c-0.1,0.2-0.2,0.5-0.3,0.7
			c-0.1,0.4-0.1,0.7,0,1.1c-0.8-0.1-1.7-0.2-2.5-0.4c-1.3-0.3-2.6-0.7-3.9-1.2c0-0.1-0.1-0.2-0.1-0.4c0,0-0.5-4.8,2.1-8.7
			C933.2,58.8,936.5,57.2,939.8,57.1L939.8,57.1z M940.4,57.1c3.3,0.1,6.5,1.7,8.6,4.8c2.8,4,2.2,8.9,2.2,8.9c0,0.1,0,0.2-0.1,0.4
			c-1.3,0.5-2.6,0.9-3.9,1.2c-0.7,0.2-1.6,0.3-2.5,0.4c0.1-0.4,0.1-0.7,0-1.1c0-0.3-0.1-0.5-0.3-0.7c2.5-0.4,4.3-1.2,4.4-2.4
			c0.1-1.3-1-3.8-2.6-5.2c-1.4-1.2-3.7-1.9-6-1.9V57.1z M939,58.3c-0.2,0-0.4,0.2-0.4,0.4c0,0,0,0,0,0c0,0.3,0.4,0.5,0.6,0.3
			c0.1-0.1,0.1-0.4,0-0.5C939.2,58.3,939.1,58.3,939,58.3z M941.2,58.3c-0.2,0-0.4,0.2-0.4,0.4c0,0.3,0.4,0.5,0.6,0.3
			c0.1-0.1,0.1-0.4,0-0.5C941.4,58.3,941.3,58.3,941.2,58.3z M939,59.9c-0.2,0-0.4,0.2-0.4,0.4c0,0.3,0.4,0.5,0.6,0.3
			C939.5,60.3,939.3,59.9,939,59.9L939,59.9z M941.2,59.9c-0.2,0-0.4,0.2-0.4,0.4C941.1,60.3,941.2,60.1,941.2,59.9z M935.4,66.2
			c0.5,0,1.1,0.3,1.4,0.7c0.4,0.4,0.6,1,0.6,1.6c0,0.2-0.2,0.4-0.4,0.4s-0.4-0.2-0.4-0.4c0-0.4-0.1-0.8-0.4-1.1
			c-0.2-0.3-0.5-0.4-0.9-0.4c-0.2,0-0.4,0.1-0.6,0.2c-0.2,0.1-0.4,0.3-0.5,0.6c-0.1,0.2-0.3,0.3-0.5,0.2c-0.2-0.1-0.3-0.3-0.2-0.5
			l0,0c0.2-0.3,0.4-0.6,0.7-0.9C934.6,66.3,935,66.2,935.4,66.2z M944.8,66.2c0.4,0,0.7,0.1,1,0.3c0.3,0.2,0.6,0.5,0.7,0.9
			c0.1,0.2,0,0.4-0.2,0.5l0,0c-0.2,0.1-0.4,0-0.5-0.2c-0.1-0.2-0.3-0.4-0.5-0.6c-0.2-0.1-0.4-0.2-0.6-0.2c-0.3,0-0.7,0.2-0.9,0.4
			c-0.3,0.3-0.4,0.7-0.4,1.1c0,0.2-0.2,0.4-0.4,0.4c-0.2,0-0.4-0.2-0.4-0.4c0-0.6,0.2-1.1,0.6-1.6C943.8,66.4,944.3,66.2,944.8,66.2
			z M940.1,69.8L940.1,69.8c1.6,0,3.6,0.7,3.8,1.9c0.2,1.1-0.4,1.9-1.4,2.4c-1.4,0.5-1.9-0.2-2.2-0.6c-0.1-0.2-0.2-0.3-0.2-0.3h0
			c0,0-0.1,0.1-0.2,0.3c-0.2,0.4-0.7,1-1.7,0.8c-1.2-0.4-2.1-1.2-1.9-2.5C936.5,70.5,938.5,69.8,940.1,69.8z M940.1,70.4
			c-1,0-2.2,0.3-2.3,0.9c-0.2,1,1.3,1.5,2.3,1.5c1,0,2.5-0.5,2.3-1.5C942.3,70.7,941.1,70.4,940.1,70.4z M929.5,71.9
			c1.1,0.4,2.2,0.7,3.3,1c0.9,0.2,1.9,0.3,2.8,0.4c0,0.1,0.1,0.2,0.1,0.3c0.5,0.8,1.2,1.3,2.1,1.5c-0.5,0.2-0.8,0.5-0.9,1
			c0,0.2,0,0.4,0.1,0.6l0,0c-0.7-0.1-1.3-0.3-2-0.5c-2-0.7-3.7-1.8-5-3.5C929.8,72.4,929.6,72.2,929.5,71.9z M950.7,71.9
			c-0.1,0.2-0.3,0.4-0.4,0.5c-0.8,0.9-1.6,1.8-2.6,2.4c-1.4,0.9-2.9,1.5-4.6,1.8c0.1-0.2,0.1-0.4,0.1-0.6c-0.1-0.5-0.4-0.7-0.9-0.9
			c0.9-0.3,1.6-0.8,2.1-1.5c0-0.1,0.1-0.2,0.1-0.3c1-0.1,1.9-0.2,2.8-0.4C948.5,72.6,949.6,72.3,950.7,71.9z M940.1,75.6
			c1.3,0,2.5,0.2,2.2,0.7c-0.1,0.2-0.4,0.4-0.8,0.5c-0.5,0.1-1,0.1-1.5,0.1c-0.5,0-1-0.1-1.5-0.1c-0.4-0.1-0.7-0.3-0.8-0.6
			C937.6,75.8,938.9,75.6,940.1,75.6z M956.2,76.5c0.8,0,1.6,0.3,2.3,0.7c-0.8,0.2-1.4,0.8-1.7,1.6c-0.1,0.2-0.2,0.5-0.2,0.7
			c-0.4-0.2-0.9-0.3-1.3-0.4c0,0,0-0.1-0.1-0.1c-0.4-0.6-0.5-1.7,0-2.3c0,0,0.1-0.1,0.1-0.1c0.1,0,0.1-0.1,0.2-0.1
			C955.8,76.5,956,76.5,956.2,76.5z M954.4,76.7c-0.2,0.4-0.2,0.8-0.2,1.2c0,0.5,0.1,0.9,0.3,1.3c-0.4,0.1-0.8,0.2-1.2,0.5
			c0,0-0.1,0-0.1-0.1c-0.3-0.1-0.5-0.4-0.7-0.7c-0.2-0.3-0.4-0.9-0.2-1.2l0,0c0.2-0.2,0.5-0.3,0.7-0.5
			C953.5,77.1,953.9,76.9,954.4,76.7z M934.4,77.1c0.3,0.1,0.6,0.2,0.9,0.3c1.7,0.9,3.5,1.3,5.4,1.2c0.8-0.1,1.6-0.2,2.4-0.5
			c0.6-0.2,1.2-0.4,1.8-0.7c0.3-0.1,0.6-0.2,0.9-0.3c-0.8,1.1-2,1.9-3.3,2.3c1.2-0.2,2.4-0.5,3.4-1c0.5,1.3,0.9,3.1,0.6,5.5
			c-0.1,0.5-0.2,1.1-0.3,1.6c-1.2-0.7-2.9-0.1-4.2,0.6c-0.2-2.4-0.7-4.1-0.9-4.7c-0.2-0.6-0.9-0.5-0.9,0.1c0.1,0.3,0.2,0.6,0.2,0.9
			c0.1,0.5,0.2,1,0.2,1.4c0.1,0.8,0.2,1.6,0.3,2.4c0,0.2,0,0.4,0,0.5c-0.8,0.1-1.5,0.1-2.3,0c0-0.2,0-0.4,0-0.5c0-0.3,0.1-0.7,0.1-1
			c0.1-0.5,0.1-1,0.2-1.5c0.1-0.5,0.1-1,0.2-1.5c0-0.2,0.1-0.4,0.1-0.7c0-0.5-0.3-0.6-0.5-0.5c-0.2,0-0.3,0.2-0.4,0.4
			c-0.5,1.5-0.7,3-0.9,4.6c-1.4-0.9-2.6-1.2-4.2-0.5c-0.1-0.6-0.2-1.1-0.3-1.7c-0.3-2.6,0.1-4.5,0.7-5.8c1,0.7,2.2,1.1,3.5,1.3
			C936.2,78.9,935.1,78.1,934.4,77.1z M959.2,77.9c0.2,0,0.3,0.1,0.4,0.2c0,0,0,0,0,0c0.8,0.8,1.4,1.8,1.5,2.8
			c0.1,1.2-1.8,2.1-2.6,1.3c-0.5-0.5-0.4-1.3-1.2-2.1c0,0,0-0.1,0-0.1C957.4,78.9,958.2,77.8,959.2,77.9z M951.6,78.4
			c0.1,0.3,0.2,0.6,0.3,0.9c0.2,0.3,0.4,0.6,0.8,0.8c-0.1,0.1-0.2,0.1-0.2,0.2c-0.3,0.3-0.5,0.5-0.7,0.8c-0.1,0-0.1,0-0.2,0
			c-0.3,0-0.6-0.1-0.8-0.3c-0.2-0.2-0.6-0.6-0.6-0.9C950.6,79.4,951,78.9,951.6,78.4z M949.6,80.7c0.2,0.3,0.4,0.6,0.7,0.8
			c0.3,0.2,0.6,0.4,0.9,0.4c-0.5,0.7-1,1.5-1.4,2.3c-0.3-0.5-0.6-0.9-1-1.2c-0.1-0.1-0.2-0.2-0.4-0.3
			C948.7,82,949.1,81.3,949.6,80.7z M947.6,83.4c1,0.5,1.6,1.5,1.7,2.7c-0.8,0.2-1.7,0.7-2.4,1c0.3-1,0.5-2.1,0.6-3.1
			C947.6,83.8,947.6,83.6,947.6,83.4z M932.2,83.4c0,0.2,0,0.4,0.1,0.6c0.1,1,0.3,2.1,0.6,3.1c-0.7-0.4-1.6-0.8-2.4-1
			C930.6,84.9,931.2,83.8,932.2,83.4L932.2,83.4z M935.3,86.2c0.9,0,1.7,0.5,2.4,1c0,2.5,0.5,4.8,0.9,5.2c0.3,0.4,0.2,1.3,0.2,1.3
			s-4.3,0.1-4.8,0c-0.4-0.1-0.9-1.4-0.2-2.1c0.3-0.3,0.8-0.4,1.2-0.4c0.8,0.2,1.4,0.7,2,1.4c-0.1-1.3-0.8-1.6-1.3-1.9
			c-0.2-0.1-0.2-0.1-0.3-0.3c-0.6-1.2-1.1-2.5-1.5-3.8C934.3,86.3,934.8,86.1,935.3,86.2z M944.4,86.2c0.5,0,1.1,0.1,1.5,0.4
			c-0.3,1.3-0.8,2.6-1.5,3.8c-0.1,0.1-0.2,0.2-0.3,0.3c-0.5,0.3-1.2,0.6-1.3,1.9c0.6-0.7,1.1-1.3,2-1.4c0.4,0,0.9,0.1,1.2,0.4
			c0.7,0.7,0.2,2-0.2,2.1c-0.4,0.1-4.8,0-4.8,0s-0.2-0.8,0.2-1.3c0.3-0.5,0.9-2.8,0.9-5.2C942.7,86.6,943.6,86.2,944.4,86.2z
			 M930,86.8c0.8,0.2,2.1,0.8,3.2,1.4c0.2,0.7,0.5,1.4,0.8,2.1c-0.4,0.1-0.7,0.3-1,0.6c-0.4,0.4-0.6,0.9-0.6,1.5h-4
			c-0.4-0.3,0-3.4,4-1.6C931.4,90.1,930,89.2,930,86.8z M949.7,86.8c0,2.3-1.4,3.3-2.3,4c3.9-1.8,4.4,1.3,4,1.6h-4.1
			c0-1-0.7-1.8-1.7-2.1c0.3-0.7,0.6-1.3,0.8-2C947.6,87.6,949,87,949.7,86.8z M941.1,87.5c0,1-0.1,1.9-0.3,2.9
			c-0.1,0.3-0.2,1.1-0.4,1.4c0,0.1-0.1,0.1-0.1,0.2c-0.3,0-0.5,0-0.7,0c0-0.1-0.1-0.2-0.2-0.3c-0.1-0.1-0.1-0.3-0.2-0.5
			c-0.1-0.4-0.2-0.9-0.3-1.3c-0.1-0.8-0.2-1.7-0.2-2.5C939.5,87.6,940.3,87.6,941.1,87.5z"/>
	</g>
</g>
<path class="st31" d="M166.9,180.2l53.6,35.4h-10.7v53.9h-16.9v-40.3H141v40.3h-16.9v-53.9h-10.7L166.9,180.2z M151.3,237.2h31.3
	v10.5h-31.3V237.2z M151.3,259h31.3v10.5h-31.3V259z"/>
<g>
	<rect x="19.2" y="310.1" class="st1" width="1100" height="170"/>
</g>
<rect x="236.5" y="330.3" class="st0" width="280" height="59.8"/>
<rect x="39.5" y="329.8" class="st0" width="180" height="130.1"/>
<rect x="526.5" y="330.1" class="st0" width="280" height="59.8"/>
<rect x="816.5" y="330.1" class="st0" width="280" height="59.8"/>
<rect x="236.5" y="400.1" class="st0" width="280" height="59.9"/>
<rect x="526.5" y="400.1" class="st0" width="280" height="59.9"/>
<rect x="816.5" y="400.1" class="st0" width="280" height="59.9"/>
<g>
	<g id="XMLID_1_" class="st13">
		<text transform="matrix(1 0 0 1 622.4373 365.9657)" class="st3 st6">云梯低代码</text>
	</g>
	<g>
		<g id="XMLID_32_">
			<line id="XMLID_10_" class="st32" x1="583.2" y1="376" x2="583.2" y2="376"/>
			<path id="XMLID_136_" class="st32" d="M602.9,353.5c-0.9-5.4-5.6-9.5-11.2-9.5c-5.6,0-10.3,4.1-11.2,9.5
				c-5.4,0.8-9.6,5.5-9.6,11.2c0,5.9,4.6,10.8,10.4,11.3l0.5-3.8c-4-0.2-7.1-3.5-7.1-7.5c0-4.1,3.4-7.5,7.5-7.5h1.9l0-1.9
				c0-4.1,3.4-7.5,7.5-7.5c4.1,0,7.5,3.4,7.5,7.5l0,1.9h1.9c4.1,0,7.5,3.4,7.5,7.5c0,4-3.2,7.3-7.1,7.5l0.5,3.8
				c5.8-0.5,10.4-5.4,10.4-11.3C612.4,359.1,608.3,354.4,602.9,353.5z"/>
		</g>
		<g id="XMLID_6_">
			<path id="XMLID_36_" class="st33" d="M596.4,376h3.8l-2.4-17.9h-3.3l0.4,3.8h-6.5l0.4-3.8h-3.3l-2.4,17.9h3.8l0.4-3.8h8.6
				L596.4,376z M587.8,368.5l0.4-3.8h7.1l0.4,3.8H587.8z"/>
		</g>
	</g>
	<g id="XMLID_53_" class="st13">
		<text transform="matrix(1 0 0 1 622.4375 435.9656)"><tspan x="0" y="0" class="st3 st6">AP</tspan><tspan x="26" y="0" class="st3 st6 st34">I</tspan><tspan x="32.3" y="0" class="st3 st6">网</tspan><tspan x="52.3" y="0" class="st3 st6 st35">关</tspan><tspan x="70.7" y="0" class="st3 st6"> TAMP </tspan></text>
	</g>
	<g>
		<path id="XMLID_169_" class="st36" d="M587.3,413.8l-16.7,32.5h6.6l16.6-32.4l-0.1-0.1H587.3z"/>
		<path id="XMLID_168_" class="st32" d="M593.9,413.8l16.7,32.5H604l-16.6-32.4l0.1-0.1H593.9z"/>
		<path id="XMLID_166_" class="st37" d="M590.6,427.1l-9.9,19.2h9.9V427.1z"/>
		<path id="XMLID_165_" class="st33" d="M590.6,427.1l9.9,19.2h-9.9V427.1z"/>
	</g>
</g>
<g>
	<g id="XMLID_44_" class="st13">
		<text transform="matrix(1 0 0 1 326.226 366.1295)" class="st3 st6">服务网格 TDSF</text>
	</g>
	<g>
		<polygon id="XMLID_300_" class="st38" points="297.3,346.4 297.3,340.2 282.5,348.9 287.8,352 		"/>
		<polygon id="XMLID_301_" class="st32" points="309.8,352.3 315.1,349.2 299.9,340.3 299.9,346.5 		"/>
		<polygon id="XMLID_302_" class="st39" points="310.9,354.6 310.9,365.4 316.2,368.5 316.2,351.6 		"/>
		<polygon id="XMLID_303_" class="st40" points="310,367.9 299.9,373.8 299.9,380.1 315.4,371 		"/>
		<polygon id="XMLID_304_" class="st41" points="287.6,368.1 282.2,371.3 297.3,380.2 297.3,373.9 		"/>
		<polygon id="XMLID_305_" class="st42" points="286.3,354.1 281,351.1 281,368.9 286.3,365.9 		"/>
		<g id="XMLID_306_" class="st43">
			<g>
				<polygon id="XMLID_67_" class="st33" points="297.3,355.8 297.3,349.5 290.4,353.5 295.8,356.7 				"/>
			</g>
		</g>
		<g id="XMLID_308_" class="st44">
			<g>
				<polygon id="XMLID_65_" class="st33" points="294.2,358.7 288.9,355.6 288.9,364.4 294.2,361.3 				"/>
			</g>
		</g>
		<g id="XMLID_310_" class="st13">
			<g>
				<polygon id="XMLID_63_" class="st33" points="295.5,363.5 290.1,366.6 297.3,370.9 297.3,364.6 				"/>
			</g>
		</g>
		<g id="XMLID_312_" class="st2">
			<g>
				<polygon id="XMLID_60_" class="st33" points="302.1,363.3 299.9,364.6 299.9,370.8 307.5,366.4 				"/>
			</g>
		</g>
		<g id="XMLID_314_" class="st45">
			<g>
				<polygon id="XMLID_57_" class="st33" points="303,359.2 303,360.8 308.3,363.9 308.3,356.1 				"/>
			</g>
		</g>
		<g id="XMLID_316_">
			<g>
				<polygon id="XMLID_56_" class="st33" points="301.8,356.9 307.2,353.8 299.9,349.5 299.9,355.8 				"/>
			</g>
		</g>
	</g>
	<g id="XMLID_62_" class="st13">
		<text transform="matrix(1 0 0 1 326.2261 435.9785)" class="st3 st6">微服务框架 TMF</text>
	</g>
	<g>
		<polygon id="XMLID_734_" class="st33" points="298.6,436 301.2,434.5 308.6,430.2 308.6,439.8 298.6,445.6 		"/>
		<polygon id="XMLID_732_" class="st32" points="288.6,430 291.5,431.7 298.6,436 298.6,445.4 288.6,439.7 288.6,430 		"/>
		<polygon id="XMLID_729_" class="st46" points="308.6,420.4 311.2,418.9 318.6,414.7 318.6,424.3 308.6,430 		"/>
		<polygon id="XMLID_728_" class="st40" points="298.6,414.7 301.5,416.3 308.6,420.6 308.6,430.1 298.6,424.3 298.6,414.7 		"/>
		<polygon id="XMLID_725_" class="st46" points="288.6,420.4 291.2,418.9 298.6,414.6 298.6,424.2 288.6,430 		"/>
		<polygon id="XMLID_721_" class="st40" points="278.6,414.5 281.5,416.1 288.6,420.4 288.6,429.9 278.6,424.1 278.6,414.5 		"/>
	</g>
</g>
<g>
	<g id="XMLID_80_" class="st13">
		<text transform="matrix(1 0 0 1 889.3911 371.3781)" class="st3 st6">应用性能监控 TAPM</text>
	</g>
	<g>
		<rect id="XMLID_86_" x="841.7" y="362.1" class="st42" width="5" height="18.6"/>
		<rect id="XMLID_92_" x="851.6" y="357.1" class="st32" width="5" height="23.6"/>
		<rect id="XMLID_95_" x="861.5" y="362.1" class="st42" width="5" height="18.6"/>
		<rect id="XMLID_93_" x="871.4" y="357.1" class="st32" width="5" height="23.6"/>
		<circle id="XMLID_114_" class="st46" cx="864" cy="354" r="3.1"/>
		<circle id="XMLID_115_" class="st33" cx="873.9" cy="349" r="3.1"/>
		<circle id="XMLID_108_" class="st46" cx="844.1" cy="354" r="3.1"/>
		<circle id="XMLID_106_" class="st33" cx="854.1" cy="349" r="3.1"/>
		<g id="XMLID_121_">
			<g>
				<path id="XMLID_42_" class="st33" d="M851,349.3l-4.8,2.4c0.6,0.5,0.9,1.2,1,2l4.8-2.4C851.4,350.8,851.1,350.1,851,349.3z"/>
			</g>
		</g>
		<g id="XMLID_463_">
			<g>
				<path id="XMLID_40_" class="st33" d="M857.1,349.3l4.8,2.4c-0.6,0.5-0.9,1.2-1,2l-4.8-2.4C856.7,350.8,857,350.1,857.1,349.3z"
					/>
			</g>
		</g>
		<g id="XMLID_457_">
			<g>
				<path id="XMLID_35_" class="st33" d="M870.9,349.3l-4.8,2.4c0.6,0.5,0.9,1.2,1,2l4.8-2.4C871.3,350.8,870.9,350.1,870.9,349.3z"
					/>
			</g>
		</g>
	</g>
</g>
<g>
	<g id="XMLID_150_">
		<text transform="matrix(1 0 0 1 56.5401 386.8345)" class="st32 st12 st4">官方仓库</text>
	</g>
	<g id="XMLID_201_" class="st13">
		<text transform="matrix(1 0 0 1 56.5401 419.6247)" class="st14 st15">提供开源组件</text>
	</g>
</g>
<path class="st47" d="M165.9,369.8l53.6,35.4h-10.7v53.9h-16.9v-40.3H140v40.3h-16.9v-53.9h-10.7L165.9,369.8z M150.3,426.8h31.3
	v10.5h-31.3V426.8z M150.3,448.6h31.3v10.5h-31.3V448.6z"/>
<g id="XMLID_7_" class="st13">
	<text transform="matrix(1 0 0 1 894.9186 243.1057)" class="st3 st6">更多</text>
</g>
<g id="XMLID_209_" class="st13">
	<text transform="matrix(1 0 0 1 944.725 238.2143)" class="st3 st4">...</text>
</g>
<g>
	<g id="XMLID_58_" class="st13">
		<text transform="matrix(1 0 0 1 922.1334 440.1444)" class="st3 st6">更多</text>
	</g>
	<g id="XMLID_17_" class="st13">
		<text transform="matrix(1 0 0 1 971.9398 435.2531)" class="st3 st4">...</text>
	</g>
</g>
<g>
	<g id="XMLID_5_" class="st13">
		<text transform="matrix(1 0 0 1 917.3081 162.1279)" class="st3 st6">自定义</text>
	</g>
	<path class="st44" d="M902.5,153.4h-1.7v-4.6c0-1.3-1-2.3-2.3-2.3h-4.6v-1.7c0-1.6-1.3-2.9-2.9-2.9s-2.9,1.3-2.9,2.9v1.7h-4.6
		c-1.3,0-2.3,1-2.3,2.3v4.4h1.7c1.7,0,3.1,1.4,3.1,3.1c0,1.7-1.4,3.1-3.1,3.1h-1.7v4.4c0,1.3,1,2.3,2.3,2.3h4.4v-1.7
		c0-1.7,1.4-3.1,3.1-3.1s3.1,1.4,3.1,3.1v1.7h4.4c1.3,0,2.3-1,2.3-2.3v-4.6h1.7c1.6,0,2.9-1.3,2.9-2.9
		C905.3,154.7,904.1,153.4,902.5,153.4z"/>
</g>
<g class="st2">
	<text transform="matrix(1 0 0 1 550.8596 610.2434)" class="st3 st4">kubernetes</text>
</g>
<path class="st32" d="M516.8,604L516.8,604l-1.7,4c-1.6-1-2.8-2.5-3.5-4.3l4.3-0.7l0,0c0.4-0.1,0.8,0.2,0.9,0.6
	C516.9,603.7,516.8,603.9,516.8,604L516.8,604z M515.4,600.5c0.4-0.1,0.6-0.5,0.5-0.9c0-0.1-0.1-0.3-0.2-0.4l0,0l-3.3-2.9
	c-1,1.6-1.4,3.5-1.2,5.4L515.4,600.5L515.4,600.5z M517.3,597.2c0.3,0.2,0.8,0.2,1-0.2c0.1-0.1,0.1-0.3,0.1-0.4l0,0l0.3-4.4
	c-1.9,0.2-3.7,1.1-5,2.4L517.3,597.2L517.3,597.2L517.3,597.2z M518.6,601.8l1.2,0.6l1.2-0.6l0.3-1.3l-0.8-1h-1.3l-0.8,1
	L518.6,601.8L518.6,601.8z M521.1,596.6c0,0.4,0.4,0.7,0.8,0.7c0.1,0,0.3-0.1,0.4-0.1l0,0l3.6-2.5c-1.4-1.3-3.1-2.2-5-2.4
	L521.1,596.6L521.1,596.6z M539.2,606.6l-9.6,12c-0.5,0.6-1.3,1-2.1,1l-15.4,0c-0.8,0-1.6-0.4-2.1-1l-9.6-12
	c-0.5-0.6-0.7-1.4-0.5-2.2l3.4-14.9c0.2-0.8,0.7-1.4,1.4-1.8l13.9-6.6c0.7-0.3,1.6-0.3,2.3,0l13.9,6.6c0.7,0.3,1.3,1,1.4,1.8
	l3.4,14.9C539.9,605.1,539.7,605.9,539.2,606.6z M533.7,603.1c-0.1,0-0.2,0-0.2-0.1c-0.3-0.1-0.5,0-0.8-0.1
	c-0.6-0.1-1.1-0.1-1.5-0.2c-0.2-0.1-0.3-0.3-0.4-0.4l-0.3-0.1c0.2-1.3,0.1-2.6-0.2-3.9c-0.3-1.3-0.8-2.5-1.6-3.6
	c0.1-0.1,0.3-0.2,0.3-0.3c0-0.2,0-0.3,0.2-0.5c0.3-0.3,0.7-0.6,1.2-0.9c0.2-0.1,0.5-0.2,0.7-0.4c0.1,0,0.1-0.1,0.2-0.1
	c0.4-0.3,0.5-0.9,0.2-1.2c-0.3-0.4-0.8-0.4-1.2-0.1c-0.1,0-0.1,0.1-0.2,0.1c-0.2,0.2-0.4,0.4-0.5,0.6c-0.4,0.4-0.8,0.8-1.1,1
	c-0.2,0.1-0.4,0.1-0.5,0.1l-0.3,0.2c-1.8-1.9-4.3-3.1-6.9-3.3l0-0.4c-0.1-0.1-0.2-0.2-0.3-0.4c0-0.4,0-0.9,0.1-1.5
	c0-0.3,0.1-0.5,0.1-0.8c0-0.1,0-0.2,0-0.2c0-0.5-0.4-0.9-0.8-0.9c-0.5,0-0.8,0.4-0.8,0.9l0,0c0,0.1,0,0.2,0,0.2
	c0,0.3,0.1,0.5,0.1,0.8c0.1,0.6,0.1,1.1,0.1,1.5c0,0.2-0.1,0.3-0.3,0.4l0,0.4c-2.6,0.2-5.1,1.4-6.9,3.3c-0.1-0.1-0.2-0.1-0.3-0.2
	c-0.2,0-0.3,0.1-0.5,0c-0.4-0.3-0.7-0.6-1.1-1c-0.2-0.2-0.3-0.4-0.5-0.6c-0.1-0.1-0.1-0.1-0.2-0.1c-0.2-0.1-0.4-0.2-0.6-0.2
	c-0.3,0-0.5,0.1-0.7,0.3c-0.3,0.4-0.2,0.9,0.2,1.2l0,0l0.2,0.1c0.2,0.2,0.5,0.3,0.7,0.4c0.5,0.3,0.9,0.6,1.2,0.9
	c0.1,0.1,0.1,0.4,0.2,0.5l0.3,0.2c-1.5,2.2-2.1,4.9-1.7,7.5l-0.3,0.1c-0.1,0.1-0.2,0.3-0.4,0.4c-0.4,0.1-0.9,0.2-1.5,0.2
	c-0.3,0-0.5,0-0.8,0.1c-0.1,0-0.1,0-0.2,0.1l0,0l0,0c-0.5,0.1-0.8,0.6-0.7,1c0.1,0.4,0.6,0.7,1.1,0.6l0,0l0,0l0.2,0
	c0.3-0.1,0.5-0.2,0.7-0.3c0.6-0.2,1-0.4,1.5-0.4c0.2,0,0.4,0.1,0.5,0.2l0.4-0.1c0.8,2.5,2.5,4.6,4.8,6l-0.1,0.4
	c0.1,0.1,0.1,0.3,0.1,0.5c-0.2,0.4-0.4,0.9-0.8,1.4c-0.2,0.2-0.3,0.4-0.4,0.7c0,0.1-0.1,0.2-0.1,0.2c-0.2,0.5-0.1,1,0.4,1.2
	c0.4,0.2,0.9,0,1.2-0.5v0c0-0.1,0.1-0.2,0.1-0.2c0.1-0.3,0.2-0.5,0.2-0.8c0.2-0.6,0.3-1.1,0.6-1.5c0.1-0.1,0.2-0.1,0.4-0.2l0.2-0.3
	c2.5,1,5.2,1,7.7,0l0.2,0.3c0.1,0,0.3,0.1,0.4,0.3c0.2,0.4,0.4,0.8,0.6,1.4c0.1,0.3,0.1,0.5,0.2,0.8c0,0.1,0.1,0.2,0.1,0.2
	c0.2,0.5,0.7,0.7,1.2,0.5c0.4-0.2,0.6-0.7,0.4-1.2c0-0.1-0.1-0.2-0.1-0.2c-0.1-0.3-0.3-0.4-0.4-0.7c-0.3-0.5-0.6-0.9-0.7-1.3
	c-0.1-0.2,0-0.4,0.1-0.5c0,0-0.1-0.2-0.1-0.3c2.3-1.4,4-3.5,4.8-6c0.1,0,0.3,0,0.4,0.1c0.1-0.1,0.2-0.2,0.5-0.2
	c0.4,0.1,0.9,0.2,1.5,0.4c0.3,0.1,0.5,0.2,0.7,0.3c0.1,0,0.1,0,0.2,0l0,0l0,0c0.5,0.1,1-0.2,1.1-0.6
	C534.5,603.7,534.2,603.2,533.7,603.1z M527.1,596.3l-3.3,2.9v0c-0.3,0.3-0.3,0.7-0.1,1c0.1,0.1,0.2,0.2,0.4,0.2l0,0l4.2,1.2
	c0.1-0.9,0-1.9-0.2-2.8C528,598,527.6,597.1,527.1,596.3L527.1,596.3z M520.4,605.2c-0.1-0.2-0.4-0.4-0.7-0.4
	c-0.3,0-0.5,0.2-0.6,0.4h0L517,609c1.8,0.6,3.7,0.6,5.5,0L520.4,605.2L520.4,605.2z M523.6,603c-0.2,0-0.3,0-0.5,0.1
	c-0.4,0.2-0.5,0.6-0.4,1l0,0l1.7,4.1c1.6-1,2.8-2.6,3.5-4.4L523.6,603L523.6,603z"/>
</svg>
