<?xml version="1.0" encoding="utf-8"?>
<!-- Generator: Adobe Illustrator 19.0.0, SVG Export Plug-In . SVG Version: 6.00 Build 0)  -->
<svg version="1.1" id="图层_1" xmlns="http://www.w3.org/2000/svg" xmlns:xlink="http://www.w3.org/1999/xlink" x="0px" y="0px"
	 viewBox="0 0 94 30" style="enable-background:new 0 0 94 30;" xml:space="preserve">
<style type="text/css">
	.st0{fill:#4461EB;}
	.st1{clip-path:url(#XMLID_90_);fill:url(#XMLID_91_);}
	.st2{fill:#FFFFFF;}
	.st3{clip-path:url(#XMLID_92_);fill:url(#XMLID_93_);}
	.st4{clip-path:url(#XMLID_94_);fill:url(#XMLID_95_);}
	.st5{clip-path:url(#XMLID_96_);fill:url(#XMLID_97_);}
	.st6{clip-path:url(#XMLID_98_);fill:url(#XMLID_99_);}
	.st7{clip-path:url(#XMLID_100_);fill:url(#XMLID_101_);}
	.st8{clip-path:url(#XMLID_102_);fill:url(#XMLID_103_);}
	.st9{clip-path:url(#XMLID_104_);fill:url(#XMLID_105_);}
	.st10{clip-path:url(#XMLID_106_);fill:url(#XMLID_107_);}
	.st11{fill:#283756;}
</style>
<g id="XMLID_1_">
	<path id="XMLID_35_" class="st0" d="M26.9,20.8V9.2c0-1.2-0.6-2.3-1.7-2.9L15.1,0.4c-1-0.6-2.3-0.6-3.3,0L1.7,6.3
		C0.6,6.9,0,8,0,9.2v11.7c0,1.2,0.6,2.3,1.7,2.9l10.1,5.8c1,0.6,2.3,0.6,3.3,0l10.1-5.8C26.2,23.1,26.9,22,26.9,20.8"/>
	<g id="XMLID_82_">
		<defs>
			<path id="XMLID_33_" d="M6.4,19.9l13,7.2l5.8-3.4c1-0.6,1.7-1.7,1.7-2.9v-8.8l-6.5-4.2L6.4,19.9z"/>
		</defs>
		<clipPath id="XMLID_90_">
			<use xlink:href="#XMLID_33_"  style="overflow:visible;"/>
		</clipPath>
		
			<linearGradient id="XMLID_91_" gradientUnits="userSpaceOnUse" x1="4.6983" y1="441.294" x2="4.9973" y2="441.294" gradientTransform="matrix(-38.5469 -18.0126 -18.0126 38.5469 8152.9644 -16905.457)">
			<stop  offset="0" style="stop-color:#4461EB"/>
			<stop  offset="0.5967" style="stop-color:#222DC3"/>
			<stop  offset="0.9985" style="stop-color:#0908A6"/>
			<stop  offset="1" style="stop-color:#0908A6"/>
		</linearGradient>
		<polygon id="XMLID_34_" class="st1" points="23.2,34.9 -1,23.6 10.1,0 34.2,11.3 		"/>
	</g>
	<polygon id="XMLID_32_" class="st2" points="13.5,7.9 10,5.8 6.5,7.9 9.9,9.9 	"/>
	<g id="XMLID_76_">
		<defs>
			<path id="XMLID_77_" d="M6.4,19.9L6.4,19.9C6.4,19.9,6.4,19.9,6.4,19.9 M6.4,19.9l3.7,2.1L9.9,9.9l-3.4-2
				C6.5,7.9,6.4,19.9,6.4,19.9"/>
		</defs>
		<clipPath id="XMLID_92_">
			<use xlink:href="#XMLID_77_"  style="overflow:visible;"/>
		</clipPath>
		
			<linearGradient id="XMLID_93_" gradientUnits="userSpaceOnUse" x1="5.645" y1="432.6573" x2="5.944" y2="432.6573" gradientTransform="matrix(0 48.9282 48.9282 0 -21160.8945 -266.5764)">
			<stop  offset="0" style="stop-color:#D4E4FF"/>
			<stop  offset="1" style="stop-color:#4478FF"/>
		</linearGradient>
		<rect id="XMLID_31_" x="6.4" y="7.9" class="st3" width="3.7" height="14.1"/>
	</g>
	<g id="XMLID_73_">
		<defs>
			<polygon id="XMLID_27_" points="9.9,9.9 10.1,22 13.5,19.9 13.5,7.9 			"/>
		</defs>
		<clipPath id="XMLID_94_">
			<use xlink:href="#XMLID_27_"  style="overflow:visible;"/>
		</clipPath>
		
			<linearGradient id="XMLID_95_" gradientUnits="userSpaceOnUse" x1="-12.1035" y1="422.0334" x2="-11.8045" y2="422.0334" gradientTransform="matrix(11.8752 0 0 -11.8752 153.6396 5026.6694)">
			<stop  offset="0" style="stop-color:#4461EB"/>
			<stop  offset="0.9996" style="stop-color:#4424EB"/>
			<stop  offset="1" style="stop-color:#4424EB"/>
		</linearGradient>
		<rect id="XMLID_28_" x="9.9" y="7.9" class="st4" width="3.6" height="14.1"/>
	</g>
	<polygon id="XMLID_26_" class="st2" points="17,5.7 13.5,7.9 16.9,9.9 20.5,7.8 	"/>
	<g id="XMLID_69_">
		<defs>
			<path id="XMLID_24_" d="M16.9,9.9c0,0-0.1,3.9,0,3.9l3.6-2v-4L16.9,9.9z"/>
		</defs>
		<clipPath id="XMLID_96_">
			<use xlink:href="#XMLID_24_"  style="overflow:visible;"/>
		</clipPath>
		
			<linearGradient id="XMLID_97_" gradientUnits="userSpaceOnUse" x1="10.7276" y1="426.9297" x2="11.0267" y2="426.9297" gradientTransform="matrix(0 20.7205 20.7205 0 -8827.5723 -213.7257)">
			<stop  offset="0" style="stop-color:#4461EB"/>
			<stop  offset="0.9996" style="stop-color:#4424EB"/>
			<stop  offset="1" style="stop-color:#4424EB"/>
		</linearGradient>
		<rect id="XMLID_25_" x="16.8" y="7.8" class="st5" width="3.6" height="6"/>
	</g>
	<g id="XMLID_66_">
		<defs>
			<polygon id="XMLID_22_" points="13.5,12 16.9,13.8 16.9,9.9 13.5,7.9 			"/>
		</defs>
		<clipPath id="XMLID_98_">
			<use xlink:href="#XMLID_22_"  style="overflow:visible;"/>
		</clipPath>
		
			<linearGradient id="XMLID_99_" gradientUnits="userSpaceOnUse" x1="10.7966" y1="427.2471" x2="11.0956" y2="427.2471" gradientTransform="matrix(0 20.5463 20.5463 0 -8763.1885 -213.2302)">
			<stop  offset="0" style="stop-color:#D4E4FF"/>
			<stop  offset="1" style="stop-color:#4478FF"/>
		</linearGradient>
		<rect id="XMLID_23_" x="13.5" y="7.9" class="st6" width="3.4" height="5.9"/>
	</g>
	<polygon id="XMLID_21_" class="st2" points="13.4,12 9.9,13.9 13.3,15.9 16.9,13.8 	"/>
	<g id="XMLID_62_">
		<defs>
			<path id="XMLID_19_" d="M13.3,15.9c0,0-0.1,3.9-0.1,3.9l3.6-2.2l0-3.8L13.3,15.9z"/>
		</defs>
		<clipPath id="XMLID_100_">
			<use xlink:href="#XMLID_19_"  style="overflow:visible;"/>
		</clipPath>
		
			<linearGradient id="XMLID_101_" gradientUnits="userSpaceOnUse" x1="9.9712" y1="427.4241" x2="10.2702" y2="427.4241" gradientTransform="matrix(0 20.9381 20.9381 0 -8934.4219 -194.2744)">
			<stop  offset="0" style="stop-color:#4461EB"/>
			<stop  offset="0.9996" style="stop-color:#4424EB"/>
			<stop  offset="1" style="stop-color:#4424EB"/>
		</linearGradient>
		<rect id="XMLID_20_" x="13.2" y="13.8" class="st7" width="3.7" height="6"/>
	</g>
	<g id="XMLID_59_">
		<defs>
			<polygon id="XMLID_17_" points="9.9,18 13.3,19.8 13.3,15.9 9.9,13.9 			"/>
		</defs>
		<clipPath id="XMLID_102_">
			<use xlink:href="#XMLID_17_"  style="overflow:visible;"/>
		</clipPath>
		
			<linearGradient id="XMLID_103_" gradientUnits="userSpaceOnUse" x1="10.1119" y1="427.658" x2="10.4109" y2="427.658" gradientTransform="matrix(0 20.5463 20.5463 0 -8775.2305 -193.1595)">
			<stop  offset="0" style="stop-color:#D4E4FF"/>
			<stop  offset="1" style="stop-color:#4478FF"/>
		</linearGradient>
		<rect id="XMLID_18_" x="9.9" y="13.9" class="st8" width="3.4" height="5.9"/>
	</g>
	<polygon id="XMLID_16_" class="st2" points="16.8,17.6 13.3,19.8 16.7,21.8 20.2,19.7 	"/>
	<g id="XMLID_55_">
		<defs>
			<polygon id="XMLID_14_" points="13.3,23.7 16.7,25.6 16.7,21.8 13.3,19.8 			"/>
		</defs>
		<clipPath id="XMLID_104_">
			<use xlink:href="#XMLID_14_"  style="overflow:visible;"/>
		</clipPath>
		
			<linearGradient id="XMLID_105_" gradientUnits="userSpaceOnUse" x1="9.6004" y1="427.0854" x2="9.8995" y2="427.0854" gradientTransform="matrix(0 20.1226 20.1226 0 -8579.0801 -172.7262)">
			<stop  offset="0" style="stop-color:#D4E4FF"/>
			<stop  offset="1" style="stop-color:#4478FF"/>
		</linearGradient>
		<rect id="XMLID_15_" x="13.3" y="19.8" class="st9" width="3.4" height="5.8"/>
	</g>
	<g id="XMLID_52_">
		<defs>
			<polygon id="XMLID_12_" points="16.7,21.8 16.7,25.6 20.1,23.4 20.2,19.7 			"/>
		</defs>
		<clipPath id="XMLID_106_">
			<use xlink:href="#XMLID_12_"  style="overflow:visible;"/>
		</clipPath>
		
			<linearGradient id="XMLID_107_" gradientUnits="userSpaceOnUse" x1="13.8209" y1="422.8192" x2="14.1199" y2="422.8192" gradientTransform="matrix(-0.6004 13.6896 13.6896 0.6004 -5761.335 -423.0187)">
			<stop  offset="0" style="stop-color:#4461EB"/>
			<stop  offset="0.9996" style="stop-color:#4424EB"/>
			<stop  offset="1" style="stop-color:#4424EB"/>
		</linearGradient>
		<polygon id="XMLID_13_" class="st10" points="20.5,19.7 20.2,25.7 16.5,25.5 16.7,19.6 		"/>
	</g>
	<polygon id="XMLID_11_" class="st11" points="33.3,13.1 39.3,7 42.3,7 35.5,13.9 42.4,22.2 39.3,22.2 33.8,15.5 33.3,15.9 
		33.3,22.2 31.1,22.2 31.1,7 33.3,7 	"/>
	<path id="XMLID_10_" class="st11" d="M44.5,12.6v5.5c0,1.6,0.6,2.4,1.9,2.4c1.3,0,1.9-0.8,1.9-2.4v-5.5h2.2v5.5
		c0,0.8-0.1,1.4-0.3,2c-0.2,0.5-0.5,0.9-1,1.3c-0.7,0.6-1.7,1-2.9,1c-1.1,0-2.1-0.3-2.8-1c-0.5-0.4-0.8-0.8-1-1.3
		c-0.2-0.4-0.3-1.1-0.3-2v-5.5H44.5z"/>
	<path id="XMLID_47_" class="st11" d="M54.2,5.6v8.1c0.9-0.9,1.9-1.4,3-1.4c1.3,0,2.4,0.5,3.2,1.4c0.9,1,1.3,2.1,1.3,3.6
		c0,1.5-0.4,2.7-1.3,3.7c-0.9,1-1.9,1.4-3.3,1.4c-1.1,0-2.1-0.4-3-1.3v1H52V5.6H54.2z M59.5,17.5c0-0.9-0.2-1.7-0.7-2.2
		c-0.5-0.6-1.1-0.9-1.9-0.9c-0.8,0-1.5,0.3-2,0.9c-0.5,0.6-0.8,1.3-0.8,2.2c0,0.9,0.2,1.7,0.7,2.2c0.5,0.6,1.2,0.9,2,0.9
		c0.8,0,1.4-0.3,1.9-0.9C59.2,19.1,59.5,18.4,59.5,17.5"/>
	<path id="XMLID_44_" class="st11" d="M75.4,5.6v8.1c0.9-0.9,1.9-1.4,3-1.4c1.3,0,2.4,0.5,3.2,1.4c0.9,1,1.3,2.1,1.3,3.6
		c0,1.5-0.4,2.7-1.3,3.7c-0.9,1-1.9,1.4-3.3,1.4c-1.1,0-2.1-0.4-3-1.3v1h-2.2V5.6H75.4z M80.6,17.5c0-0.9-0.2-1.7-0.7-2.2
		c-0.5-0.6-1.1-0.9-1.9-0.9c-0.8,0-1.5,0.3-2,0.9c-0.5,0.6-0.8,1.3-0.8,2.2c0,0.9,0.2,1.7,0.7,2.2c0.5,0.6,1.2,0.9,2,0.9
		c0.8,0,1.4-0.3,1.9-0.9C80.4,19.1,80.6,18.4,80.6,17.5"/>
	<path id="XMLID_41_" class="st11" d="M86.1,5.6v8.1c0.9-0.9,1.9-1.4,3-1.4c1.3,0,2.4,0.5,3.2,1.4c0.9,1,1.3,2.1,1.3,3.6
		c0,1.5-0.4,2.7-1.3,3.7c-0.9,1-1.9,1.4-3.3,1.4c-1.1,0-2.1-0.4-3-1.3v1h-2.2V5.6H86.1z M91.4,17.5c0-0.9-0.2-1.7-0.7-2.2
		c-0.5-0.6-1.1-0.9-1.9-0.9c-0.8,0-1.5,0.3-2,0.9c-0.5,0.6-0.8,1.3-0.8,2.2c0,0.9,0.2,1.7,0.7,2.2c0.5,0.6,1.2,0.9,2,0.9
		c0.8,0,1.4-0.3,1.9-0.9C91.1,19.1,91.4,18.4,91.4,17.5"/>
	<path id="XMLID_38_" class="st11" d="M71.6,18h-6.9c0.1,0.8,0.3,1.4,0.8,1.9c0.5,0.5,1,0.7,1.7,0.7c0.6,0,1-0.1,1.4-0.4
		c0.4-0.3,0.8-0.7,1.2-1.5l1.9,1c-0.3,0.5-0.6,0.9-0.9,1.3c-0.3,0.4-0.7,0.6-1,0.9c-0.4,0.2-0.8,0.4-1.2,0.5
		c-0.4,0.1-0.9,0.2-1.4,0.2c-1.4,0-2.6-0.5-3.4-1.4c-0.9-0.9-1.3-2.1-1.3-3.7c0-1.5,0.4-2.7,1.3-3.7c0.8-0.9,2-1.4,3.4-1.4
		c1.4,0,2.5,0.4,3.3,1.3c0.8,0.9,1.2,2.1,1.2,3.7L71.6,18z M69.3,16.1c-0.3-1.2-1.1-1.8-2.2-1.8c-0.3,0-0.5,0-0.8,0.1
		c-0.2,0.1-0.5,0.2-0.6,0.4c-0.2,0.2-0.4,0.3-0.5,0.6c-0.1,0.2-0.2,0.5-0.3,0.7H69.3z"/>
</g>
</svg>
