<svg version="1.1" xmlns="http://www.w3.org/2000/svg" viewBox="0 0 1180.15625 1005.4841926088229" width="1180.15625" height="1005.4841926088229">
  <!-- svg-source:excalidraw -->
  
  <defs>
    <style class="style-fonts">
      @font-face {
        font-family: "Virgil";
        src: url("https://excalidraw.com/Virgil.woff2");
      }
      @font-face {
        font-family: "Cascadia";
        src: url("https://excalidraw.com/Cascadia.woff2");
      }
    </style>
    
  </defs>
  <g transform="translate(322.49450511935856 10) rotate(0 10.546875 21.59999999999991)"><text x="0" y="0" font-family="Cascadia, Segoe UI Emoji" font-size="36px" fill="#000000" text-anchor="start" style="white-space: pre;" direction="ltr" dominant-baseline="text-before-edge"></text></g><g transform="translate(54.80832082365794 181.05351209561468) rotate(0 450.421875 21.59999999999991)"><text x="0" y="0" font-family="Cascadia, Segoe UI Emoji" font-size="36px" fill="#000000" text-anchor="start" style="white-space: pre;" direction="ltr" dominant-baseline="text-before-edge">Raw Image： docker.com/library/nginx:1.25.1</text></g><g stroke-linecap="round"><g transform="translate(292.40449531575587 230.89538346799145) rotate(0 105.05474853515625 0)"><path d="M0 0 C35.02 0, 175.09 0, 210.11 0 M0 0 C35.02 0, 175.09 0, 210.11 0" stroke="#e03131" stroke-width="4" fill="none"></path></g></g><mask></mask><g stroke-linecap="round"><g transform="translate(518.1362458040371 230.24496232541333) rotate(0 76.3006591796875 0)"><path d="M0 0 C25.43 0, 127.17 0, 152.6 0 M0 0 C25.43 0, 127.17 0, 152.6 0" stroke="#2f9e44" stroke-width="4" fill="none"></path></g></g><mask></mask><g stroke-linecap="round"><g transform="translate(696.5868073274746 232.88464128049145) rotate(0 122.9620361328125 0)"><path d="M0 0 C40.99 0, 204.94 0, 245.92 0 M0 0 C40.99 0, 204.94 0, 245.92 0" stroke="#1971c2" stroke-width="4" fill="none"></path></g></g><mask></mask><g stroke-linecap="round"><g transform="translate(808.1346588899746 258.09960710080395) rotate(0 8.67626953125 193.30853271484375)"><path d="M0 0 C2.89 64.44, 14.46 322.18, 17.35 386.62 M0 0 C2.89 64.44, 14.46 322.18, 17.35 386.62" stroke="#1971c2" stroke-width="4" fill="none"></path></g><g transform="translate(808.1346588899746 258.09960710080395) rotate(0 8.67626953125 193.30853271484375)"><path d="M5.84 358.91 C9.6 367.97, 13.37 377.02, 17.35 386.62 M5.84 358.91 C9.26 367.15, 12.69 375.39, 17.35 386.62" stroke="#1971c2" stroke-width="4" fill="none"></path></g><g transform="translate(808.1346588899746 258.09960710080395) rotate(0 8.67626953125 193.30853271484375)"><path d="M26.34 357.99 C23.4 367.35, 20.46 376.7, 17.35 386.62 M26.34 357.99 C23.67 366.51, 20.99 375.02, 17.35 386.62" stroke="#1971c2" stroke-width="4" fill="none"></path></g></g><mask></mask><g stroke-linecap="round"><g transform="translate(555.2168122102871 264.5959755090071) rotate(0 -63.44989013671875 285.4966735839844)"><path d="M0 0 C-21.15 95.17, -105.75 475.83, -126.9 570.99 M0 0 C-21.15 95.17, -105.75 475.83, -126.9 570.99" stroke="#2f9e44" stroke-width="4" fill="none"></path></g><g transform="translate(555.2168122102871 264.5959755090071) rotate(0 -63.44989013671875 285.4966735839844)"><path d="M-130.8 541.25 C-129.96 547.65, -129.12 554.06, -126.9 570.99 M-130.8 541.25 C-129.77 549.12, -128.74 556.99, -126.9 570.99" stroke="#2f9e44" stroke-width="4" fill="none"></path></g><g transform="translate(555.2168122102871 264.5959755090071) rotate(0 -63.44989013671875 285.4966735839844)"><path d="M-110.77 545.7 C-114.24 551.15, -117.71 556.59, -126.9 570.99 M-110.77 545.7 C-115.04 552.39, -119.3 559.08, -126.9 570.99" stroke="#2f9e44" stroke-width="4" fill="none"></path></g></g><mask></mask><g stroke-linecap="round"><g transform="translate(370.9444733430996 261.78368913205395) rotate(0 -6.985809326171875 255.19976806640625)"><path d="M0 0 C-2.33 85.07, -11.64 425.33, -13.97 510.4 M0 0 C-2.33 85.07, -11.64 425.33, -13.97 510.4" stroke="#e03131" stroke-width="4" fill="none"></path></g><g transform="translate(370.9444733430996 261.78368913205395) rotate(0 -6.985809326171875 255.19976806640625)"><path d="M-23.46 481.94 C-20.39 491.13, -17.33 500.32, -13.97 510.4 M-23.46 481.94 C-20.26 491.53, -17.06 501.13, -13.97 510.4" stroke="#e03131" stroke-width="4" fill="none"></path></g><g transform="translate(370.9444733430996 261.78368913205395) rotate(0 -6.985809326171875 255.19976806640625)"><path d="M-2.94 482.5 C-6.51 491.51, -10.07 500.52, -13.97 510.4 M-2.94 482.5 C-6.66 491.9, -10.38 501.31, -13.97 510.4" stroke="#e03131" stroke-width="4" fill="none"></path></g></g><mask></mask><g transform="translate(112.76005561849024 418.11645280392895) rotate(0 201.5625 240)"><text x="0" y="0" font-family="Cascadia, Segoe UI Emoji" font-size="16px" fill="#1e1e1e" text-anchor="start" style="white-space: pre;" direction="ltr" dominant-baseline="text-before-edge">仓库CRD定义</text><text x="0" y="19.2" font-family="Cascadia, Segoe UI Emoji" font-size="16px" fill="#1e1e1e" text-anchor="start" style="white-space: pre;" direction="ltr" dominant-baseline="text-before-edge"></text><text x="0" y="38.4" font-family="Cascadia, Segoe UI Emoji" font-size="16px" fill="#1e1e1e" text-anchor="start" style="white-space: pre;" direction="ltr" dominant-baseline="text-before-edge">apiVersion: core.kubebb.k8s.com.cn/v1alpha1</text><text x="0" y="57.599999999999994" font-family="Cascadia, Segoe UI Emoji" font-size="16px" fill="#1e1e1e" text-anchor="start" style="white-space: pre;" direction="ltr" dominant-baseline="text-before-edge">kind: Repository</text><text x="0" y="76.8" font-family="Cascadia, Segoe UI Emoji" font-size="16px" fill="#1e1e1e" text-anchor="start" style="white-space: pre;" direction="ltr" dominant-baseline="text-before-edge">metadata:</text><text x="0" y="96" font-family="Cascadia, Segoe UI Emoji" font-size="16px" fill="#1e1e1e" text-anchor="start" style="white-space: pre;" direction="ltr" dominant-baseline="text-before-edge">  name: repository-bitnami-special-version</text><text x="0" y="115.19999999999999" font-family="Cascadia, Segoe UI Emoji" font-size="16px" fill="#1e1e1e" text-anchor="start" style="white-space: pre;" direction="ltr" dominant-baseline="text-before-edge">  namespace: kubebb-system</text><text x="0" y="134.4" font-family="Cascadia, Segoe UI Emoji" font-size="16px" fill="#1e1e1e" text-anchor="start" style="white-space: pre;" direction="ltr" dominant-baseline="text-before-edge">spec:</text><text x="0" y="153.6" font-family="Cascadia, Segoe UI Emoji" font-size="16px" fill="#1e1e1e" text-anchor="start" style="white-space: pre;" direction="ltr" dominant-baseline="text-before-edge">  url: https://charts.bitnami.com/bitnami</text><text x="0" y="172.79999999999998" font-family="Cascadia, Segoe UI Emoji" font-size="16px" fill="#1e1e1e" text-anchor="start" style="white-space: pre;" direction="ltr" dominant-baseline="text-before-edge">  pullStategy:</text><text x="0" y="192" font-family="Cascadia, Segoe UI Emoji" font-size="16px" fill="#1e1e1e" text-anchor="start" style="white-space: pre;" direction="ltr" dominant-baseline="text-before-edge">    intervalSeconds: 120</text><text x="0" y="211.2" font-family="Cascadia, Segoe UI Emoji" font-size="16px" fill="#1e1e1e" text-anchor="start" style="white-space: pre;" direction="ltr" dominant-baseline="text-before-edge">    retry: 5</text><text x="0" y="230.39999999999998" font-family="Cascadia, Segoe UI Emoji" font-size="16px" fill="#1e1e1e" text-anchor="start" style="white-space: pre;" direction="ltr" dominant-baseline="text-before-edge">  filter:</text><text x="0" y="249.6" font-family="Cascadia, Segoe UI Emoji" font-size="16px" fill="#1e1e1e" text-anchor="start" style="white-space: pre;" direction="ltr" dominant-baseline="text-before-edge">  - name: wordpress</text><text x="0" y="268.8" font-family="Cascadia, Segoe UI Emoji" font-size="16px" fill="#1e1e1e" text-anchor="start" style="white-space: pre;" direction="ltr" dominant-baseline="text-before-edge">    operation: keep</text><text x="0" y="288" font-family="Cascadia, Segoe UI Emoji" font-size="16px" fill="#1e1e1e" text-anchor="start" style="white-space: pre;" direction="ltr" dominant-baseline="text-before-edge">    versionedFilterCond:</text><text x="0" y="307.2" font-family="Cascadia, Segoe UI Emoji" font-size="16px" fill="#1e1e1e" text-anchor="start" style="white-space: pre;" direction="ltr" dominant-baseline="text-before-edge">      versions:</text><text x="0" y="326.4" font-family="Cascadia, Segoe UI Emoji" font-size="16px" fill="#1e1e1e" text-anchor="start" style="white-space: pre;" direction="ltr" dominant-baseline="text-before-edge">      - 16.1.14</text><text x="0" y="345.59999999999997" font-family="Cascadia, Segoe UI Emoji" font-size="16px" fill="#1e1e1e" text-anchor="start" style="white-space: pre;" direction="ltr" dominant-baseline="text-before-edge">      - 16.1.13</text><text x="0" y="364.8" font-family="Cascadia, Segoe UI Emoji" font-size="16px" fill="#1e1e1e" text-anchor="start" style="white-space: pre;" direction="ltr" dominant-baseline="text-before-edge">  imageOverride:</text><text x="0" y="384" font-family="Cascadia, Segoe UI Emoji" font-size="16px" fill="#1e1e1e" text-anchor="start" style="white-space: pre;" direction="ltr" dominant-baseline="text-before-edge">  - registry: docker.com</text><text x="0" y="403.2" font-family="Cascadia, Segoe UI Emoji" font-size="16px" fill="#1e1e1e" text-anchor="start" style="white-space: pre;" direction="ltr" dominant-baseline="text-before-edge">    newRegistry: 192.168.1.1</text><text x="0" y="422.4" font-family="Cascadia, Segoe UI Emoji" font-size="16px" fill="#1e1e1e" text-anchor="start" style="white-space: pre;" direction="ltr" dominant-baseline="text-before-edge">    pathOverride:</text><text x="0" y="441.59999999999997" font-family="Cascadia, Segoe UI Emoji" font-size="16px" fill="#1e1e1e" text-anchor="start" style="white-space: pre;" direction="ltr" dominant-baseline="text-before-edge">      path: library</text><text x="0" y="460.79999999999995" font-family="Cascadia, Segoe UI Emoji" font-size="16px" fill="#1e1e1e" text-anchor="start" style="white-space: pre;" direction="ltr" dominant-baseline="text-before-edge">      newPath: system-container</text></g><g stroke-linecap="round" transform="translate(144.50996406575587 799.9049659875227) rotate(0 124.0169677734375 21.626068115234375)"><path d="M10.81 0 M10.81 0 C82.46 0, 154.11 0, 237.22 0 M10.81 0 C90.78 0, 170.74 0, 237.22 0 M237.22 0 C244.43 0, 248.03 3.6, 248.03 10.81 M237.22 0 C244.43 0, 248.03 3.6, 248.03 10.81 M248.03 10.81 C248.03 16.53, 248.03 22.25, 248.03 32.44 M248.03 10.81 C248.03 18.59, 248.03 26.36, 248.03 32.44 M248.03 32.44 C248.03 39.65, 244.43 43.25, 237.22 43.25 M248.03 32.44 C248.03 39.65, 244.43 43.25, 237.22 43.25 M237.22 43.25 C177.87 43.25, 118.53 43.25, 10.81 43.25 M237.22 43.25 C163.98 43.25, 90.73 43.25, 10.81 43.25 M10.81 43.25 C3.6 43.25, 0 39.65, 0 32.44 M10.81 43.25 C3.6 43.25, 0 39.65, 0 32.44 M0 32.44 C0 26.67, 0 20.9, 0 10.81 M0 32.44 C0 25.71, 0 18.97, 0 10.81 M0 10.81 C0 3.6, 3.6 0, 10.81 0 M0 10.81 C0 3.6, 3.6 0, 10.81 0" stroke="#e03131" stroke-width="4" fill="none"></path></g><g stroke-linecap="round" transform="translate(149.24610908528712 860.8128639367415) rotate(0 138.88485717773438 21.8172607421875)"><path d="M10.91 0 M10.91 0 C106.78 0, 202.66 0, 266.86 0 M10.91 0 C106.78 0, 202.66 0, 266.86 0 M266.86 0 C274.13 0, 277.77 3.64, 277.77 10.91 M266.86 0 C274.13 0, 277.77 3.64, 277.77 10.91 M277.77 10.91 C277.77 15.55, 277.77 20.19, 277.77 32.73 M277.77 10.91 C277.77 15.7, 277.77 20.5, 277.77 32.73 M277.77 32.73 C277.77 40, 274.13 43.63, 266.86 43.63 M277.77 32.73 C277.77 40, 274.13 43.63, 266.86 43.63 M266.86 43.63 C174.86 43.63, 82.86 43.63, 10.91 43.63 M266.86 43.63 C165.34 43.63, 63.83 43.63, 10.91 43.63 M10.91 43.63 C3.64 43.63, 0 40, 0 32.73 M10.91 43.63 C3.64 43.63, 0 40, 0 32.73 M0 32.73 C0 27.98, 0 23.24, 0 10.91 M0 32.73 C0 24.29, 0 15.86, 0 10.91 M0 10.91 C0 3.64, 3.64 0, 10.91 0 M0 10.91 C0 3.64, 3.64 0, 10.91 0" stroke="#2f9e44" stroke-width="4" fill="none"></path></g><g transform="translate(666.9321442415371 399.4525428918196) rotate(0 201.5625 211.19999999999982)"><text x="0" y="0" font-family="Cascadia, Segoe UI Emoji" font-size="16px" fill="#1e1e1e" text-anchor="start" style="white-space: pre;" direction="ltr" dominant-baseline="text-before-edge">组件CRD定义</text><text x="0" y="19.2" font-family="Cascadia, Segoe UI Emoji" font-size="16px" fill="#1e1e1e" text-anchor="start" style="white-space: pre;" direction="ltr" dominant-baseline="text-before-edge"></text><text x="0" y="38.4" font-family="Cascadia, Segoe UI Emoji" font-size="16px" fill="#1e1e1e" text-anchor="start" style="white-space: pre;" direction="ltr" dominant-baseline="text-before-edge">apiVersion: core.kubebb.k8s.com.cn/v1alpha1</text><text x="0" y="57.599999999999994" font-family="Cascadia, Segoe UI Emoji" font-size="16px" fill="#1e1e1e" text-anchor="start" style="white-space: pre;" direction="ltr" dominant-baseline="text-before-edge">kind: ComponentPlan</text><text x="0" y="76.8" font-family="Cascadia, Segoe UI Emoji" font-size="16px" fill="#1e1e1e" text-anchor="start" style="white-space: pre;" direction="ltr" dominant-baseline="text-before-edge">metadata:</text><text x="0" y="96" font-family="Cascadia, Segoe UI Emoji" font-size="16px" fill="#1e1e1e" text-anchor="start" style="white-space: pre;" direction="ltr" dominant-baseline="text-before-edge">  name: nginx-15.0.2</text><text x="0" y="115.19999999999999" font-family="Cascadia, Segoe UI Emoji" font-size="16px" fill="#1e1e1e" text-anchor="start" style="white-space: pre;" direction="ltr" dominant-baseline="text-before-edge">  namespace: kubebb-system</text><text x="0" y="134.4" font-family="Cascadia, Segoe UI Emoji" font-size="16px" fill="#1e1e1e" text-anchor="start" style="white-space: pre;" direction="ltr" dominant-baseline="text-before-edge">spec:</text><text x="0" y="153.6" font-family="Cascadia, Segoe UI Emoji" font-size="16px" fill="#1e1e1e" text-anchor="start" style="white-space: pre;" direction="ltr" dominant-baseline="text-before-edge">  approved: true</text><text x="0" y="172.79999999999998" font-family="Cascadia, Segoe UI Emoji" font-size="16px" fill="#1e1e1e" text-anchor="start" style="white-space: pre;" direction="ltr" dominant-baseline="text-before-edge">  component:</text><text x="0" y="192" font-family="Cascadia, Segoe UI Emoji" font-size="16px" fill="#1e1e1e" text-anchor="start" style="white-space: pre;" direction="ltr" dominant-baseline="text-before-edge">    name: repository-bitnami-sample.nginx</text><text x="0" y="211.2" font-family="Cascadia, Segoe UI Emoji" font-size="16px" fill="#1e1e1e" text-anchor="start" style="white-space: pre;" direction="ltr" dominant-baseline="text-before-edge">    namespace: kubebb-system</text><text x="0" y="230.39999999999998" font-family="Cascadia, Segoe UI Emoji" font-size="16px" fill="#1e1e1e" text-anchor="start" style="white-space: pre;" direction="ltr" dominant-baseline="text-before-edge">  name: my-nginx</text><text x="0" y="249.6" font-family="Cascadia, Segoe UI Emoji" font-size="16px" fill="#1e1e1e" text-anchor="start" style="white-space: pre;" direction="ltr" dominant-baseline="text-before-edge">  override:</text><text x="0" y="268.8" font-family="Cascadia, Segoe UI Emoji" font-size="16px" fill="#1e1e1e" text-anchor="start" style="white-space: pre;" direction="ltr" dominant-baseline="text-before-edge">    images:</text><text x="0" y="288" font-family="Cascadia, Segoe UI Emoji" font-size="16px" fill="#1e1e1e" text-anchor="start" style="white-space: pre;" direction="ltr" dominant-baseline="text-before-edge">      - name: docker.io/library/nginx</text><text x="0" y="307.2" font-family="Cascadia, Segoe UI Emoji" font-size="16px" fill="#1e1e1e" text-anchor="start" style="white-space: pre;" direction="ltr" dominant-baseline="text-before-edge">        newTag: latest</text><text x="0" y="326.4" font-family="Cascadia, Segoe UI Emoji" font-size="16px" fill="#1e1e1e" text-anchor="start" style="white-space: pre;" direction="ltr" dominant-baseline="text-before-edge">  repository:</text><text x="0" y="345.59999999999997" font-family="Cascadia, Segoe UI Emoji" font-size="16px" fill="#1e1e1e" text-anchor="start" style="white-space: pre;" direction="ltr" dominant-baseline="text-before-edge">    name: repository-bitnami-sample</text><text x="0" y="364.8" font-family="Cascadia, Segoe UI Emoji" font-size="16px" fill="#1e1e1e" text-anchor="start" style="white-space: pre;" direction="ltr" dominant-baseline="text-before-edge">    namespace: kubebb-system</text><text x="0" y="384" font-family="Cascadia, Segoe UI Emoji" font-size="16px" fill="#1e1e1e" text-anchor="start" style="white-space: pre;" direction="ltr" dominant-baseline="text-before-edge">  version: 15.0.2</text><text x="0" y="403.2" font-family="Cascadia, Segoe UI Emoji" font-size="16px" fill="#1e1e1e" text-anchor="start" style="white-space: pre;" direction="ltr" dominant-baseline="text-before-edge">  name: my-nginx</text></g><g stroke-linecap="round" transform="translate(697.6051178743496 665.5667091515852) rotate(0 218.32769775390625 32.66943359375)"><path d="M16.33 0 M16.33 0 C139.93 0, 263.52 0, 420.32 0 M16.33 0 C114.06 0, 211.78 0, 420.32 0 M420.32 0 C431.21 0, 436.66 5.44, 436.66 16.33 M420.32 0 C431.21 0, 436.66 5.44, 436.66 16.33 M436.66 16.33 C436.66 29.16, 436.66 41.99, 436.66 49 M436.66 16.33 C436.66 23.16, 436.66 29.98, 436.66 49 M436.66 49 C436.66 59.89, 431.21 65.34, 420.32 65.34 M436.66 49 C436.66 59.89, 431.21 65.34, 420.32 65.34 M420.32 65.34 C327.06 65.34, 233.8 65.34, 16.33 65.34 M420.32 65.34 C333.9 65.34, 247.48 65.34, 16.33 65.34 M16.33 65.34 C5.44 65.34, 0 59.89, 0 49 M16.33 65.34 C5.44 65.34, 0 59.89, 0 49 M0 49 C0 38.16, 0 27.31, 0 16.33 M0 49 C0 38.33, 0 27.66, 0 16.33 M0 16.33 C0 5.44, 5.44 0, 16.33 0 M0 16.33 C0 5.44, 5.44 0, 16.33 0" stroke="#1971c2" stroke-width="4" fill="none"></path></g><g transform="translate(10 952.2841926088231) rotate(0 580.078125 21.59999999999991)"><text x="0" y="0" font-family="Cascadia, Segoe UI Emoji" font-size="36px" fill="#f08c00" text-anchor="start" style="white-space: pre;" direction="ltr" dominant-baseline="text-before-edge">Changed Image 192.168.1.1/system-container/nginx:latest</text></g><g stroke-linecap="round"><g transform="translate(601.5773468782559 249.59170304806958) rotate(0 -7.3094732481986275 341.5676754374058)"><path d="M-0.91 0.55 C-3.23 114.36, -11.32 568.58, -13.71 682.59" stroke="#f08c00" stroke-width="4.5" fill="none" stroke-dasharray="8 12"></path></g><g transform="translate(601.5773468782559 249.59170304806958) rotate(0 -7.3094732481986275 341.5676754374058)"><path d="M-14.35 683.32 L-21.78 667.31 L-6.89 670.67 L-13.11 682.72" stroke="none" stroke-width="0" fill="#f08c00" fill-rule="evenodd"></path><path d="M-13.02 683.36 C-16.74 676.98, -16.18 673.59, -19.51 668.94 M-20.15 669.53 C-17.86 668.65, -13.6 670.01, -7.38 669.62 M-6.46 669.45 C-9.96 673.84, -12.45 680.48, -13.64 682.5 M-13.71 682.59 C-13.71 682.59, -13.71 682.59, -13.71 682.59" stroke="#f08c00" stroke-width="4.5" fill="none"></path></g></g><mask></mask></svg>