<?xml version="1.0" encoding="utf-8"?>
<!-- Generator: Adobe Illustrator 19.0.0, SVG Export Plug-In . SVG Version: 6.00 Build 0)  -->
<svg version="1.1" xmlns="http://www.w3.org/2000/svg" xmlns:xlink="http://www.w3.org/1999/xlink" x="0px" y="0px"
	 viewBox="0 0 1220 660" style="enable-background:new 0 0 1220 660;" xml:space="preserve">
<style type="text/css">
	.st0{fill:#F5F7FC;}
	.st1{fill:#FFFFFF;}
	.st2{opacity:0.8;}
	.st3{font-family:'PingFang-SC-Bold';}
	.st4{font-size:24px;}
	.st5{opacity:0.7;}
	.st6{font-family:'PingFang-SC-Medium';}
	.st7{font-size:20px;}
	.st8{fill:#4E4E4E;}
	.st9{fill:#767677;}
	.st10{fill:#F37726;}
	.st11{fill:#616262;}
	.st12{fill:#9E9E9E;}
	.st13{fill:#C72C48;}
	.st14{fill:#326CE6;}
	.st15{fill:url(#SVGID_1_);}
	.st16{fill:#696566;}
	.st17{fill:url(#SVGID_2_);}
	.st18{fill:#F07F0E;}
	.st19{fill:#4461EB;}
	.st20{clip-path:url(#SVGID_4_);fill:url(#SVGID_5_);}
	.st21{clip-path:url(#SVGID_7_);fill:url(#SVGID_8_);}
	.st22{clip-path:url(#SVGID_10_);fill:url(#SVGID_11_);}
	.st23{clip-path:url(#SVGID_13_);fill:url(#SVGID_14_);}
	.st24{clip-path:url(#SVGID_16_);fill:url(#SVGID_17_);}
	.st25{clip-path:url(#SVGID_19_);fill:url(#SVGID_20_);}
	.st26{clip-path:url(#SVGID_22_);fill:url(#SVGID_23_);}
	.st27{clip-path:url(#SVGID_25_);fill:url(#SVGID_26_);}
	.st28{clip-path:url(#SVGID_28_);fill:url(#SVGID_29_);}
	.st29{opacity:0.1;fill:#29DD90;}
	.st30{opacity:0.1;}
	.st31{fill:#29DD90;}
	.st32{fill:#269539;}
	.st33{fill:#3E9FD8;}
	.st34{fill:#EF4C5C;}
	.st35{clip-path:url(#SVGID_31_);}
	.st36{fill:#326CE5;}
	.st37{fill:none;stroke:#FFFFFF;stroke-miterlimit:10;}
	.st38{clip-path:url(#SVGID_33_);fill:url(#SVGID_34_);}
	.st39{clip-path:url(#SVGID_36_);fill:url(#SVGID_37_);}
	.st40{clip-path:url(#SVGID_39_);fill:url(#SVGID_40_);}
	.st41{clip-path:url(#SVGID_42_);fill:url(#SVGID_43_);}
	.st42{clip-path:url(#SVGID_45_);fill:url(#SVGID_46_);}
	.st43{clip-path:url(#SVGID_48_);fill:url(#SVGID_49_);}
	.st44{clip-path:url(#SVGID_51_);fill:url(#SVGID_52_);}
	.st45{clip-path:url(#SVGID_54_);fill:url(#SVGID_55_);}
	.st46{clip-path:url(#SVGID_57_);fill:url(#SVGID_58_);}
	.st47{clip-path:url(#SVGID_60_);fill:url(#SVGID_61_);}
	.st48{fill:#274872;}
	.st49{fill:#5783AB;}
	.st50{fill:#EAECEC;}
	.st51{opacity:0.8;fill:#4461EB;}
	.st52{opacity:0.4;fill:#F4EA2A;enable-background:new    ;}
</style>
<g id="图层_1">
	<rect x="0" y="0" class="st0" width="1220" height="660"/>
	<g>
		<rect x="20.2" y="20.1" class="st1" width="639.9" height="230"/>
	</g>
	<rect x="40.3" y="40.1" class="st0" width="600" height="190"/>
	<path class="st1" d="M377.2,160.1H142.4c-1.4,0-2.6-1.2-2.6-2.6v-44.8c0-1.4,1.2-2.6,2.6-2.6h234.8c1.4,0,2.6,1.2,2.6,2.6v44.8
		C379.8,158.9,378.6,160.1,377.2,160.1z"/>
	<path class="st1" d="M377.2,100.1H142.4c-1.4,0-2.6-1.2-2.6-2.6V52.7c0-1.4,1.2-2.6,2.6-2.6h234.8c1.4,0,2.6,1.2,2.6,2.6v44.8
		C379.8,98.9,378.6,100.1,377.2,100.1z"/>
	<path class="st1" d="M627.2,100.1H392.4c-1.4,0-2.6-1.2-2.6-2.6V52.7c0-1.4,1.2-2.6,2.6-2.6h234.8c1.4,0,2.6,1.2,2.6,2.6v44.8
		C629.8,98.9,628.6,100.1,627.2,100.1z"/>
	<g id="XMLID_140_" class="st2">
		<text transform="matrix(1 0 0 1 65.793 127.5461)"><tspan x="0" y="0" class="st3 st4">原生</tspan><tspan x="0" y="28.8" class="st3 st4">组件</tspan></text>
	</g>
	<g>
		<g id="XMLID_134_" class="st5">
			<text transform="matrix(1 0 0 1 250.3426 81.0348)" class="st6 st7">jupyter</text>
		</g>
		<g>
			<path class="st8" d="M206.9,76c0,1.3-0.1,1.7-0.3,1.9c-0.3,0.2-0.6,0.4-1,0.4l0.1,0.7c0.6,0,1.2-0.2,1.6-0.6
				c0.2-0.3,0.4-0.6,0.6-1c0.1-0.4,0.2-0.7,0.1-1.1v-4.7h-1V76z M214,75.4c0,0.6,0,1,0.1,1.4h-0.9l-0.1-0.9
				c-0.2,0.3-0.4,0.6-0.7,0.7c-0.3,0.2-0.6,0.2-1,0.2c-0.8,0-1.8-0.5-1.8-2.2v-3h1v2.9c0,1,0.3,1.7,1.2,1.7c0.2,0,0.3,0,0.5-0.1
				s0.3-0.2,0.4-0.3c0.2-0.2,0.2-0.2,0.3-0.4s0.1-0.3,0.1-0.5v-3.2h1V75.4z M218.5,71.6c-0.4,0-0.7,0.1-1,0.2
				c-0.3,0.2-0.6,0.5-0.8,0.8l-0.1-0.9h-0.9c0.1,0.5,0.1,1,0.1,1.7V79h1v-2.9c0.2,0.2,0.4,0.5,0.7,0.6c0.3,0.2,0.6,0.2,0.9,0.2
				c1.2,0,2.4-1,2.4-2.8C220.8,72.6,219.8,71.6,218.5,71.6z M218.3,76.2c-0.3,0-0.6-0.1-0.9-0.3c-0.2-0.2-0.5-0.5-0.6-0.8
				c0-0.2-0.1-0.2-0.1-0.4v-0.9c0-0.4,0.2-0.8,0.5-1c0.2-0.3,0.6-0.5,1-0.5c1,0,1.5,0.9,1.5,1.9C219.8,75.4,219.2,76.2,218.3,76.2z
				 M222.4,71.6l1.1,3c0.2,0.3,0.2,0.7,0.3,1c0.1-0.3,0.2-0.7,0.3-1.1l1-3h1l-1.4,3.7c-0.7,1.8-1.1,2.7-1.8,3.3
				c-0.3,0.3-0.7,0.5-1.2,0.6l-0.2-0.8c0.3-0.1,0.6-0.2,0.8-0.5c0.3-0.3,0.6-0.6,0.8-1c0-0.1,0.1-0.2,0.1-0.2s0-0.2-0.1-0.2
				l-1.9-4.8L222.4,71.6z M228.8,70.1v1.5h1.4v0.7h-1.4v2.8c0,0.6,0.2,1,0.7,1c0.2,0,0.4,0,0.6-0.1l0.1,0.7
				c-0.2,0.1-0.6,0.2-0.9,0.2c-0.2,0-0.4,0-0.6-0.1c-0.2-0.1-0.3-0.2-0.5-0.3c-0.3-0.4-0.4-0.9-0.4-1.4v-2.9h-0.8v-0.7h0.8v-1.3
				L228.8,70.1z M235.6,74c0-1-0.4-2.5-2.2-2.5c-1.5,0-2.5,1.2-2.5,2.8c0,0.3,0,0.7,0.2,1c0.2,0.3,0.3,0.6,0.6,0.9
				c0.2,0.2,0.6,0.5,0.9,0.6c0.3,0.2,0.6,0.2,1,0.2c0.6,0,1.2-0.1,1.8-0.3l-0.2-0.7c-0.5,0.2-1,0.3-1.4,0.2c-0.2,0-0.5,0-0.7-0.1
				s-0.4-0.2-0.6-0.4c-0.2-0.2-0.3-0.4-0.4-0.6c-0.1-0.2-0.1-0.5-0.1-0.7h3.7V74z M234.7,73.7h-2.8c0-0.4,0.2-0.8,0.4-1
				c0.2-0.3,0.6-0.5,1-0.5c0.2,0,0.4,0.1,0.6,0.2c0.2,0.1,0.3,0.2,0.5,0.3s0.2,0.3,0.2,0.5C234.8,73.3,234.8,73.5,234.7,73.7z
				 M237.1,73.2c0-0.6,0-1.1-0.1-1.6h0.9v1h0.1c0.1-0.3,0.2-0.6,0.6-0.8c0.2-0.2,0.6-0.3,0.9-0.3h0.2v0.9h-0.3
				c-0.3,0-0.6,0.2-0.9,0.4s-0.4,0.6-0.4,0.9c0,0.2-0.1,0.3-0.1,0.5V77h-1L237.1,73.2z"/>
			<path class="st9" d="M236.7,57.3c0,0.5-0.1,1-0.3,1.4s-0.6,0.7-1,1c-0.4,0.2-0.9,0.3-1.4,0.2c-0.5-0.1-0.9-0.2-1.3-0.6
				s-0.6-0.7-0.7-1.2c-0.1-0.5-0.1-1,0.1-1.4c0.2-0.5,0.5-0.9,0.9-1.1c0.4-0.3,0.9-0.5,1.4-0.5c0.3,0,0.6,0,1,0.2
				c0.3,0.2,0.6,0.2,0.8,0.5c0.2,0.2,0.4,0.5,0.6,0.7C236.6,56.7,236.7,57,236.7,57.3z"/>
			<path class="st10" d="M222.6,85.2c-6.4,0-12.1-2.3-14.9-5.7c1.1,3,3.2,5.7,5.8,7.5c2.6,1.8,5.8,2.9,9.1,2.9s6.4-1,9.1-2.9
				c2.6-1.8,4.7-4.5,5.8-7.5C234.7,82.9,229.1,85.2,222.6,85.2z M222.6,63.2c6.4,0,12.1,2.3,14.9,5.7c-1.1-3-3.2-5.7-5.8-7.5
				c-2.6-1.8-5.8-2.9-9.1-2.9s-6.4,1-9.1,2.9c-2.6,1.8-4.7,4.5-5.8,7.5C210.6,65.4,216.2,63.2,222.6,63.2z"/>
			<path class="st11" d="M208.4,62.4c-0.3,0-0.7-0.1-1-0.2c-0.3-0.2-0.6-0.5-0.6-0.8c-0.2-0.3-0.2-0.6-0.2-1
				c0.1-0.3,0.2-0.6,0.5-0.9s0.6-0.4,0.9-0.5s0.7-0.1,1,0.1c0.3,0.2,0.6,0.3,0.8,0.6c0.2,0.3,0.3,0.6,0.3,1c0,0.5-0.2,1-0.5,1.3
				C209.3,62.1,208.8,62.4,208.4,62.4z"/>
			<path class="st12" d="M213.8,91.9c0,0.6-0.1,1.2-0.4,1.8s-0.7,1-1.3,1.2c-0.6,0.2-1.1,0.3-1.8,0.2c-0.6-0.1-1.1-0.3-1.6-0.7
				c-0.5-0.4-0.8-1-0.9-1.5c-0.2-0.6-0.1-1.2,0.1-1.8s0.6-1,1-1.4c0.5-0.3,1-0.6,1.7-0.6c0.4,0,0.8,0,1.2,0.2c0.4,0.2,0.7,0.3,1,0.6
				c0.3,0.2,0.6,0.6,0.7,1C213.6,91.1,213.7,91.5,213.8,91.9z"/>
		</g>
	</g>
	<path class="st1" d="M626.1,220.1H143.5c-2.1,0-3.7-1.7-3.7-3.7v-42.5c0-2.1,1.7-3.7,3.7-3.7h482.5c2.1,0,3.7,1.7,3.7,3.7v42.5
		C629.8,218.4,628.1,220.1,626.1,220.1z"/>
	<g>
		<g id="XMLID_142_" class="st5">
			<text transform="matrix(1 0 0 1 259.2159 141.0349)" class="st6 st7">minio</text>
		</g>
		<path class="st13" d="M246.7,125l-16.2,8.7c-0.2,0.1-0.5,0.1-0.8,0l-16.2-8.7c-0.4-0.2-0.8-0.3-1.2-0.3h0c-1.2-0.1-2.1,0.8-2.2,2
			v18.8h8v-8.9c0.1-0.4,0.5-0.8,0.9-0.7c0.1,0,0.2,0.1,0.3,0.1l9.1,4.9c0.9,0.5,2,0.5,2.9,0l9.6-4.9c0.4-0.2,0.9-0.1,1.1,0.3
			c0.1,0.1,0.1,0.2,0.1,0.3v9h8v-18.8c-0.1-1.1-1.1-2-2.2-2h0C247.5,124.7,247.1,124.8,246.7,125z"/>
	</g>
	<polygon class="st1" points="448.9,166.5 448.4,166.9 447.8,166.9 447.4,166.5 447.4,165.8 447.8,165.4 448.5,165.4 448.9,165.8 	
		"/>
	<polygon class="st1" points="466.4,165.8 466.8,165.4 467.4,165.4 467.9,165.8 467.9,166.5 467.4,166.9 466.8,166.9 466.4,166.5 	
		"/>
	<g id="XMLID_125_" class="st5">
		<text transform="matrix(1 0 0 1 338.9023 202.2225)" class="st6 st7">chartmuseum</text>
	</g>
	<g>
		<path class="st14" d="M306.8,187.3h-3.5c-0.5,0-0.9,0.4-0.9,0.9s0.4,0.9,0.9,0.9h3.5c0.5,0,0.9-0.4,0.9-0.9
			S307.3,187.3,306.8,187.3z"/>
		<path class="st14" d="M301.8,182h3.5c0.3,0,0.6-0.2,0.8-0.4c0.2-0.3,0.2-0.6,0-0.9c-0.2-0.3-0.5-0.5-0.8-0.4h-3.5
			c-0.3,0-0.6,0.2-0.8,0.4c-0.2,0.3-0.2,0.6,0,0.9C301.1,181.9,301.4,182.1,301.8,182z"/>
		<path class="st14" d="M301.8,185.6h5c0.5,0,0.9-0.4,0.9-0.9c0-0.5-0.4-0.9-0.9-0.9h-5c-0.3,0-0.6,0.2-0.8,0.4
			c-0.2,0.3-0.2,0.6,0,0.9C301.1,185.4,301.4,185.6,301.8,185.6z"/>
		<path class="st14" d="M312.9,195.2h-19.5c-0.4,0-0.7,0.1-1.1,0.3c-0.9,0.5-1.5,1.6-1.2,2.6c0.2,1.1,1.1,1.8,2.2,1.9
			c1.1,0.1,2-0.6,2.4-1.6v6.1c0.8,0.7,1.6,1.2,2.5,1.7v-8.5h2.5v10.7c0.8,0.3,1.6,0.4,2.5,0.5v-11.3h2.5V209
			c0.8-0.1,1.7-0.3,2.5-0.5v-10.7h2.5v8.5c0.9-0.5,1.7-1,2.5-1.7v-6.8c0.1,1.2,1,2.2,2.2,2.3c1.2,0.1,2.3-0.8,2.5-2
			c0.2-1.2-0.5-2.4-1.6-2.7c-0.2-0.1-0.3-0.1-0.5-0.1H312.9z"/>
		<path class="st14" d="M323.8,195.1c-0.7,0-1.5,0.1-2.2,0.2c-0.2-2.8-1-5.6-2.5-8c0.7-0.3,1.3-0.7,1.9-1.2c1.9-1.5,3-3.3,2.4-4
			c-0.5-0.7-2.5-0.1-4.4,1.4c-0.6,0.4-1.1,0.9-1.5,1.5c-0.7-0.9-1.6-1.7-2.5-2.4c-1.2-0.9-2.4-1.7-3.8-2.3c0,0-0.1,0-0.1-0.1
			c-0.7-2.5-2.9-4.2-5.5-4.2h0l-6.3,0c-1.2,0-2.1,1-2.1,2.1v2.1c-1.3,0.6-2.6,1.4-3.7,2.3c-0.9,0.7-1.8,1.6-2.6,2.5
			c-0.5-0.6-1-1.1-1.6-1.6c-1.9-1.5-3.9-2.1-4.4-1.4c-0.5,0.7,0.5,2.5,2.5,4c0.6,0.5,1.3,0.9,2,1.3c-1.4,2.4-2.3,5.1-2.4,7.9
			c-0.8-0.2-1.6-0.3-2.4-0.3c-2.4,0-4.4,0.7-4.4,1.6c0,0.9,2,1.6,4.4,1.6c0.8,0,1.7-0.1,2.5-0.3c0.2,2.6,1.1,5.2,2.4,7.4
			c-0.7,0.3-1.4,0.8-2.1,1.3c-1.9,1.5-3,3.3-2.4,4c0.5,0.7,2.5,0.1,4.4-1.4c0.6-0.5,1.2-1,1.7-1.6c0.3,0.3,0.5,0.6,0.8,0.9
			c3.2,3.4,7.6,5.3,12.2,5.4h0.2c4.6,0,8.9-1.8,12.2-5c0.3-0.3,0.7-0.7,1-1.1c0.5,0.5,1,1,1.6,1.5c1.9,1.5,3.9,2.1,4.4,1.4
			c0.5-0.7-0.5-2.5-2.4-4c-0.6-0.5-1.2-0.9-1.9-1.2c1.4-2.3,2.2-4.8,2.5-7.5c0.7,0.2,1.5,0.2,2.3,0.2c2.4,0,4.4-0.7,4.4-1.6
			C328.2,195.9,326.2,195.1,323.8,195.1z M299.7,178.7l5.9,0c1.8,0,3.2,1.5,3.2,3.3v4.4v4.4l-5.9,0h0c-1.8,0-3.2-1.5-3.2-3.3
			c0-1.4,0-2.9,0-4.1L299.7,178.7z M314.7,207.2c-4.2,4.1-10.3,5.4-15.7,3.3c-5.4-2.1-9.2-7.2-9.5-13.1c-0.4-5.9,2.7-11.4,7.8-14.2
			v1.8c0,0.8,0,1.7,0,2.5c0,3.2,2.6,5.8,5.7,5.8h0l6.3,0c1.2,0,2.1-1,2.1-2.1V188v-4.8c4.8,2.6,7.8,7.7,7.8,13.3
			C319.2,200.5,317.6,204.4,314.7,207.2z"/>
	</g>
	<path class="st1" d="M627.2,160.1H392.4c-1.4,0-2.6-1.2-2.6-2.6v-44.8c0-1.4,1.2-2.6,2.6-2.6h234.8c1.4,0,2.6,1.2,2.6,2.6v44.8
		C629.8,158.9,628.6,160.1,627.2,160.1z"/>
	<g>
		<g id="XMLID_132_" class="st5">
			<text transform="matrix(1 0 0 1 501.942 82.2228)" class="st6 st7">harbor</text>
		</g>
		<g>
			<path class="st1" d="M460.9,76.3c0,8,6.4,14.4,14.4,14.4c8,0,14.4-6.4,14.4-14.4c0,0,0,0,0,0c0-8-6.4-14.4-14.4-14.4
				S460.9,68.3,460.9,76.3C460.9,76.3,460.9,76.3,460.9,76.3z"/>
			<linearGradient id="SVGID_1_" gradientUnits="userSpaceOnUse" x1="467.2038" y1="80.6386" x2="475.0266" y2="80.6386">
				<stop  offset="1.642185e-003" style="stop-color:#9FE576"/>
				<stop  offset="1" style="stop-color:#3D8634"/>
			</linearGradient>
			<path class="st15" d="M467.5,71.7v-1l3.1-3.1v-0.3c0-0.2,0.2-0.4,0.4-0.4c0.2,0,0.4,0.2,0.4,0.4v0v0.3l3.1,3.1v1H474v3.5h0.5v1.7
				H474l1,17.4c-1.6-0.1-3-0.3-4.2-0.6c-1.2-0.3-2.4-0.7-3.6-1.4l1.2-15.5h-0.8v-1.7h0.6v-3.5H467.5z"/>
			<path class="st1" d="M468.2,79.1l6.1,2.7l0.1,0.9l-6.2-2.8L468.2,79.1z M468,81.2l6.4,2.9l0.1,1l-6.5-2.9L468,81.2z M467.9,83.6
				l6.7,3.1l0.1,1l-6.9-3.1L467.9,83.6z M467.7,86.1l7,3.2l0.1,1l-7.2-3.2L467.7,86.1z M469,71.7h4.1v3.5h-1v-1.5c0-0.6-0.5-1-1-1
				c-0.6,0-1,0.5-1,1v0v1.5h-1V71.7z"/>
			<g>
				<g>
					<path class="st16" d="M475.3,58.3c-9.9,0-18,8.1-18,18c0,0,0,0,0,0c0,9.9,8.1,18,18,18c9.9,0,18-8.1,18-18c0,0,0,0,0,0
						C493.3,66.3,485.2,58.3,475.3,58.3z M489.7,76.3c0,8-6.4,14.4-14.4,14.4c-8,0-14.4-6.4-14.4-14.4c0,0,0,0,0,0
						c0-8,6.4-14.4,14.4-14.4S489.7,68.3,489.7,76.3C489.7,76.3,489.7,76.3,489.7,76.3z"/>
				</g>
			</g>
			<linearGradient id="SVGID_2_" gradientUnits="userSpaceOnUse" x1="474.6971" y1="70.945" x2="493.3042" y2="70.945">
				<stop  offset="1.642086e-003" style="stop-color:#4596D8"/>
				<stop  offset="1" style="stop-color:#FFFFFF"/>
			</linearGradient>
			<path class="st17" d="M474.7,72.6l10.8-11.1c0.8,0.6,1.5,1.1,2.1,1.7c0.6,0.6,1.2,1.2,1.8,1.9L474.7,72.6L474.7,72.6z
				 M475.3,73.3l16.1-5c0.4,0.8,0.8,1.6,1,2.3c0.2,0.7,0.4,1.5,0.5,2.2L475.3,73.3z M475,74.2l18.3,1.4c0,0.6,0,1.4-0.1,2.3
				c-0.1,0.9-0.2,1.8-0.4,2.5L475,74.2L475,74.2z"/>
		</g>
	</g>
	<g>
		<g id="XMLID_110_" class="st5">
			<text transform="matrix(1 0 0 1 497.0443 142.2225)" class="st6 st7">grafana</text>
		</g>
		<path class="st18" d="M488,132.8c-0.1-0.7-0.2-1.5-0.4-2.3c-0.2-0.9-0.6-1.8-1-2.8c-0.5-1-1.1-2-1.9-2.9c-0.3-0.4-0.7-0.7-1-1.1
			c0.6-2.2-0.7-4.2-0.7-4.2c-2.2-0.1-3.5,0.7-4,1c-0.1,0-0.2-0.1-0.2-0.1c-0.4-0.1-0.7-0.3-1.1-0.4c-0.4-0.1-0.8-0.2-1.2-0.3
			c-0.4-0.1-0.8-0.2-1.2-0.2c-0.1,0-0.1,0-0.2,0c-0.9-3-3.6-4.3-3.6-4.3c-3.1,2-3.7,4.6-3.7,4.6s0,0.1,0,0.1c-0.2,0-0.3,0.1-0.5,0.1
			c-0.2,0.1-0.5,0.1-0.7,0.2c-0.2,0.1-0.5,0.2-0.7,0.3c-0.5,0.2-0.9,0.4-1.3,0.7c-0.4,0.2-0.8,0.5-1.2,0.8c-0.1,0-0.1-0.1-0.1-0.1
			c-4.2-1.6-7.8,0.3-7.8,0.3c-0.3,4.4,1.7,7.2,2.1,7.7c-0.1,0.3-0.2,0.5-0.3,0.8c-0.3,1-0.5,2-0.7,3.1c0,0.1,0,0.3-0.1,0.5
			c-3.8,1.9-5,5.8-5,5.8c3.2,3.7,7,3.9,7,3.9c0.5,0.9,1,1.7,1.6,2.4c0.2,0.3,0.5,0.6,0.8,0.9c-1.2,3.3,0.2,6.1,0.2,6.1
			c3.6,0.1,5.9-1.6,6.4-2l1.1,0.3c1.1,0.3,2.2,0.5,3.3,0.5h1.5c1.7,2.4,4.6,2.7,4.6,2.7c2.1-2.2,2.2-4.4,2.2-4.9V150
			c0.4-0.3,0.9-0.6,1.3-1c0.9-0.7,1.6-1.6,2.2-2.6c0.1-0.1,0.1-0.2,0.2-0.2c2.4,0.1,4-1.5,4-1.5c-0.4-2.5-1.8-3.7-2.1-3.9l0,0l0,0
			l0,0c0-0.1,0-0.3,0-0.5c0-0.3,0-0.5,0-0.8v-1c0-0.1,0-0.1,0-0.2l-0.1-0.4c0-0.3-0.1-0.5-0.1-0.8c-0.2-1-0.7-2.1-1.2-3
			c-0.6-0.9-1.2-1.7-2-2.4c-0.8-0.7-1.6-1.2-2.6-1.6c-0.9-0.4-1.8-0.7-2.8-0.8c-0.5-0.1-1-0.1-1.4-0.1h-0.7c-0.2,0-0.5,0.1-0.7,0.1
			c-1,0.2-1.8,0.5-2.6,1c-0.8,0.5-1.5,1.1-2,1.7c-0.6,0.6-1,1.4-1.3,2.2c-0.3,0.7-0.5,1.6-0.5,2.3v0.9c0,0.1,0,0.2,0,0.3
			c0.1,1.1,0.5,2.1,1.2,3c0.4,0.6,0.9,1,1.4,1.3c0.5,0.4,1.1,0.6,1.6,0.8c0.6,0.2,1.1,0.2,1.6,0.2h0.7c0.1,0,0.1,0,0.2,0
			c0.1,0,0.1,0,0.2,0c0.1,0,0.2-0.1,0.4-0.1c0.2-0.1,0.4-0.2,0.6-0.2c0.2-0.1,0.4-0.2,0.5-0.3c0,0,0.1-0.1,0.1-0.1
			c0.2-0.1,0.2-0.4,0.1-0.6c0,0,0,0,0,0c-0.1-0.1-0.3-0.2-0.5-0.1c0,0-0.1,0-0.1,0.1c-0.1,0.1-0.3,0.1-0.5,0.2
			c-0.2,0-0.4,0.1-0.5,0.1c-0.1,0-0.2,0-0.3,0h-0.6c0,0,0,0,0,0h-0.1c0,0-0.1,0-0.1,0c-0.4-0.1-0.8-0.2-1.2-0.4
			c-0.4-0.2-0.8-0.4-1.1-0.7c-0.4-0.3-0.6-0.7-0.9-1.1c-0.2-0.4-0.4-0.9-0.5-1.3c0-0.2-0.1-0.5,0-0.7v-0.2c0,0,0,0,0,0V137
			c0-0.1,0-0.2,0.1-0.4c0.2-1.1,0.7-2.1,1.5-2.9c0.2-0.2,0.4-0.4,0.7-0.5c0.2-0.2,0.5-0.3,0.7-0.4s0.5-0.2,0.8-0.3
			c0.3-0.1,0.6-0.1,0.9-0.1c0.1,0,0.3,0,0.4,0h0.3c0,0,0,0,0,0h0.1c0.9,0.1,1.9,0.4,2.7,0.8c1.1,0.6,2.1,1.6,2.7,2.8
			c0.3,0.6,0.5,1.2,0.6,1.9c0,0.2,0,0.3,0.1,0.5v0.9c0,0.2,0,0.4,0,0.5c0,0.2,0,0.4-0.1,0.5l-0.1,0.5c0,0.2-0.2,0.7-0.3,1
			c-0.1,0.4-0.6,1.3-1,1.9c-0.9,1.2-2,2.1-3.3,2.7c-0.7,0.3-1.3,0.5-2.1,0.6c-0.4,0.1-0.7,0.1-1.1,0.1h-0.5c0,0,0,0,0,0h0
			c-0.2,0-0.4,0-0.6,0c-0.8-0.1-1.5-0.2-2.3-0.4s-1.5-0.5-2.1-0.9c-1.4-0.7-2.5-1.7-3.5-2.9c-0.5-0.6-0.9-1.2-1.2-1.9
			c-0.4-0.7-0.6-1.4-0.8-2.1c-0.2-0.7-0.3-1.5-0.4-2.2v-1.1c0-0.4,0-0.7,0.1-1.1c0-0.4,0.1-0.7,0.2-1.1c0.1-0.4,0.2-0.7,0.3-1.1
			s0.5-1.5,0.8-2.1c0.6-1.3,1.5-2.6,2.4-3.5c0.2-0.2,0.5-0.5,0.8-0.7c0.1-0.1,0.4-0.3,0.6-0.5c0.3-0.2,0.6-0.4,0.9-0.5
			c0.1-0.1,0.3-0.1,0.5-0.2c0.1,0,0.1-0.1,0.2-0.1c0.1,0,0.1-0.1,0.2-0.1c0.3-0.1,0.6-0.2,1-0.4c0.1,0,0.2,0,0.2-0.1
			c0.1,0,0.2,0,0.2-0.1c0.1,0,0.3-0.1,0.5-0.1c0.1,0,0.2,0,0.2-0.1c0.1,0,0.2,0,0.2,0s0.2,0,0.2,0l0.3-0.1c0.1,0,0.2,0,0.2,0
			c0.1,0,0.2,0,0.3,0c0.1,0,0.2,0,0.3,0s0.1,0,0.2,0h0.2c0.1,0,0.2,0,0.3,0h0.1c0,0,0,0,0,0h1.3c0.6,0,1.3,0.1,1.9,0.2
			c1.2,0.2,2.3,0.6,3.4,1.1c1,0.5,1.9,1.1,2.8,1.8c0,0,0.1,0.1,0.1,0.1c0,0,0.1,0.1,0.1,0.1c0.1,0.1,0.2,0.2,0.3,0.2
			s0.2,0.2,0.3,0.2c0.1,0.1,0.2,0.2,0.2,0.3c0.9,1,1.7,2.1,2.3,3.3c0,0,0,0.1,0.1,0.1c0,0,0,0.1,0.1,0.1c0,0.1,0.1,0.2,0.1,0.2
			c0,0.1,0.1,0.2,0.1,0.2c0,0.1,0.1,0.2,0.1,0.2c0.1,0.3,0.2,0.6,0.4,1c0.2,0.5,0.3,0.9,0.4,1.3c0,0.1,0.2,0.2,0.3,0.2
			c0.2,0,0.3-0.1,0.3-0.3C488,133.8,488,133.3,488,132.8L488,132.8z"/>
	</g>
	<g>
		<rect x="570.4" y="290.1" class="st1" width="280" height="270"/>
	</g>
	<rect x="591.2" y="310.1" class="st0" width="240" height="110"/>
	<rect x="591.2" y="430.6" class="st0" width="240" height="110"/>
	<g>
		<g id="XMLID_163_" class="st5">
			<text transform="matrix(1 0 0 1 675.9481 518.2442)" class="st6 st4">tekton</text>
		</g>
		<g>
			<path d="M692.7,446.6c-0.8,0-1.4,0.5-1.6,1.2c-0.4,1.5-0.5,3-0.3,4.5c0.2,1.5,0.7,3,1.4,4.3c0.5,0.9,1,1.7,1.7,2.4
				c-0.1,0.5-0.2,1-0.2,1.4c-0.1,0.8-0.1,1.7-0.1,2.5c0,0.3,0,0.7,0.1,1c0.1,1,1,2.2,1.6,2.9c1,1.3,2.3,2.3,3.7,3.1
				c0,0.1,0,0.1,0.1,0.2c0.2,0.3,0.3,0.6,0.6,0.9c-0.5,1-0.8,2-0.9,3.1c-0.2,0.8-0.3,1.6-0.3,2.4c-0.3,0.1-0.6,0.3-0.8,0.5
				c-0.7,0.6-1.3,1.4-1.6,2.3c-0.1,0.2-0.2,0.5-0.2,0.8l-0.4-0.1l0,0.3c-0.2,1.3-0.1,2.5,0.4,3.7c-0.5,0.1-0.9,0.2-1.3,0.5
				c-0.3,0.2-0.5,0.5-0.6,0.8c-0.3,0.6-0.5,1.3-0.5,2c0,0.5,0.2,1,0.5,1.3c0.2,0.2,0.5,0.3,0.8,0.3h4.3c0.3,0.7,0.8,1.3,1.5,1.5
				c0.2,0,0.4,0.1,0.6,0.1c0.2,0,0.4,0,0.7,0c0.6,0,1.1,0,1.7,0c0.9,0,1.8,0,2.7,0c0.5,0,1-0.3,1.2-0.8c0.2,0.5,0.7,0.8,1.3,0.8
				c0.9,0,1.8,0,2.7,0c0.6,0,1.1,0,1.7,0c0.2,0,0.4,0,0.7,0c0.2,0,0.4,0,0.6-0.1c0.7-0.2,1.2-0.8,1.5-1.5h4.4c0.3,0,0.6-0.1,0.8-0.3
				c0.4-0.3,0.6-0.8,0.6-1.3c0-0.7-0.3-1.4-0.5-2c-0.4-0.9-1.1-1.3-2-1.4c0.5-1.2,0.6-2.3,0.4-3.7l0-0.3l-0.4,0.1l0-0.1
				c0,0,0-0.1,0-0.1c0.2-0.6,0.5-1.1,0.8-1.6c0.4-0.7,0.9-1.3,1.4-2c0.3-0.3,0.5-0.6,0.8-0.9c0.5-0.5,1.2-0.9,2-1
				c0.5,0,1.1,0.1,1.5,0.4c0.3,0.2,0.5,0.5,0.6,0.9c0.3,0.6,0.4,1.1,0.9,1.6c0.9,0.8,2.2,0.9,3.3,0.4c0.8-0.4,1.5-1.1,1.7-2
				c0.1-0.3,0.1-0.5,0.1-0.8c-0.2-1.7-1.2-3.2-2.5-4.3c-1.2-1-2.7-1.7-4.2-1.7c-1.4,0-2.9,0.4-4.1,1.1c-2.1,1.2-3.8,3.1-5.1,5.2
				c0-0.3-0.1-0.6-0.2-1c-0.1-0.6-0.2-1.2-0.4-1.8c-0.1-0.3-0.2-0.6-0.3-0.8c0.2-0.2,0.3-0.4,0.5-0.6c0.1-0.2,0.3-0.5,0.4-0.7
				l0.1-0.2c1.4-0.8,2.7-1.9,3.7-3.1c0.6-0.8,1.5-1.9,1.6-2.9c0-0.3,0.1-0.7,0.1-1c0-0.8,0-1.7-0.1-2.5c-0.1-0.5-0.1-0.9-0.2-1.4
				c0.6-0.7,1.2-1.5,1.7-2.4c0.7-1.3,1.2-2.8,1.4-4.3c0.2-1.5,0.1-3-0.3-4.5c-0.2-0.7-0.9-1.3-1.6-1.3c-2.9,0-5.3,1.2-7.6,2.7
				c-4.3-2.6-9.8-2.6-14.1,0C698,447.8,695.5,446.6,692.7,446.6z M692.7,448.3h0.1c1.6,0.9,3,2.6,4.1,4.4c-0.2,0.3-0.4,0.6-0.6,0.8
				c-0.8,1.2-1.4,2.4-1.8,3.8C693.2,455.6,691.6,452.4,692.7,448.3C692.7,448.3,692.7,448.3,692.7,448.3z M721.9,448.3h0.1l0,0
				c1.1,4.1-0.5,7.3-1.8,9c-0.4-1.4-1.1-2.7-1.9-3.9c-0.2-0.2-0.3-0.5-0.5-0.7C718.9,450.9,720.3,449.1,721.9,448.3z M695.1,448.6
				c1.4,0.4,2.8,1.1,4,1.9c-0.5,0.4-1,0.9-1.5,1.4c-0.2-0.4-0.5-0.8-0.8-1.2C696.3,449.9,695.7,449.2,695.1,448.6z M719.6,448.6
				c-0.7,0.6-1.3,1.3-1.8,2.1c-0.3,0.4-0.5,0.8-0.8,1.2c-0.4-0.5-0.9-0.9-1.5-1.4C716.9,449.7,718.2,449,719.6,448.6L719.6,448.6z
				 M707,448.9v4.8c-2.5,0.1-5,0.8-6.6,2.1c-1.8,1.6-2.9,4.3-2.8,5.7c0.1,1.3,2.2,2.1,4.9,2.6c-0.1,0.2-0.2,0.5-0.3,0.8
				c-0.1,0.4-0.1,0.8,0,1.2c-0.9-0.1-1.9-0.3-2.8-0.4c-1.5-0.3-2.9-0.7-4.3-1.3c-0.1-0.1-0.1-0.3-0.1-0.4c0,0-0.6-5.2,2.3-9.6
				C699.7,450.8,703.4,449,707,448.9L707,448.9z M707.7,448.9c3.6,0.1,7.2,1.8,9.5,5.2c3,4.4,2.4,9.7,2.4,9.7c0,0.1,0,0.3-0.1,0.4
				c-1.4,0.5-2.8,1-4.3,1.3c-0.8,0.2-1.7,0.3-2.8,0.4c0.1-0.4,0.1-0.8,0-1.2c0-0.3-0.1-0.5-0.3-0.8c2.7-0.4,4.8-1.3,4.9-2.6
				c0.1-1.4-1.1-4.1-2.8-5.7c-1.5-1.3-4-2.1-6.6-2.1V448.9z M706.1,450.2c-0.2,0-0.4,0.2-0.4,0.4c0,0,0,0,0,0c0,0.4,0.4,0.5,0.7,0.3
				c0.2-0.2,0.2-0.4,0-0.6C706.3,450.3,706.2,450.2,706.1,450.2z M708.6,450.2c-0.2,0-0.4,0.2-0.4,0.4c0,0.4,0.4,0.5,0.7,0.3
				c0.2-0.2,0.2-0.4,0-0.6C708.8,450.3,708.7,450.2,708.6,450.2z M706.1,452c-0.2,0-0.4,0.2-0.4,0.4c0,0.4,0.4,0.5,0.7,0.3
				C706.7,452.4,706.5,452,706.1,452L706.1,452z M708.6,452c-0.2,0-0.4,0.2-0.4,0.4C708.4,452.4,708.6,452.2,708.6,452z
				 M702.1,458.9c0.6,0,1.2,0.3,1.6,0.7c0.4,0.5,0.6,1.1,0.6,1.7c0,0.2-0.2,0.4-0.4,0.4s-0.4-0.2-0.4-0.4c0-0.4-0.1-0.9-0.4-1.2
				c-0.2-0.3-0.6-0.5-1-0.5c-0.2,0-0.5,0.1-0.7,0.2c-0.2,0.2-0.4,0.4-0.5,0.6c-0.1,0.2-0.3,0.3-0.5,0.2c-0.2-0.1-0.3-0.3-0.2-0.5
				l0,0c0.2-0.4,0.5-0.7,0.8-1C701.3,459,701.7,458.9,702.1,458.9z M712.6,458.9c0.4,0,0.8,0.1,1.1,0.4c0.3,0.2,0.6,0.6,0.8,1
				c0.1,0.2,0,0.4-0.2,0.5l0,0c-0.2,0.1-0.4,0-0.5-0.2c-0.1-0.3-0.3-0.5-0.5-0.6c-0.2-0.1-0.4-0.2-0.7-0.2c-0.4,0-0.7,0.2-1,0.5
				c-0.3,0.3-0.4,0.8-0.4,1.2c0,0.2-0.2,0.4-0.4,0.4c-0.2,0-0.4-0.2-0.4-0.4c0-0.6,0.2-1.2,0.6-1.7
				C711.4,459.1,712,458.9,712.6,458.9z M707.3,462.9L707.3,462.9c1.8,0,4,0.8,4.2,2.1c0.2,1.3-0.5,2.1-1.6,2.6
				c-1.6,0.6-2.1-0.2-2.4-0.7c-0.1-0.2-0.2-0.4-0.2-0.4h0c0,0-0.1,0.1-0.2,0.4c-0.3,0.4-0.8,1.1-1.9,0.9c-1.3-0.4-2.3-1.3-2.1-2.8
				C703.4,463.7,705.6,462.9,707.3,462.9z M707.3,463.5c-1.1,0-2.4,0.3-2.5,1c-0.2,1.1,1.4,1.7,2.5,1.6c1.1,0,2.7-0.5,2.5-1.7
				C709.7,463.8,708.4,463.5,707.3,463.5z M695.6,465.2c1.2,0.4,2.4,0.8,3.7,1c1,0.2,2.1,0.4,3.1,0.5c0,0.1,0.1,0.2,0.2,0.3
				c0.5,0.8,1.3,1.4,2.3,1.7c-0.5,0.2-0.9,0.5-1,1c0,0.2,0,0.4,0.1,0.6l0,0c-0.7-0.1-1.5-0.3-2.2-0.6c-2.2-0.8-4.1-2-5.5-3.8
				C696,465.7,695.8,465.5,695.6,465.2z M719,465.2c-0.1,0.2-0.3,0.4-0.5,0.6c-0.8,1-1.7,1.9-2.8,2.6c-1.5,1-3.2,1.6-5,2
				c0.1-0.2,0.1-0.4,0.1-0.7c-0.1-0.5-0.5-0.8-1-1c0.9-0.3,1.8-0.9,2.3-1.7c0.1-0.1,0.1-0.2,0.1-0.3c1.1-0.1,2.1-0.3,3.1-0.5
				C716.6,466,717.9,465.6,719,465.2z M707.4,469.3c1.4,0,2.7,0.3,2.5,0.8c-0.1,0.3-0.5,0.4-0.9,0.6c-0.5,0.1-1.1,0.1-1.6,0.1
				c-0.5,0-1.1-0.1-1.6-0.1c-0.4-0.1-0.8-0.4-0.9-0.6C704.6,469.5,706,469.3,707.4,469.3z M725.1,470.2c0.9,0,1.7,0.3,2.6,0.8
				c-0.8,0.2-1.5,0.9-1.9,1.7c-0.1,0.3-0.2,0.5-0.2,0.8c-0.4-0.2-0.9-0.4-1.4-0.4c0,0,0-0.1-0.1-0.1c-0.5-0.7-0.6-1.9,0-2.5
				c0,0,0.1-0.1,0.1-0.1c0.1-0.1,0.1-0.1,0.2-0.1C724.6,470.2,724.9,470.2,725.1,470.2z M723.1,470.5c-0.2,0.4-0.3,0.9-0.2,1.3
				c0,0.5,0.1,1,0.4,1.4c-0.4,0.1-0.9,0.3-1.3,0.5c0,0-0.1,0-0.1-0.1c-0.3-0.1-0.6-0.4-0.8-0.7c-0.2-0.3-0.4-1-0.2-1.3l0,0
				c0.3-0.2,0.5-0.3,0.8-0.5C722.1,470.9,722.6,470.7,723.1,470.5z M701.1,470.9c0.3,0.1,0.7,0.2,1,0.3c1.8,1,3.9,1.4,6,1.3
				c0.9-0.1,1.8-0.2,2.6-0.5c0.7-0.2,1.3-0.5,1.9-0.8c0.3-0.1,0.7-0.2,1-0.3c-0.9,1.2-2.2,2.1-3.6,2.5c1.3-0.2,2.7-0.5,3.8-1.1
				c0.6,1.5,0.9,3.4,0.6,6c-0.1,0.6-0.2,1.2-0.3,1.8c-1.3-0.8-3.2-0.2-4.6,0.7c-0.2-2.6-0.7-4.5-1-5.2c-0.2-0.6-1-0.5-1,0.1
				c0.1,0.3,0.2,0.7,0.2,1c0.1,0.5,0.2,1.1,0.3,1.6c0.1,0.9,0.3,1.8,0.3,2.7c0,0.2,0,0.4,0,0.6c-0.8,0.1-1.7,0.1-2.5,0
				c0-0.2,0-0.4,0-0.6c0-0.4,0.1-0.7,0.1-1.1c0.1-0.6,0.1-1.1,0.2-1.7c0.1-0.6,0.2-1.1,0.3-1.7c0-0.2,0.1-0.5,0.2-0.7
				c0-0.6-0.3-0.6-0.5-0.6c-0.2,0-0.3,0.2-0.4,0.5c-0.5,1.6-0.8,3.3-0.9,5.1c-1.6-1-2.8-1.4-4.6-0.5c-0.1-0.6-0.2-1.2-0.3-1.8
				c-0.3-2.8,0.1-4.9,0.8-6.4c1.1,0.7,2.4,1.2,3.8,1.4C703.1,472.9,701.9,472,701.1,470.9z M728.4,471.8c0.2,0,0.3,0.1,0.5,0.2
				c0,0,0,0,0,0c0.9,0.9,1.5,2,1.7,3.1c0.1,1.3-2,2.3-2.9,1.4c-0.5-0.5-0.5-1.5-1.3-2.3c0,0,0-0.1,0-0.1
				C726.4,472.9,727.2,471.7,728.4,471.8z M720,472.3c0.1,0.4,0.2,0.7,0.4,1c0.2,0.4,0.5,0.7,0.8,0.9c-0.1,0.1-0.2,0.2-0.3,0.2
				c-0.3,0.3-0.5,0.6-0.8,0.9c-0.1,0-0.1,0-0.2,0c-0.3,0-0.6-0.1-0.9-0.3c-0.3-0.2-0.6-0.7-0.6-1C718.9,473.4,719.4,472.8,720,472.3
				z M717.8,474.8c0.2,0.3,0.4,0.6,0.7,0.9c0.3,0.2,0.6,0.4,1,0.5c-0.6,0.8-1.1,1.6-1.6,2.5c-0.3-0.5-0.7-1-1.1-1.3
				c-0.1-0.1-0.3-0.2-0.4-0.3C716.8,476.3,717.2,475.5,717.8,474.8z M715.6,477.8c1.1,0.5,1.8,1.7,1.9,2.9c-0.9,0.3-1.8,0.7-2.7,1.1
				c0.3-1.1,0.5-2.3,0.7-3.4C715.6,478.2,715.6,478,715.6,477.8z M698.6,477.8c0,0.2,0,0.4,0.1,0.6c0.1,1.2,0.4,2.3,0.7,3.4
				c-0.8-0.4-1.7-0.8-2.6-1.1C696.9,479.5,697.5,478.3,698.6,477.8L698.6,477.8z M702.1,480.9c1,0,1.9,0.5,2.6,1.1
				c0,2.7,0.6,5.2,1,5.7c0.4,0.5,0.2,1.4,0.2,1.4s-4.8,0.1-5.2,0c-0.5-0.1-1-1.5-0.2-2.3c0.4-0.4,0.9-0.5,1.3-0.5
				c0.9,0.2,1.5,0.8,2.2,1.6c-0.1-1.4-0.9-1.7-1.5-2.1c-0.2-0.1-0.2-0.2-0.3-0.3c-0.7-1.3-1.2-2.7-1.6-4.2
				C700.9,481,701.5,480.8,702.1,480.9z M712.1,480.9c0.6,0,1.2,0.1,1.7,0.5c-0.4,1.5-0.9,2.9-1.6,4.2c-0.1,0.1-0.2,0.3-0.3,0.3
				c-0.6,0.3-1.3,0.7-1.5,2.1c0.6-0.8,1.2-1.4,2.2-1.6c0.5,0,1,0.1,1.3,0.5c0.8,0.8,0.2,2.2-0.3,2.3c-0.5,0.1-5.2,0-5.2,0
				s-0.2-0.9,0.2-1.4c0.4-0.5,0.9-3,1-5.7C710.2,481.4,711.2,480.9,712.1,480.9z M696.2,481.6c0.9,0.2,2.3,0.9,3.5,1.5
				c0.3,0.8,0.6,1.5,0.9,2.3c-0.4,0.1-0.8,0.4-1.1,0.7c-0.4,0.4-0.7,1-0.7,1.7h-4.4c-0.4-0.4,0.1-3.7,4.4-1.8
				C697.8,485.2,696.2,484.2,696.2,481.6z M718,481.6c0,2.6-1.6,3.6-2.5,4.4c4.3-2,4.8,1.4,4.4,1.7h-4.5c0-1.1-0.8-2-1.9-2.3
				c0.3-0.7,0.6-1.5,0.9-2.2C715.6,482.5,717.1,481.8,718,481.6z M708.5,482.3c0,1.1-0.1,2.1-0.3,3.2c-0.1,0.4-0.3,1.3-0.4,1.6
				c-0.1,0.1-0.1,0.2-0.1,0.2c-0.3,0-0.5,0-0.8,0c-0.1-0.1-0.1-0.2-0.2-0.3c-0.1-0.2-0.1-0.3-0.2-0.5c-0.1-0.5-0.2-1-0.3-1.5
				c-0.2-0.9-0.2-1.8-0.3-2.8C706.7,482.5,707.6,482.5,708.5,482.3z"/>
		</g>
	</g>
	<g>
		<g id="XMLID_161_" class="st5">
			<text transform="matrix(1 0 0 1 657.196 401.5682)" class="st6 st7">kubebb内核</text>
		</g>
		<g>
			<path class="st19" d="M734.9,360.2v-20.6c0-2.1-1.1-4-2.9-5.1l-17.9-10.3c-1.8-1-4-1-5.9,0l-17.9,10.3c-1.8,1-2.9,3-2.9,5.1v20.6
				c0,2.1,1.1,4,2.9,5.1l17.9,10.3c1.8,1,4,1,5.9,0l17.9-10.3C733.8,364.2,734.9,362.3,734.9,360.2"/>
			<g>
				<defs>
					<path id="SVGID_3_" d="M698.8,358.5l22.9,12.7l10.3-5.9c1.8-1,2.9-3,2.9-5.1v-15.5l-11.4-7.4L698.8,358.5z"/>
				</defs>
				<clipPath id="SVGID_4_">
					<use xlink:href="#SVGID_3_"  style="overflow:visible;"/>
				</clipPath>
				
					<linearGradient id="SVGID_5_" gradientUnits="userSpaceOnUse" x1="328.8751" y1="751.8732" x2="329.4034" y2="751.8732" gradientTransform="matrix(-38.5469 -18.0126 -18.0126 38.5469 26948.4395 -22699.0293)">
					<stop  offset="0" style="stop-color:#4461EB"/>
					<stop  offset="0.5967" style="stop-color:#222DC3"/>
					<stop  offset="0.9985" style="stop-color:#0908A6"/>
					<stop  offset="1" style="stop-color:#0908A6"/>
				</linearGradient>
				<polygon class="st20" points="728.5,385.1 685.8,365.1 705.3,323.4 748,343.3 				"/>
			</g>
			<polygon class="st1" points="711.3,337.3 705.1,333.6 699,337.4 705,340.9 			"/>
			<g>
				<defs>
					<path id="SVGID_6_" d="M698.8,358.5L698.8,358.5L698.8,358.5 M698.8,358.5l6.4,3.7l-0.3-21.4l-6-3.4
						C699,337.4,698.8,358.4,698.8,358.5"/>
				</defs>
				<clipPath id="SVGID_7_">
					<use xlink:href="#SVGID_6_"  style="overflow:visible;"/>
				</clipPath>
				
					<linearGradient id="SVGID_8_" gradientUnits="userSpaceOnUse" x1="338.3579" y1="753.7938" x2="338.8862" y2="753.7938" gradientTransform="matrix(0 48.9282 48.9282 0 -36179.7266 -16214.8672)">
					<stop  offset="0" style="stop-color:#D4E4FF"/>
					<stop  offset="1" style="stop-color:#4478FF"/>
				</linearGradient>
				<rect x="698.8" y="337.4" class="st21" width="6.4" height="24.8"/>
			</g>
			<g>
				<defs>
					<polygon id="SVGID_9_" points="705,340.9 705.3,362.2 711.3,358.5 711.3,337.3 					"/>
				</defs>
				<clipPath id="SVGID_10_">
					<use xlink:href="#SVGID_9_"  style="overflow:visible;"/>
				</clipPath>
				
					<linearGradient id="SVGID_11_" gradientUnits="userSpaceOnUse" x1="350.8058" y1="734.0082" x2="351.3341" y2="734.0082" gradientTransform="matrix(11.8752 0 0 -11.8752 -3460.8948 9066.252)">
					<stop  offset="0" style="stop-color:#4461EB"/>
					<stop  offset="0.9996" style="stop-color:#4424EB"/>
					<stop  offset="1" style="stop-color:#4424EB"/>
				</linearGradient>
				<rect x="705" y="337.3" class="st22" width="6.3" height="24.9"/>
			</g>
			<polygon class="st1" points="717.4,333.5 711.3,337.3 717.4,340.9 723.6,337.2 			"/>
			<g>
				<defs>
					<path id="SVGID_12_" d="M717.4,340.9c0,0-0.2,6.8-0.1,6.9l6.3-3.4v-7.1L717.4,340.9z"/>
				</defs>
				<clipPath id="SVGID_13_">
					<use xlink:href="#SVGID_12_"  style="overflow:visible;"/>
				</clipPath>
				
					<linearGradient id="SVGID_14_" gradientUnits="userSpaceOnUse" x1="343.8739" y1="758.5063" x2="344.4022" y2="758.5063" gradientTransform="matrix(0 20.7205 20.7205 0 -14996.2471 -6786.7476)">
					<stop  offset="0" style="stop-color:#4461EB"/>
					<stop  offset="0.9996" style="stop-color:#4424EB"/>
					<stop  offset="1" style="stop-color:#4424EB"/>
				</linearGradient>
				<rect x="717.2" y="337.2" class="st23" width="6.4" height="10.5"/>
			</g>
			<g>
				<defs>
					<polygon id="SVGID_15_" points="711.3,344.6 717.3,347.7 717.3,340.8 711.3,337.3 					"/>
				</defs>
				<clipPath id="SVGID_16_">
					<use xlink:href="#SVGID_15_"  style="overflow:visible;"/>
				</clipPath>
				
					<linearGradient id="SVGID_17_" gradientUnits="userSpaceOnUse" x1="343.9511" y1="758.8469" x2="344.4794" y2="758.8469" gradientTransform="matrix(0 20.5463 20.5463 0 -14877.2324 -6728.3799)">
					<stop  offset="0" style="stop-color:#D4E4FF"/>
					<stop  offset="1" style="stop-color:#4478FF"/>
				</linearGradient>
				<rect x="711.3" y="337.3" class="st24" width="6.1" height="10.4"/>
			</g>
			<polygon class="st1" points="711.2,344.6 704.9,347.9 711,351.5 717.3,347.7 			"/>
			<g>
				<defs>
					<path id="SVGID_18_" d="M711,351.5c0,0-0.2,6.8-0.1,6.9l6.3-3.9l0-6.8L711,351.5z"/>
				</defs>
				<clipPath id="SVGID_19_">
					<use xlink:href="#SVGID_18_"  style="overflow:visible;"/>
				</clipPath>
				
					<linearGradient id="SVGID_20_" gradientUnits="userSpaceOnUse" x1="343.3271" y1="758.6846" x2="343.8553" y2="758.6846" gradientTransform="matrix(0 20.9381 20.9381 0 -15171.3848 -6839.6362)">
					<stop  offset="0" style="stop-color:#4461EB"/>
					<stop  offset="0.9996" style="stop-color:#4424EB"/>
					<stop  offset="1" style="stop-color:#4424EB"/>
				</linearGradient>
				<rect x="710.8" y="347.7" class="st25" width="6.5" height="10.6"/>
			</g>
			<g>
				<defs>
					<polygon id="SVGID_21_" points="704.9,355.2 710.9,358.3 711,351.4 704.9,347.9 					"/>
				</defs>
				<clipPath id="SVGID_22_">
					<use xlink:href="#SVGID_21_"  style="overflow:visible;"/>
				</clipPath>
				
					<linearGradient id="SVGID_23_" gradientUnits="userSpaceOnUse" x1="343.4903" y1="759.1234" x2="344.0186" y2="759.1234" gradientTransform="matrix(0 20.5463 20.5463 0 -14889.2754 -6708.3091)">
					<stop  offset="0" style="stop-color:#D4E4FF"/>
					<stop  offset="1" style="stop-color:#4478FF"/>
				</linearGradient>
				<rect x="704.9" y="347.9" class="st26" width="6.1" height="10.4"/>
			</g>
			<polygon class="st1" points="717.2,354.4 710.9,358.3 717,361.8 723.2,358.2 			"/>
			<g>
				<defs>
					<polygon id="SVGID_24_" points="710.9,365.2 716.9,368.5 717,361.8 710.9,358.3 					"/>
				</defs>
				<clipPath id="SVGID_25_">
					<use xlink:href="#SVGID_24_"  style="overflow:visible;"/>
				</clipPath>
				
					<linearGradient id="SVGID_26_" gradientUnits="userSpaceOnUse" x1="343.2234" y1="759.0536" x2="343.7516" y2="759.0536" gradientTransform="matrix(0 20.1226 20.1226 0 -14560.1729 -6547.0352)">
					<stop  offset="0" style="stop-color:#D4E4FF"/>
					<stop  offset="1" style="stop-color:#4478FF"/>
				</linearGradient>
				<rect x="710.9" y="358.3" class="st27" width="6.1" height="10.2"/>
			</g>
			<g>
				<defs>
					<polygon id="SVGID_27_" points="717,361.8 717,368.5 722.9,364.7 723.2,358.2 					"/>
				</defs>
				<clipPath id="SVGID_28_">
					<use xlink:href="#SVGID_27_"  style="overflow:visible;"/>
				</clipPath>
				
					<linearGradient id="SVGID_29_" gradientUnits="userSpaceOnUse" x1="346.8271" y1="763.5779" x2="347.3554" y2="763.5779" gradientTransform="matrix(-0.6004 13.6896 13.6896 0.6004 -9524.5059 -4847.5894)">
					<stop  offset="0" style="stop-color:#4461EB"/>
					<stop  offset="0.9996" style="stop-color:#4424EB"/>
					<stop  offset="1" style="stop-color:#4424EB"/>
				</linearGradient>
				<polygon class="st28" points="723.6,358.2 723.2,368.8 716.5,368.5 717,357.9 				"/>
			</g>
		</g>
	</g>
	<g>
		<rect x="890.2" y="290.1" class="st1" width="310" height="270"/>
	</g>
	<rect x="910.1" y="310.1" class="st29" width="270" height="230"/>
	<g class="st30">
		<g id="XMLID_173_">
			<line id="XMLID_175_" class="st19" x1="1039.8" y1="540.1" x2="1039.8" y2="540.1"/>
			<path id="XMLID_174_" class="st19" d="M1127.4,439.8c-3.9-23.9-24.8-42.3-49.8-42.3c-25,0-45.9,18.4-49.8,42.3
				c-24.2,3.7-42.7,24.7-42.7,49.9c0,26.4,20.4,48.1,46.3,50.3l2.2-16.7c-17.6-1-31.7-15.7-31.7-33.5c0-18.5,14.9-33.5,33.4-33.6
				h8.6l0.1-8.3c0.1-18.4,15.2-33.4,33.6-33.4c18.4,0,33.5,15,33.6,33.4l0.1,8.3h8.6c18.4,0.1,33.4,15.2,33.4,33.6
				c0,17.7-14.1,32.5-31.7,33.5l2.2,16.7c25.8-2.2,46.3-24.1,46.3-50.2C1170.1,464.5,1151.6,443.6,1127.4,439.8z"/>
		</g>
		<g id="XMLID_32_">
			<path id="XMLID_170_" class="st31" d="M1098.7,540.1h16.8l-10.5-79.8h-14.7l1.8,16.8h-28.8l1.8-16.8h-14.7l-10.5,79.8h16.8
				l1.8-16.8h38.5L1098.7,540.1z M1060.1,506.5l1.8-16.8h31.4l1.8,16.8H1060.1z"/>
		</g>
	</g>
	<g>
		<rect x="20.2" y="290.1" class="st1" width="510" height="270"/>
	</g>
	<rect x="40.2" y="310.1" class="st0" width="470" height="230"/>
	<g id="XMLID_147_" class="st2">
		<text transform="matrix(1 0 0 1 231.1857 523.327)" class="st3 st4">底座 Kit</text>
	</g>
	<path class="st1" d="M267.6,371.1H53c-1.4,0-2.5-1.1-2.5-2.5v-45.9c0-1.4,1.1-2.5,2.5-2.5h214.6c1.4,0,2.5,1.1,2.5,2.5v45.9
		C270.1,370,269,371.1,267.6,371.1z"/>
	<g>
		<g id="XMLID_128_" class="st5">
			<text transform="matrix(1 0 0 1 145.6452 351.5531)" class="st6 st7">nginx</text>
		</g>
		<path class="st32" d="M120.5,327.6l-15.6,9v18l15.6,9l15.6-9v-18L120.5,327.6z M129.5,352.5c0,1.1-1,1.9-2.3,1.9
			c-0.9,0-2-0.4-2.7-1.2l-9-10.7v10c0,1.1-0.9,1.9-1.9,1.9h-0.1c-1.1,0-1.9-0.9-1.9-1.9v-13.8c0-1.1,0.9-1.9,2.3-1.9
			c1,0,2.1,0.4,2.7,1.2l9,10.7v-10c0-1.1,0.9-1.9,1.9-1.9h0.1c1.1,0,1.9,0.9,1.9,1.9L129.5,352.5L129.5,352.5z"/>
	</g>
	<path class="st1" d="M497.8,371.3H282.9c-1.4,0-2.5-1.1-2.5-2.5v-45.9c0-1.4,1.1-2.5,2.5-2.5h214.9c1.4,0,2.5,1.1,2.5,2.5v45.9
		C500.4,370.2,499.2,371.3,497.8,371.3z"/>
	<g>
		<g id="XMLID_126_" class="st5">
			<text transform="matrix(1 0 0 1 396.8216 352.7411)" class="st6 st7">dex</text>
		</g>
		<g>
			<path class="st33" d="M380.5,345c0,0,4.3-1.7,5.1-6.6c-0.5-2.3-5.2-8.4-11.5-10c0,0,2.7,3.9,2.3,8.6
				C376.5,336.9,380.2,339.9,380.5,345z"/>
			<path class="st33" d="M371.8,334.7c0,0-0.3-4.5-4.8-6.9c-2.2-0.3-9.5,2.3-13,7.8c0,0,4.7-1.4,8.9,0.4
				C363,336.2,367,333.3,371.8,334.7z"/>
			<path class="st33" d="M359.4,339.8c0,0-4.4-1.2-8,2.5c-0.9,2.1-0.6,9.7,3.5,14.8c0,0,0.1-4.8,3.1-8.3
				C357.9,348.6,356.6,343.9,359.4,339.8z"/>
			<path class="st33" d="M360.3,353.1c0,0-2.5,3.9-0.1,8.3c1.8,1.6,9.1,3.8,15.2,1.3c0,0-4.5-1.6-7-5.6
				C368.3,357.3,363.5,357.2,360.3,353.1z"/>
			<path class="st33" d="M373.4,356.5c0,0,3,3.5,7.9,2.7c2.1-1.2,6.4-7.5,6-14c0,0-2.9,3.9-7.4,4.9
				C379.7,350,378.2,354.7,373.4,356.5z"/>
			<circle class="st34" cx="369.1" cy="345.9" r="5.8"/>
		</g>
	</g>
	<path class="st1" d="M267.6,433H53c-1.4,0-2.5-1.1-2.5-2.5v-45.9c0-1.4,1.1-2.5,2.5-2.5h214.6c1.4,0,2.5,1.1,2.5,2.5v45.9
		C270.1,431.9,269,433,267.6,433z"/>
	<path class="st1" d="M267.9,494H53c-1.4,0-2.5-1.1-2.5-2.5v-45.9c0-1.4,1.1-2.5,2.5-2.5h214.9c1.4,0,2.5,1.1,2.5,2.5v45.9
		C270.5,492.8,269.3,494,267.9,494z"/>
	<path class="st1" d="M497.8,494H282.9c-1.4,0-2.5-1.1-2.5-2.5v-45.9c0-1.4,1.1-2.5,2.5-2.5h214.9c1.4,0,2.5,1.1,2.5,2.5v45.9
		C500.4,492.8,499.2,494,497.8,494z"/>
	<path class="st1" d="M497.8,433.2H282.9c-1.4,0-2.5-1.1-2.5-2.5v-45.9c0-1.4,1.1-2.5,2.5-2.5h214.9c1.4,0,2.5,1.1,2.5,2.5v45.9
		C500.4,432.1,499.2,433.2,497.8,433.2z"/>
	<g>
		<g id="XMLID_90_" class="st5">
			<text transform="matrix(1 0 0 1 108.5014 475.6091)" class="st6 st7">cert-manager</text>
		</g>
		<g>
			<defs>
				<rect id="SVGID_30_" x="62.5" y="451.1" width="36" height="34.8"/>
			</defs>
			<clipPath id="SVGID_31_">
				<use xlink:href="#SVGID_30_"  style="overflow:visible;"/>
			</clipPath>
			<g class="st35">
				<path class="st36" d="M98.5,468.5c0,1.9-1.2,3.6-1.7,5.3c-0.6,1.8-0.6,3.8-1.7,5.3c-1.1,1.5-3,2.2-4.5,3.3
					c-1.5,1.1-2.7,2.7-4.5,3.3c-1.7,0.6-3.7,0-5.6,0c-1.9,0-3.9,0.6-5.6,0c-1.8-0.6-3-2.2-4.5-3.3c-1.5-1.1-3.4-1.8-4.5-3.3
					c-1.1-1.5-1.1-3.5-1.7-5.3c-0.6-1.7-1.7-3.4-1.7-5.3s1.2-3.6,1.7-5.3c0.6-1.8,0.6-3.8,1.7-5.3c1.1-1.5,3-2.2,4.5-3.3
					c1.5-1.1,2.7-2.7,4.5-3.3c1.7-0.6,3.7,0,5.6,0c1.9,0,3.9-0.6,5.6,0c1.8,0.6,3,2.2,4.5,3.3c1.5,1.1,3.4,1.8,4.5,3.3
					c1.1,1.5,1.1,3.5,1.7,5.3C97.3,464.9,98.5,466.6,98.5,468.5L98.5,468.5z"/>
				<path class="st37" d="M66,466.5c2.1,0,2.1,1,4.2,1c2.1,0,2.1-1,4.2-1c2.1,0,2.1,1,4.2,1c2.1,0,2.1-1,4.2-1c2.1,0,2.1,1,4.2,1
					s2.1-1,4.2-1c2.1,0,2.1,1,4.2,1"/>
				<path class="st37" d="M66,468.4c2.1,0,2.1,1,4.2,1c2.1,0,2.1-1,4.2-1c2.1,0,2.1,1,4.2,1c2.1,0,2.1-1,4.2-1c2.1,0,2.1,1,4.2,1
					s2.1-1,4.2-1c2.1,0,2.1,1,4.2,1"/>
				<path class="st37" d="M66,470.8c2.1,0,2.1,1,4.2,1c2.1,0,2.1-1,4.2-1c2.1,0,2.1,1,4.2,1c2.1,0,2.1-1,4.2-1c2.1,0,2.1,1,4.2,1
					s2.1-1,4.2-1c2.1,0,2.1,1,4.2,1"/>
				<path class="st1" d="M80.5,453.2c-8.4,0-15.3,6.9-15.3,15.3c0,8.5,6.8,15.3,15.3,15.3c8.4,0,15.3-6.8,15.3-15.3
					C95.8,460,88.9,453.2,80.5,453.2L80.5,453.2z M80.5,482.5c-7.7,0-14-6.3-14-14c0-7.7,6.3-14,14-14s14,6.3,13.9,14
					C94.5,476.2,88.2,482.5,80.5,482.5L80.5,482.5z"/>
				<path class="st1" d="M73.4,475.4c0-0.2-0.3-0.3-0.5-0.3c-0.3,0-0.5,0.1-0.8,0.1c0.1-0.3,0.2-0.6,0.3-0.8
					c0.1-0.2-0.1-0.3-0.2-0.5c-0.1-0.1-0.2,0-0.3,0.1c-0.4,0.3-0.8,0.7-1.2,1c-0.2,0.2,0,0.2,0,0.4c0.1,0.1,0.2,0.2,0.3,0.1
					c0.2-0.2,0.4-0.3,0.6-0.5c0,0,0,0,0,0c0,0.1-0.1,0.2-0.1,0.3c-0.1,0.2,0.1,0.4,0.3,0.4c0.1,0,0.2,0,0.3,0
					c-0.2,0.2-0.4,0.3-0.6,0.5c-0.2,0.1-0.1,0.2,0,0.3c0.1,0.1,0.1,0.3,0.3,0.1c0.5-0.4,0.9-0.7,1.3-1.1
					C73.4,475.5,73.5,475.5,73.4,475.4L73.4,475.4z"/>
				<path class="st1" d="M81.6,458.9c0.3,0.1,0.4,0.1,0.5-0.3c0-0.1,0-0.1,0-0.2c0-0.1,0-0.2,0.1-0.1c0.1,0,0.2,0,0.2,0.1
					c0,0.1,0.1,0.2,0.1,0.4c0.1,0.3,0.2,0.4,0.5,0.4c0.1,0,0.2,0,0.1-0.2c-0.1-0.2-0.1-0.4-0.2-0.6c0-0.1,0-0.1,0.1-0.2
					c0.3-0.1,0.4-0.4,0.4-0.6c0-0.3-0.2-0.6-0.6-0.7c-0.3-0.1-0.6-0.1-0.9-0.2c-0.1,0-0.2,0-0.2,0.1c-0.1,0.6-0.2,1.2-0.3,1.8
					C81.5,458.8,81.5,458.9,81.6,458.9L81.6,458.9z M82.5,457.4c0.2,0,0.5,0.1,0.5,0.3c0,0.1-0.1,0.2-0.3,0.2
					c-0.1-0.1-0.3,0.1-0.4-0.2C82.3,457.6,82.3,457.4,82.5,457.4L82.5,457.4z"/>
				<path class="st1" d="M78.4,478.1c-0.1,0-0.3-0.1-0.3,0.1c-0.1,0.3-0.1,0.5-0.2,0.8c-0.1-0.4-0.2-0.7-0.3-1
					c-0.1-0.2-0.3-0.2-0.4-0.2c-0.2,0-0.1,0.1-0.2,0.2c-0.1,0.5-0.3,1-0.4,1.5c-0.1,0.2,0.1,0.2,0.2,0.3c0.1,0,0.3,0.1,0.3-0.1
					c0.1-0.3,0.1-0.5,0.2-0.8c0,0.1,0.1,0.1,0.1,0.2c0.1,0.3,0.2,0.6,0.3,0.9c0.1,0.2,0.3,0.2,0.4,0.2c0.2,0,0.1-0.1,0.1-0.2
					c0.1-0.5,0.3-1,0.4-1.5C78.7,478.1,78.5,478.1,78.4,478.1L78.4,478.1z"/>
				<path class="st1" d="M90.2,475c-0.2,0-0.3-0.1-0.5-0.1c-0.1,0-0.2-0.1-0.2-0.2c0-0.3-0.3-0.6-0.7-0.6c-0.2,0-0.4,0.1-0.6,0.3
					c-0.2,0.2-0.3,0.4-0.5,0.6c-0.1,0.1-0.1,0.2,0,0.3c0.4,0.3,0.9,0.7,1.3,1c0.1,0.1,0.2,0.1,0.3,0c0.2-0.3,0.2-0.3-0.1-0.5
					c-0.1,0-0.1-0.1-0.2-0.1c0,0-0.1-0.1-0.1-0.1c0-0.1,0.1-0.2,0.2-0.1c0.1,0,0.2,0,0.4,0.1c0.3,0.1,0.4,0,0.6-0.2
					C90.4,475.1,90.4,475,90.2,475L90.2,475z M88.7,475.3c0,0-0.3-0.2-0.3-0.3c0-0.1,0.3-0.4,0.4-0.4c0.1,0,0.2,0.1,0.2,0.2
					C89,474.9,88.8,475.3,88.7,475.3L88.7,475.3z"/>
				<path class="st1" d="M78,459c0,0.1,0,0.2,0.2,0.2c0.4-0.1,0.9-0.1,1.3-0.2c0.2,0,0.1-0.2,0.1-0.3c0-0.1-0.1-0.2-0.2-0.1
					c-0.2,0-0.5,0.1-0.7,0.1c-0.1,0-0.2,0-0.2-0.1c0-0.1,0-0.2,0.1-0.2c0.2,0,0.4-0.1,0.6-0.1c0.2,0,0.2-0.2,0.2-0.3
					c0-0.1-0.1-0.3-0.2-0.2c-0.2,0-0.4,0.1-0.6,0.1c-0.1,0-0.2,0-0.2-0.1c0-0.2,0.1-0.2,0.2-0.2c0.2,0,0.4-0.1,0.6-0.1
					c0.1,0,0.2-0.1,0.2-0.2c0-0.1,0-0.3-0.3-0.3c-0.4,0.1-0.8,0.1-1.2,0.2c-0.2,0-0.2,0.1-0.2,0.3C77.8,457.8,77.9,458.4,78,459
					L78,459z"/>
				<path class="st1" d="M84.6,478.3c-0.1,0.1-0.3,0.1-0.4,0.2c-0.1,0-0.2,0.1-0.1,0.2c0.1,0.1,0,0.3,0.3,0.2c0,0,0.1-0.1,0.1,0
					s0,0.1,0,0.2c-0.1,0.1-0.2,0.2-0.3,0.2s-0.3,0-0.3-0.2c-0.1-0.2-0.2-0.4-0.2-0.5c0-0.3,0.2-0.5,0.5-0.4c0.2,0.1,0.4,0,0.6,0
					c0.1,0,0.1-0.1,0.1-0.2c-0.2-0.2-0.4-0.3-0.6-0.3c-0.3,0-0.5,0.1-0.7,0.3c-0.2,0.2-0.3,0.5-0.2,0.8c0.1,0.4,0.2,0.9,0.7,1
					c0.4,0.1,0.7,0,1-0.3c0.3-0.3,0.2-0.7,0.1-1C84.8,478.3,84.7,478.3,84.6,478.3z"/>
				<path class="st1" d="M87.6,477.4c-0.2,0.1-0.4,0.3-0.6,0.4c-0.1,0.1-0.1,0.1-0.2,0c-0.1-0.1-0.1-0.1,0-0.2
					c0.2-0.1,0.3-0.2,0.5-0.3c0.1,0,0.1-0.1,0.1-0.2c0-0.1-0.1-0.2-0.2-0.3c-0.1-0.1-0.2,0-0.2,0.1c-0.1,0.1-0.3,0.2-0.4,0.3
					c-0.1,0.1-0.1,0-0.2-0.1c-0.1-0.1-0.1-0.1,0-0.2c0.2-0.1,0.4-0.3,0.5-0.4c0.2-0.1,0.1-0.2,0-0.3c-0.1-0.1-0.1-0.2-0.3-0.1
					c-0.3,0.2-0.6,0.5-1,0.7c-0.1,0.1-0.1,0.1,0,0.2c0.3,0.5,0.7,0.9,1,1.4c0.1,0.1,0.1,0.1,0.2,0c0.3-0.2,0.7-0.5,1-0.7
					c0.2-0.1,0.1-0.2,0-0.3C87.8,477.4,87.8,477.3,87.6,477.4L87.6,477.4z"/>
				<path class="st1" d="M75,476.6c-0.1,0-0.1,0-0.2,0c-0.5,0.4-1,0.8-1.5,1.2c-0.1,0-0.1,0.1,0,0.2c0.2,0.1,0.3,0.3,0.6,0.1
					c0,0,0,0,0,0c0,0,0,0,0.1,0c0.2,0.1,0.4,0.2,0.6,0.4c0,0,0,0.1,0,0.1c0,0.2,0.1,0.4,0.3,0.5c0.2,0,0.1-0.2,0.2-0.3c0,0,0,0,0,0
					c0.1-0.5,0.3-1,0.4-1.6C75.4,476.8,75.1,476.7,75,476.6L75,476.6z M74.6,477.9c-0.4-0.2-0.4-0.2-0.1-0.5c0.1,0,0.1-0.1,0.2-0.2
					C74.8,477.5,74.7,477.7,74.6,477.9L74.6,477.9z"/>
				<path class="st1" d="M74.3,460.1c0.2,0.3,0.6,0.4,1,0.3c0.4-0.1,0.7-0.6,0.7-0.9c0-0.1,0-0.2-0.1-0.3c0,0,0,0,0-0.1
					c0,0,0,0-0.1,0c-0.1,0-0.4,0.3-0.4,0.4c0,0.2-0.1,0.3-0.3,0.4c-0.2,0.1-0.3,0-0.4-0.1c-0.1-0.2-0.2-0.3-0.3-0.5
					c-0.1-0.1-0.1-0.3,0.1-0.4c0.1-0.1,0.3-0.2,0.5-0.1c0.1,0.1,0.5,0,0.5-0.2c0-0.1,0-0.1-0.1-0.2c-0.1-0.1-0.1-0.1-0.2-0.2
					c-0.1,0-0.2-0.1-0.3-0.1c-0.7,0-1.2,0.5-1.1,1.1C74,459.6,74.1,459.8,74.3,460.1z"/>
				<path class="st1" d="M81.3,478.7c-0.2-0.4-0.3-0.5-0.7-0.4c0,0-0.1,0-0.1,0c0,0,0,0.1-0.1,0.1c-0.2,0.6-0.4,1.2-0.6,1.8
					c0,0.1,0,0.1,0,0.2c0.1,0.1,0.5,0,0.5-0.2c0-0.1,0-0.1,0.1-0.1c0.2,0,0.4,0,0.6,0c0.1,0,0.1,0,0.1,0.1c0,0.2,0.2,0.3,0.3,0.2
					c0.3,0,0.3,0,0.2-0.3C81.6,479.6,81.4,479.2,81.3,478.7L81.3,478.7z M80.8,479.6c-0.1,0-0.2,0-0.1-0.2c0.1-0.2,0.1-0.3,0.2-0.5
					c0.1,0.2,0.1,0.3,0.2,0.4C81.1,479.6,81.1,479.6,80.8,479.6z"/>
				<path class="st1" d="M85.6,460.3c0.1,0.1,0.2,0.2,0.4,0c0.2-0.3,0.4-0.6,0.5-0.9c0.2-0.3,0.2-0.4,0.6-0.1c0.2,0.1,0.2,0,0.3-0.1
					c0.1-0.1,0.1-0.2,0-0.3c-0.4-0.2-0.8-0.5-1.2-0.7c-0.2-0.1-0.2-0.1-0.3,0.1c-0.1,0.2-0.1,0.3,0.1,0.4c0.1,0.1,0.2,0.1,0.3,0.2
					c0,0.1-0.1,0.1-0.1,0.2c-0.2,0.4-0.4,0.7-0.7,1.1C85.3,460.2,85.5,460.3,85.6,460.3L85.6,460.3z"/>
				<path class="st1" d="M86,471c-0.1-0.5-0.3-1-0.4-1.5c0,0,0-0.1,0-0.1c0,0,0,0-0.1,0c0,0-0.1,0-0.1,0c0,0-0.1,0-0.1,0l-1.2,1.2
					c0,0,0,0,0,0.1c0,0,0,0.1,0,0.1c0,0,0,0,0,0.1c0,0,0,0,0.1,0c0,0,0.1,0,0.1,0c0.1,0,0.1,0.1,0,0.1c-0.3,0.4-0.6,0.7-1,1l0,0
					c-0.3,0.2-0.7,0.3-1.1,0.3c-0.4,0.1-0.8,0.1-1.2,0.1c0,0,0,0,0,0c0,0,0,0,0,0c0,0,0,0,0,0c0,0,0,0,0,0v-5.4c0,0,0,0,0,0
					c0,0,0,0,0,0c0,0,0,0,0,0c0,0,0,0,0,0c0,0,0.1,0,0.3,0c0.3,0,0.6,0,0.9,0c0.1,0,0.1,0,0.2,0c0.1,0.1,0.3,0.1,0.4,0.1
					s0.3-0.1,0.4-0.2c0.1-0.1,0.2-0.3,0.2-0.4c0-0.2-0.1-0.3-0.2-0.4c-0.1-0.1-0.2-0.2-0.4-0.2c-0.2,0-0.3,0-0.4,0.1
					c0,0-0.1,0.1-0.1,0.1c-0.4,0-0.8,0-1.2,0c0,0,0,0-0.1,0v-0.6c0,0,0,0,0-0.1c0,0,0.1-0.1,0.1-0.1c0.6-0.3,1-0.9,1-1.6
					c0-1.1-1.1-1.9-2.2-1.6c-0.9,0.2-1.4,1.1-1.2,1.9c0.1,0.6,0.5,1.1,1.1,1.3c0,0,0,0,0.1,0c0,0,0,0,0,0c0,0,0,0,0,0v0.5
					c0,0,0,0,0,0c0,0,0,0,0,0c0,0,0,0,0,0c0,0,0,0,0,0c-0.4,0-0.8,0-1.3,0c-0.1,0-0.1,0-0.2-0.1c-0.1-0.1-0.3-0.1-0.4-0.1
					c-0.2,0-0.3,0.1-0.4,0.2c-0.1,0.1-0.2,0.3-0.2,0.4c0,0.2,0.1,0.3,0.2,0.4c0.1,0.1,0.2,0.2,0.4,0.2c0.2,0,0.3,0,0.4-0.1
					c0,0,0.1-0.1,0.2-0.1c0.4,0,0.8,0,1.2,0c0,0,0.1,0,0.1,0c0,0,0,0,0,0s0,0,0,0v5.4c0,0,0,0,0,0c0,0,0,0,0,0c0,0,0,0,0,0
					c0,0,0,0,0,0c-0.5,0-1-0.1-1.5-0.2c-0.3-0.1-0.6-0.2-0.9-0.3c0,0,0,0,0,0c-0.4-0.3-0.7-0.6-1-1c0,0,0,0,0,0c0,0,0,0,0,0
					c0,0,0,0,0,0c0,0,0,0,0,0l0.1,0c0,0,0,0,0.1,0c0,0,0,0,0-0.1c0,0,0-0.1,0-0.1c0,0,0,0,0-0.1l-1.1-1.2c0,0,0,0-0.1,0
					c0,0-0.1,0-0.1,0c0,0,0,0-0.1,0c0,0,0,0,0,0.1c-0.2,0.5-0.3,1.1-0.5,1.6c0,0,0,0.1,0,0.1c0,0,0,0.1,0,0.1s0,0,0.1,0
					c0,0,0.1,0,0.1,0l0.1,0c0.1,0,0.1,0,0.2,0c0.1,0,0.1,0.1,0.1,0.1c0.7,1.3,1.6,2.2,2.9,2.8c0.5,0.2,0.7,0.3,1.2,0.4c0,0,0,0,0,0
					l0.7,0.7c0,0,0.1,0.1,0.2,0.1s0.1,0,0.2-0.1l0.7-0.6c0,0,0,0,0.1,0c0.7-0.1,0.9-0.2,1.6-0.5c1.1-0.5,1.9-1.4,2.5-2.4
					c0-0.1,0.1-0.1,0.2-0.1c0,0,0.1,0,0.1,0c0,0,0.1,0,0.1,0c0,0,0.1,0,0.1-0.1c0,0,0-0.1,0.1-0.1C86.1,471.1,86.1,471.1,86,471
					L86,471z M80.5,464.6c-0.1,0-0.2,0-0.3-0.1c-0.1,0-0.2-0.1-0.3-0.2c-0.1-0.1-0.1-0.2-0.2-0.3c0-0.1-0.1-0.2-0.1-0.3
					c0-0.5,0.4-0.9,0.9-0.9c0.5,0,0.9,0.4,0.8,0.9C81.4,464.2,80.9,464.6,80.5,464.6z"/>
			</g>
		</g>
	</g>
	<g>
		<g id="XMLID_36_" class="st5">
			<text transform="matrix(1 0 0 1 333.7891 477.0377)" class="st6 st7">kube-oidc-proxy</text>
		</g>
		<g>
			<path class="st31" d="M314.1,468c-2.1,0-3.9,1.8-3.9,3.9s1.8,3.9,3.9,3.9c2.1,0,3.9-1.8,3.9-3.9C318,469.7,316.3,468,314.1,468z
				 M314.1,473.9c-1.1,0-2-0.9-2-2c0-1.1,0.9-2,2-2c1.1,0,2,0.9,2,2C316.1,473,315.2,473.9,314.1,473.9z M322.7,474.6V469
				c0.7-0.4,1.1-1.1,1.1-2c0-1.2-1-2.2-2.2-2.2c-0.6,0-1.1,0.2-1.6,0.6l-3.7-2.1v-0.1c0-1.2-1-2.2-2.2-2.2s-2.2,1-2.2,2.2v0.1
				l-3.8,2.1c-0.4-0.4-1-0.6-1.6-0.6c-1.2,0-2.2,1-2.2,2.2c0,0.9,0.5,1.6,1.2,2v5.5c-0.7,0.4-1.2,1.1-1.2,2c0,1.2,1,2.2,2.2,2.2
				c0.6,0,1.1-0.2,1.5-0.6l3.8,2.2v0.1c0,1.2,1,2.2,2.2,2.2c1.2,0,2.2-1,2.2-2.2v-0.1l3.8-2.2c0.4,0.4,0.9,0.6,1.5,0.6
				c1.2,0,2.2-1,2.2-2.2C323.8,475.7,323.4,475,322.7,474.6z M319.4,476.4l-4,2.3c-0.4-0.2-0.8-0.4-1.2-0.4s-0.9,0.1-1.2,0.4l-4-2.3
				c-0.1-0.8-0.6-1.5-1.2-1.8V469c0.6-0.3,1.1-0.9,1.2-1.6l4.1-2.3c0.4,0.2,0.8,0.4,1.2,0.4s0.9-0.1,1.2-0.4l4,2.3
				c0.1,0.8,0.6,1.4,1.3,1.8v5.5C320,474.9,319.4,475.6,319.4,476.4z"/>
			<path class="st19" d="M302.5,476.5c0-1.1,0.4-2.2,1.2-2.9v-3.7c-0.8-0.8-1.2-1.8-1.2-2.9c0-1.1,0.4-2.1,1.2-2.9
				c0.8-0.8,1.8-1.2,2.9-1.2c0.5,0,1,0.1,1.5,0.3c0,0,0.1,0,0.1,0l2-1.1c0.2-0.7,0.5-1.3,1.1-1.9c0.8-0.8,1.8-1.2,2.9-1.2
				c0.2,0,0.4,0,0.6,0c-2.1-2.9-5.5-4.8-9.3-4.8c-6.3,0-11.4,5.1-11.4,11.4v0.2c-3.5,0.5-6.2,3.5-6.2,7.1c0,4,3.2,7.2,7.2,7.2l9.9,0
				c-0.4-0.2-0.8-0.5-1.2-0.8C302.9,478.6,302.5,477.6,302.5,476.5z"/>
		</g>
	</g>
	<g>
		<rect x="850.4" y="421.1" class="st19" width="30" height="8"/>
		<polygon class="st19" points="878.5,415.1 890.5,425.1 878.5,435.1 		"/>
	</g>
	<g>
		<rect x="1041.2" y="260.1" class="st31" width="8" height="30"/>
		<polygon class="st31" points="1035.2,261.9 1045.2,249.9 1055.2,261.9 		"/>
	</g>
	<g>
		<g>
			
				<rect x="785.8" y="258.6" transform="matrix(-0.7071 -0.7071 0.7071 -0.7071 1154.7804 1025.4917)" class="st19" width="8" height="30"/>
			<polygon class="st19" points="792,257.2 807.5,255.8 806.1,271.4 			"/>
		</g>
		<g>
			
				<rect x="626.9" y="258.6" transform="matrix(-0.7071 0.7071 -0.7071 -0.7071 1270.5507 20.8867)" class="st19" width="8" height="30"/>
			<polygon class="st19" points="614.6,271.4 613.2,255.8 628.7,257.2 			"/>
		</g>
	</g>
	<g>
		<rect x="540.8" y="421.1" class="st19" width="30" height="8"/>
		<polygon class="st19" points="542.6,415.1 530.6,425.1 542.6,435.1 		"/>
	</g>
	<g>
		<rect x="700.1" y="20.1" class="st1" width="500" height="230"/>
	</g>
	<rect x="720.1" y="40.1" class="st29" width="460" height="190"/>
	<text id="XMLID_109_" transform="matrix(1 0 0 1 749.92 113.1466)"><tspan x="0" y="0" class="st31 st3 st4">基于低码</tspan><tspan x="0" y="28.8" class="st31 st3 st4">开发的组</tspan><tspan x="0" y="57.6" class="st31 st3 st4">件</tspan></text>
	<polygon class="st1" points="1119.4,201.8 1119,202.3 1118.4,202.3 1117.9,201.8 1117.9,201.2 1118.4,200.8 1119,200.8 
		1119.4,201.2 	"/>
	<polygon class="st1" points="1136.9,201.2 1137.3,200.8 1138,200.8 1138.4,201.2 1138.4,201.8 1138,202.3 1137.3,202.3 
		1136.9,201.8 	"/>
	<path class="st1" d="M1157.2,130.1H883.3c-1.7,0-3.1-1.4-3.1-3.1V73.2c0-1.7,1.4-3.1,3.1-3.1h273.8c1.7,0,3.1,1.4,3.1,3.1V127
		C1160.3,128.7,1158.9,130.1,1157.2,130.1z"/>
	<g>
		<g id="XMLID_98_" class="st5">
			<text transform="matrix(1 0 0 1 998.1121 108.1314)" class="st6 st7">bestchain</text>
		</g>
		<g>
			<g>
				<defs>
					<path id="SVGID_32_" d="M969.8,105l4.2,3.2c0.3,0.2,0.6,0.3,0.9,0.3c2.1,0,4.1-0.5,5.9-1.3c-0.4,2.7-2.7,4.9-5.6,4.9h-15.1
						L969.8,105z M955.8,115h19.5c4.7,0,8.6-3.8,8.6-8.6c0-0.3,0-0.7-0.1-1c0.8-0.6,1.5-1.3,2.2-2.1c0.2,0.8,0.3,1.7,0.3,2.6
						c0,6.2-5.1,11.3-11.3,11.3h-19.2V115z M955.8,109.4l19.6-14.8c1.8,0.1,3.5,0.6,5,1.4c-0.4,1-1.2,1.8-2,2.4
						c-1-0.4-2-0.6-3.1-0.6c-0.3,0-0.6,0.1-0.9,0.3l-18.6,13.5V109.4z M955.8,90.8v-2.3l11.6,8.4l-1.7,1.3L955.8,90.8z M969.5,95
						l-9.5-6.9h15.1c2.9,0,5.2,2.1,5.6,4.9c-1.8-0.8-3.9-1.3-5.9-1.3c-0.3,0-0.6,0.1-0.9,0.3l-4.3,3.2C969.7,95.1,969.6,95,969.5,95
						 M955.8,83h19.2c6.2,0,11.3,5.1,11.3,11.3c0,6.1-4.8,11-10.8,11.3l-3.1-2.3l1.9-1.4c0.3,0.3,0.6,0.4,1,0.4
						c4.7,0,8.6-3.8,8.6-8.6c0-4.7-3.8-8.6-8.6-8.6h-19.5V83z M954.3,80.1c-0.8,0-1.5,0.7-1.5,1.5v10c0,0.5,0.2,0.9,0.6,1.2l9.8,7.4
						l-9.8,7.4c-0.4,0.3-0.6,0.7-0.6,1.2v10c0,0.8,0.7,1.5,1.5,1.5h20.6c7.8,0,14.2-6.4,14.2-14.2c0-2-0.4-4-1.2-5.8
						c0.8-1.8,1.2-3.7,1.2-5.8c0-7.8-6.4-14.2-14.2-14.2H954.3z"/>
				</defs>
				<clipPath id="SVGID_33_">
					<use xlink:href="#SVGID_32_"  style="overflow:visible;"/>
				</clipPath>
				
					<linearGradient id="SVGID_34_" gradientUnits="userSpaceOnUse" x1="-327.1223" y1="872.6942" x2="-326.9288" y2="872.6942" gradientTransform="matrix(150.8788 193.8012 193.8012 -150.8788 -118818.5625 195147.0625)">
					<stop  offset="0" style="stop-color:#FF2C68"/>
					<stop  offset="1" style="stop-color:#FDD500"/>
				</linearGradient>
				<polygon class="st38" points="975.4,62.5 1008.5,105 966.5,137.7 933.4,95.2 				"/>
			</g>
		</g>
	</g>
	<path class="st1" d="M1157.2,200.1H883.3c-1.7,0-3.1-1.4-3.1-3.1v-53.8c0-1.7,1.4-3.1,3.1-3.1h273.8c1.7,0,3.1,1.4,3.1,3.1V197
		C1160.3,198.7,1158.9,200.1,1157.2,200.1z"/>
	<g>
		<g id="XMLID_100_" class="st5">
			<text transform="matrix(1 0 0 1 965.1895 176.0348)" class="st6 st7">component store</text>
		</g>
		<g>
			<path class="st19" d="M955.2,178.3v-16.4c0-1.7-0.9-3.2-2.3-4l-14.2-8.2c-1.4-0.8-3.2-0.8-4.6,0l-14.2,8.2
				c-1.4,0.8-2.3,2.4-2.3,4v16.4c0,1.7,0.9,3.2,2.3,4l14.2,8.2c1.4,0.8,3.2,0.8,4.6,0l14.2-8.2C954.3,181.5,955.2,179.9,955.2,178.3
				"/>
			<g>
				<defs>
					<path id="SVGID_35_" d="M926.5,177l18.2,10l8.1-4.7c1.4-0.8,2.3-2.4,2.3-4V166l-9-5.9L926.5,177z"/>
				</defs>
				<clipPath id="SVGID_36_">
					<use xlink:href="#SVGID_35_"  style="overflow:visible;"/>
				</clipPath>
				
					<linearGradient id="SVGID_37_" gradientUnits="userSpaceOnUse" x1="325.964" y1="745.7974" x2="326.3827" y2="745.7974" gradientTransform="matrix(-38.5469 -18.0126 -18.0126 38.5469 26948.4395 -22699.0293)">
					<stop  offset="0" style="stop-color:#4461EB"/>
					<stop  offset="0.5967" style="stop-color:#222DC3"/>
					<stop  offset="0.9985" style="stop-color:#0908A6"/>
					<stop  offset="1" style="stop-color:#0908A6"/>
				</linearGradient>
				<polygon class="st39" points="950.1,198 916.2,182.2 931.7,149.1 965.5,164.9 				"/>
			</g>
			<polygon class="st1" points="936.4,160.1 931.5,157.2 926.7,160.2 931.4,163 			"/>
			<g>
				<defs>
					<path id="SVGID_38_" d="M926.5,177L926.5,177L926.5,177 M926.5,177l5.1,2.9l-0.2-16.9l-4.8-2.7
						C926.7,160.2,926.5,176.9,926.5,177"/>
				</defs>
				<clipPath id="SVGID_39_">
					<use xlink:href="#SVGID_38_"  style="overflow:visible;"/>
				</clipPath>
				
					<linearGradient id="SVGID_40_" gradientUnits="userSpaceOnUse" x1="334.724" y1="758.4348" x2="335.1427" y2="758.4348" gradientTransform="matrix(0 48.9282 48.9282 0 -36179.7266 -16214.8672)">
					<stop  offset="0" style="stop-color:#D4E4FF"/>
					<stop  offset="1" style="stop-color:#4478FF"/>
				</linearGradient>
				<rect x="926.5" y="160.2" class="st40" width="5.1" height="19.7"/>
			</g>
			<g>
				<defs>
					<polygon id="SVGID_41_" points="931.4,163 931.7,179.9 936.4,177 936.4,160.1 					"/>
				</defs>
				<clipPath id="SVGID_42_">
					<use xlink:href="#SVGID_41_"  style="overflow:visible;"/>
				</clipPath>
				
					<linearGradient id="SVGID_43_" gradientUnits="userSpaceOnUse" x1="369.8757" y1="749.145" x2="370.2944" y2="749.145" gradientTransform="matrix(11.8752 0 0 -11.8752 -3460.8948 9066.252)">
					<stop  offset="0" style="stop-color:#4461EB"/>
					<stop  offset="0.9996" style="stop-color:#4424EB"/>
					<stop  offset="1" style="stop-color:#4424EB"/>
				</linearGradient>
				<rect x="931.4" y="160.1" class="st41" width="5" height="19.7"/>
			</g>
			<polygon class="st1" points="941.3,157.1 936.4,160.1 941.2,163 946.2,160.1 			"/>
			<g>
				<defs>
					<path id="SVGID_44_" d="M941.2,163c0,0-0.1,5.4-0.1,5.5l5-2.7v-5.6L941.2,163z"/>
				</defs>
				<clipPath id="SVGID_45_">
					<use xlink:href="#SVGID_44_"  style="overflow:visible;"/>
				</clipPath>
				
					<linearGradient id="SVGID_46_" gradientUnits="userSpaceOnUse" x1="335.3119" y1="769.2816" x2="335.7306" y2="769.2816" gradientTransform="matrix(0 20.7205 20.7205 0 -14996.2471 -6786.7476)">
					<stop  offset="0" style="stop-color:#4461EB"/>
					<stop  offset="0.9996" style="stop-color:#4424EB"/>
					<stop  offset="1" style="stop-color:#4424EB"/>
				</linearGradient>
				<rect x="941.1" y="160.1" class="st42" width="5" height="8.3"/>
			</g>
			<g>
				<defs>
					<polygon id="SVGID_47_" points="936.4,165.9 941.2,168.4 941.2,162.9 936.4,160.1 					"/>
				</defs>
				<clipPath id="SVGID_48_">
					<use xlink:href="#SVGID_47_"  style="overflow:visible;"/>
				</clipPath>
				
					<linearGradient id="SVGID_49_" gradientUnits="userSpaceOnUse" x1="335.3158" y1="769.7747" x2="335.7345" y2="769.7747" gradientTransform="matrix(0 20.5463 20.5463 0 -14877.2324 -6728.3799)">
					<stop  offset="0" style="stop-color:#D4E4FF"/>
					<stop  offset="1" style="stop-color:#4478FF"/>
				</linearGradient>
				<rect x="936.4" y="160.1" class="st43" width="4.8" height="8.3"/>
			</g>
			<polygon class="st1" points="936.4,165.9 931.4,168.6 936.2,171.4 941.2,168.4 			"/>
			<g>
				<defs>
					<path id="SVGID_50_" d="M936.2,171.4c0,0-0.1,5.4-0.1,5.5l5-3.1l0-5.4L936.2,171.4z"/>
				</defs>
				<clipPath id="SVGID_51_">
					<use xlink:href="#SVGID_50_"  style="overflow:visible;"/>
				</clipPath>
				
					<linearGradient id="SVGID_52_" gradientUnits="userSpaceOnUse" x1="334.75" y1="769.4105" x2="335.1686" y2="769.4105" gradientTransform="matrix(0 20.9381 20.9381 0 -15171.3848 -6839.6362)">
					<stop  offset="0" style="stop-color:#4461EB"/>
					<stop  offset="0.9996" style="stop-color:#4424EB"/>
					<stop  offset="1" style="stop-color:#4424EB"/>
				</linearGradient>
				<rect x="936.1" y="168.4" class="st44" width="5.1" height="8.4"/>
			</g>
			<g>
				<defs>
					<polygon id="SVGID_53_" points="931.4,174.3 936.1,176.8 936.2,171.3 931.4,168.6 					"/>
				</defs>
				<clipPath id="SVGID_54_">
					<use xlink:href="#SVGID_53_"  style="overflow:visible;"/>
				</clipPath>
				
					<linearGradient id="SVGID_55_" gradientUnits="userSpaceOnUse" x1="334.7479" y1="770.1154" x2="335.1666" y2="770.1154" gradientTransform="matrix(0 20.5463 20.5463 0 -14889.2754 -6708.3091)">
					<stop  offset="0" style="stop-color:#D4E4FF"/>
					<stop  offset="1" style="stop-color:#4478FF"/>
				</linearGradient>
				<rect x="931.4" y="168.6" class="st45" width="4.8" height="8.3"/>
			</g>
			<polygon class="st1" points="941.2,173.7 936.1,176.8 941,179.6 945.9,176.7 			"/>
			<g>
				<defs>
					<polygon id="SVGID_56_" points="936.1,182.3 940.9,184.9 941,179.6 936.1,176.8 					"/>
				</defs>
				<clipPath id="SVGID_57_">
					<use xlink:href="#SVGID_56_"  style="overflow:visible;"/>
				</clipPath>
				
					<linearGradient id="SVGID_58_" gradientUnits="userSpaceOnUse" x1="334.1902" y1="770.2151" x2="334.6088" y2="770.2151" gradientTransform="matrix(0 20.1226 20.1226 0 -14560.1729 -6547.0352)">
					<stop  offset="0" style="stop-color:#D4E4FF"/>
					<stop  offset="1" style="stop-color:#4478FF"/>
				</linearGradient>
				<rect x="936.1" y="176.8" class="st46" width="4.8" height="8.1"/>
			</g>
			<g>
				<defs>
					<polygon id="SVGID_59_" points="941,179.6 941,184.9 945.7,181.8 945.9,176.7 					"/>
				</defs>
				<clipPath id="SVGID_60_">
					<use xlink:href="#SVGID_59_"  style="overflow:visible;"/>
				</clipPath>
				
					<linearGradient id="SVGID_61_" gradientUnits="userSpaceOnUse" x1="332.8715" y1="779.2762" x2="333.2901" y2="779.2762" gradientTransform="matrix(-0.6004 13.6896 13.6896 0.6004 -9524.5059 -4847.5894)">
					<stop  offset="0" style="stop-color:#4461EB"/>
					<stop  offset="0.9996" style="stop-color:#4424EB"/>
					<stop  offset="1" style="stop-color:#4424EB"/>
				</linearGradient>
				<polygon class="st47" points="946.2,176.7 945.9,185.1 940.6,184.9 941,176.5 				"/>
			</g>
		</g>
	</g>
	<g>
		<text id="XMLID_159_" transform="matrix(1 0 0 1 950.976 471.8175)" class="st31 st3 st4">低码组件开发 Kit</text>
		<path class="st1" d="M1162.3,431.5H928c-1.6,0-2.9-1.3-2.9-2.9v-54.3c0-1.6,1.3-2.9,2.9-2.9h234.3c1.6,0,2.9,1.3,2.9,2.9v54.3
			C1165.1,430.2,1163.8,431.5,1162.3,431.5z"/>
		<g>
			<g id="XMLID_157_" class="st5">
				<text transform="matrix(1 0 0 1 1023.8055 410.1635)" class="st6 st7">云梯低代码</text>
			</g>
			<g id="XMLID_154_">
				<line id="XMLID_156_" class="st19" x1="980.7" y1="420" x2="980.7" y2="420"/>
				<path id="XMLID_155_" class="st19" d="M1003.4,394c-1-6.2-6.4-11-12.9-11c-6.5,0-11.9,4.8-12.9,11c-6.3,1-11.1,6.4-11.1,12.9
					c0,6.9,5.3,12.5,12,13l0.6-4.3c-4.6-0.3-8.2-4.1-8.2-8.7c0-4.8,3.9-8.7,8.7-8.7h2.2l0-2.2c0-4.8,3.9-8.7,8.7-8.7
					c4.8,0,8.7,3.9,8.7,8.7l0,2.2h2.2c4.8,0,8.7,3.9,8.7,8.7c0,4.6-3.7,8.4-8.2,8.7l0.6,4.3c6.7-0.6,12-6.2,12-13
					C1014.5,400.4,1009.7,394.9,1003.4,394z"/>
			</g>
			<g id="XMLID_149_">
				<path id="XMLID_151_" class="st31" d="M995.9,420h4.4l-2.7-20.7h-3.8l0.5,4.4h-7.5l0.5-4.4h-3.8l-2.7,20.7h4.4l0.5-4.4h10
					L995.9,420z M985.9,411.3l0.5-4.4h8.2l0.5,4.4H985.9z"/>
			</g>
		</g>
	</g>
	<g>
		<g id="XMLID_99_" class="st5">
			<text transform="matrix(1 0 0 1 139.052 413.4516)" class="st6 st7">capsule</text>
		</g>
		<g>
			<g>
				<path class="st48" d="M114.8,397.9h-9.3c-0.2,0-0.3-0.1-0.3-0.3v-2.2c0-0.2,0.1-0.3,0.3-0.3h9.3c0.2,0,0.3,0.1,0.3,0.3v2.2
					C115.1,397.8,115,397.9,114.8,397.9z"/>
				<circle class="st48" cx="110.1" cy="391.4" r="1.1"/>
				<path class="st48" d="M116.2,400.5H104c-0.2,0-0.4-0.2-0.4-0.4v-0.9c0-0.2,0.2-0.4,0.4-0.4h12.2c0.2,0,0.4,0.2,0.4,0.4v0.9
					C116.6,400.3,116.4,400.5,116.2,400.5z"/>
				<g>
					<polygon class="st49" points="105.1,396.8 110.1,396.4 110.1,398.8 105.1,398.8 					"/>
					<polygon class="st50" points="115.1,396.8 110.1,396.4 110.1,398.8 115.1,398.8 					"/>
				</g>
				<g>
					<g>
						<path class="st48" d="M110.2,392c-0.2,0-0.4,0-0.4,0s-0.1,2-1.3,3.3c0.7,0,1.3,0,1.7,0V392z"/>
					</g>
					<g>
						<path class="st48" d="M110.1,392c0.2,0,0.4,0,0.4,0s0.1,2,1.3,3.3c-0.7,0-1.3,0-1.7,0V392z"/>
					</g>
				</g>
			</g>
			<g>
				<path class="st48" d="M129.1,419.4c0.6-0.6,1-1.3,1-1.9c0-3.5-9-6.3-20-6.3s-20,2.8-20,6.3c0,0.7,0.3,1.3,1,1.9
					c0,0.2,0,0.4-0.1,0.6c-0.4,0.8,3.2,2.2,3.4,1.8c0.1-0.2,0.2-0.3,0.3-0.3c1,0.4,2.1,0.7,3.3,1c0,0.2,0,0.3-0.1,0.5
					c-0.2,0.3,0.2,0.6,1.6,0.9c1.4,0.3,3,0.4,3.1-0.1c0-0.1,0-0.3,0.1-0.4c1.3,0.2,2.7,0.3,4.2,0.4c0,0.1-0.1,0.2-0.1,0.4
					c-0.1,0.4-0.3,0.8,3.3,0.8c3.5,0,3.6-0.3,3.5-0.8c0-0.1-0.1-0.3-0.1-0.4c1.5-0.1,2.9-0.2,4.2-0.4c0,0.1,0.1,0.3,0.1,0.4
					c0.1,0.6,1.6,0.4,3.1,0.1c1.4-0.3,1.8-0.5,1.6-0.9c-0.1-0.1-0.2-0.3-0.1-0.5c1.2-0.3,2.3-0.6,3.3-1c0.1,0,0.3,0.2,0.3,0.3
					c0.2,0.4,3.8-1.1,3.4-1.8C129.1,419.7,129.1,419.5,129.1,419.4z"/>
			</g>
			<g>
				<path class="st49" d="M110.1,419.2v-19.4l-6.5,0.3l-11.5,14.9c0,0,0.1,0.6-0.2,0.8C91.9,416.1,92.9,418.9,110.1,419.2z"/>
				<path class="st50" d="M101.8,402.5h2.3c0,0,0.6,0,0.4,0.5s-5.2,10.8-5.2,10.8s-0.2,0.4-0.9,0.2c-0.7-0.1-4.7-1.1-4.7-1.1
					L101.8,402.5z"/>
				<path class="st50" d="M110.1,419.2v-19.4l6.5,0.3l11.5,14.9c0,0-0.1,0.6,0.2,0.8C128.3,416.1,127.2,418.9,110.1,419.2z"/>
				<path class="st49" d="M118.4,402.5h-2.3c0,0-0.6,0-0.4,0.5s5.2,10.8,5.2,10.8s0.2,0.4,0.9,0.2s4.7-1.1,4.7-1.1L118.4,402.5z"/>
			</g>
		</g>
	</g>
	<g>
		<g id="XMLID_94_" class="st5">
			<text transform="matrix(1 0 0 1 363.9649 413.6811)" class="st6 st7">bff-server</text>
		</g>
		<g>
			<path class="st31" d="M352.7,393.7h-28c-1.1,0-2,0.9-2,2v4c0,1.1,0.9,2,2,2h28c1.1,0,2-0.9,2-2v-4
				C354.7,394.6,353.8,393.7,352.7,393.7z M345.7,399.2c-0.8,0-1.5-0.7-1.5-1.5s0.7-1.5,1.5-1.5s1.5,0.7,1.5,1.5
				S346.5,399.2,345.7,399.2z M349.7,399.2c-0.8,0-1.5-0.7-1.5-1.5s0.7-1.5,1.5-1.5s1.5,0.7,1.5,1.5S350.5,399.2,349.7,399.2z"/>
			<path class="st51" d="M352.7,403.7h-28c-1.1,0-2,0.9-2,2v4c0,1.1,0.9,2,2,2h28c1.1,0,2-0.9,2-2v-4
				C354.7,404.6,353.8,403.7,352.7,403.7z M345.7,409.2c-0.8,0-1.5-0.7-1.5-1.5s0.7-1.5,1.5-1.5s1.5,0.7,1.5,1.5
				S346.5,409.2,345.7,409.2z M349.7,409.2c-0.8,0-1.5-0.7-1.5-1.5s0.7-1.5,1.5-1.5s1.5,0.7,1.5,1.5S350.5,409.2,349.7,409.2z"/>
			<g>
				<g>
					<path class="st19" d="M352.8,413.7h-28c-1.1,0-2,0.9-2,2v4c0,1.1,0.9,2,2,2h28c1.1,0,2-0.9,2-2v-4
						C354.8,414.6,353.9,413.7,352.8,413.7z M345.8,419.2c-0.8,0-1.5-0.7-1.5-1.5s0.7-1.5,1.5-1.5c0.8,0,1.5,0.7,1.5,1.5
						S346.6,419.2,345.8,419.2z M349.8,419.2c-0.8,0-1.5-0.7-1.5-1.5s0.7-1.5,1.5-1.5c0.8,0,1.5,0.7,1.5,1.5
						S350.6,419.2,349.8,419.2z"/>
				</g>
			</g>
			<circle class="st52" cx="349.8" cy="407.7" r="1.5"/>
			<circle class="st52" cx="349.8" cy="417.7" r="1.5"/>
			<circle class="st52" cx="349.8" cy="397.7" r="1.5"/>
		</g>
	</g>
	<g>
		<rect x="20.1" y="580.1" class="st1" width="1180" height="60"/>
		<g class="st2">
			<text transform="matrix(1 0 0 1 551.8074 620.2643)" class="st6 st4">kubernetes</text>
		</g>
		<path class="st19" d="M517.7,614L517.7,614l-1.7,4c-1.6-1-2.8-2.5-3.5-4.3l4.3-0.7l0,0c0.4-0.1,0.8,0.2,0.9,0.6
			C517.8,613.8,517.8,613.9,517.7,614L517.7,614z M516.3,610.5c0.4-0.1,0.6-0.5,0.5-0.9c0-0.1-0.1-0.3-0.2-0.4l0,0l-3.3-2.9
			c-1,1.6-1.4,3.5-1.2,5.4L516.3,610.5L516.3,610.5z M518.2,607.2c0.3,0.2,0.8,0.2,1-0.2c0.1-0.1,0.1-0.3,0.1-0.4l0,0l0.3-4.4
			c-1.9,0.2-3.7,1.1-5,2.4L518.2,607.2L518.2,607.2L518.2,607.2z M519.5,611.8l1.2,0.6l1.2-0.6l0.3-1.3l-0.8-1H520l-0.8,1
			L519.5,611.8L519.5,611.8z M522,606.6c0,0.4,0.4,0.7,0.8,0.7c0.1,0,0.3-0.1,0.4-0.1l0,0l3.6-2.5c-1.4-1.3-3.1-2.2-5-2.4L522,606.6
			L522,606.6z M540.1,616.6l-9.6,12c-0.5,0.6-1.3,1-2.1,1l-15.4,0c-0.8,0-1.6-0.4-2.1-1l-9.6-12c-0.5-0.6-0.7-1.4-0.5-2.2l3.4-14.9
			c0.2-0.8,0.7-1.4,1.4-1.8l13.9-6.6c0.7-0.3,1.6-0.3,2.3,0l13.9,6.6c0.7,0.3,1.3,1,1.4,1.8l3.4,14.9
			C540.8,615.1,540.6,615.9,540.1,616.6z M534.7,613.1c-0.1,0-0.2,0-0.2-0.1c-0.3-0.1-0.5,0-0.8-0.1c-0.6-0.1-1.1-0.1-1.5-0.2
			c-0.2-0.1-0.3-0.3-0.4-0.4l-0.3-0.1c0.2-1.3,0.1-2.6-0.2-3.9c-0.3-1.3-0.8-2.5-1.6-3.6c0.1-0.1,0.3-0.2,0.3-0.3
			c0-0.2,0-0.3,0.2-0.5c0.3-0.3,0.7-0.6,1.2-0.9c0.2-0.1,0.5-0.2,0.7-0.4c0.1,0,0.1-0.1,0.2-0.1c0.4-0.3,0.5-0.9,0.2-1.2
			c-0.3-0.4-0.8-0.4-1.2-0.1c-0.1,0-0.1,0.1-0.2,0.1c-0.2,0.2-0.4,0.4-0.5,0.6c-0.4,0.4-0.8,0.8-1.1,1c-0.2,0.1-0.4,0.1-0.5,0.1
			l-0.3,0.2c-1.8-1.9-4.3-3.1-6.9-3.3l0-0.4c-0.1-0.1-0.2-0.2-0.3-0.4c0-0.4,0-0.9,0.1-1.5c0-0.3,0.1-0.5,0.1-0.8c0-0.1,0-0.2,0-0.2
			c0-0.5-0.4-0.9-0.8-0.9c-0.5,0-0.8,0.4-0.8,0.9l0,0c0,0.1,0,0.2,0,0.2c0,0.3,0.1,0.5,0.1,0.8c0.1,0.6,0.1,1.1,0.1,1.5
			c0,0.2-0.1,0.3-0.3,0.4l0,0.4c-2.6,0.2-5.1,1.4-6.9,3.3c-0.1-0.1-0.2-0.1-0.3-0.2c-0.2,0-0.3,0.1-0.5,0c-0.4-0.3-0.7-0.6-1.1-1
			c-0.2-0.2-0.3-0.4-0.5-0.6c-0.1-0.1-0.1-0.1-0.2-0.1c-0.2-0.1-0.4-0.2-0.6-0.2c-0.3,0-0.5,0.1-0.7,0.3c-0.3,0.4-0.2,0.9,0.2,1.2
			l0,0l0.2,0.1c0.2,0.2,0.5,0.3,0.7,0.4c0.5,0.3,0.9,0.6,1.2,0.9c0.1,0.1,0.1,0.4,0.2,0.5l0.3,0.2c-1.5,2.2-2.1,4.9-1.7,7.5
			l-0.3,0.1c-0.1,0.1-0.2,0.3-0.4,0.4c-0.4,0.1-0.9,0.2-1.5,0.2c-0.3,0-0.5,0-0.8,0.1c-0.1,0-0.2,0-0.2,0l0,0l0,0
			c-0.5,0.1-0.8,0.6-0.7,1c0.1,0.4,0.6,0.7,1.1,0.6l0,0l0,0l0.2,0c0.3-0.1,0.5-0.2,0.7-0.3c0.6-0.2,1-0.4,1.5-0.4
			c0.2,0,0.4,0.1,0.5,0.2l0.4-0.1c0.8,2.5,2.5,4.6,4.8,6l-0.1,0.4c0.1,0.1,0.1,0.3,0.1,0.5c-0.2,0.4-0.4,0.9-0.8,1.4
			c-0.2,0.2-0.3,0.4-0.4,0.7c0,0.1-0.1,0.2-0.1,0.2c-0.2,0.5-0.1,1,0.4,1.2c0.4,0.2,0.9,0,1.2-0.5v0c0-0.1,0.1-0.1,0.1-0.2
			c0.1-0.3,0.2-0.5,0.2-0.8c0.2-0.6,0.3-1.1,0.6-1.5c0.1-0.1,0.2-0.1,0.4-0.2l0.2-0.3c2.5,1,5.2,1,7.7,0l0.2,0.3
			c0.1,0,0.3,0.1,0.4,0.3c0.2,0.4,0.4,0.8,0.6,1.4c0.1,0.3,0.1,0.5,0.2,0.8c0,0.1,0.1,0.1,0.1,0.2c0.2,0.5,0.7,0.7,1.2,0.5
			c0.4-0.2,0.6-0.7,0.4-1.2c0-0.1-0.1-0.2-0.1-0.2c-0.1-0.3-0.3-0.4-0.4-0.7c-0.3-0.5-0.6-0.9-0.7-1.3c-0.1-0.2,0-0.4,0.1-0.5
			c0,0-0.1-0.2-0.1-0.3c2.3-1.4,4-3.5,4.8-6c0.1,0,0.3,0,0.4,0.1c0.1-0.1,0.2-0.2,0.5-0.2c0.4,0.1,0.9,0.2,1.5,0.4
			c0.3,0.1,0.5,0.2,0.7,0.3c0.1,0,0.1,0,0.2,0l0,0l0,0c0.5,0.1,1-0.2,1.1-0.6C535.5,613.7,535.2,613.3,534.7,613.1z M528.1,606.3
			l-3.3,2.9v0c-0.3,0.3-0.3,0.7-0.1,1c0.1,0.1,0.2,0.2,0.4,0.2l0,0l4.2,1.2c0.1-0.9,0-1.9-0.2-2.8
			C528.9,608,528.6,607.1,528.1,606.3L528.1,606.3z M521.4,615.2c-0.1-0.2-0.4-0.4-0.7-0.4c-0.3,0-0.5,0.2-0.6,0.4h0L518,619
			c1.8,0.6,3.7,0.6,5.5,0L521.4,615.2L521.4,615.2z M524.5,613c-0.2,0-0.3,0-0.5,0.1c-0.4,0.2-0.5,0.6-0.4,1l0,0l1.7,4.1
			c1.6-1,2.8-2.6,3.5-4.4L524.5,613L524.5,613z"/>
	</g>
</g>
<g id="图层_2">
</g>
</svg>
