<?xml version="1.0" encoding="utf-8"?>
<!-- Generator: Adobe Illustrator 19.0.0, SVG Export Plug-In . SVG Version: 6.00 Build 0)  -->
<svg version="1.1" id="图层_1" xmlns="http://www.w3.org/2000/svg" xmlns:xlink="http://www.w3.org/1999/xlink" x="0px" y="0px"
	 viewBox="0 0 1220 240" style="enable-background:new 0 0 1220 240;" xml:space="preserve">
<style type="text/css">
	.st0{fill:#F5F7FC;}
	.st1{fill:#4461EB;}
	.st2{fill:#FFFFFF;}
	.st3{opacity:0.9;}
	.st4{font-family:'PingFang-SC-Medium';}
	.st5{font-size:20px;}
	.st6{opacity:0.7;}
	.st7{font-family:'PingFang-SC-Regular';}
	.st8{font-size:16px;}
</style>
<rect x="0" y="0" class="st0" width="1220" height="240"/>
<g>
	<rect id="XMLID_84_" x="752" y="118.8" class="st1" width="100" height="1"/>
	<polygon id="XMLID_83_" class="st1" points="852,114.8 858,119.3 852,123.8 	"/>
</g>
<g>
	<rect id="XMLID_64_" x="362" y="118.8" class="st1" width="100" height="1"/>
	<polygon id="XMLID_23_" class="st1" points="462,114.8 468,119.3 462,123.8 	"/>
</g>
<g>
	<rect x="80" y="39.3" class="st2" width="280" height="160"/>
</g>
<g id="XMLID_293_" class="st3">
	<text transform="matrix(1 0 0 1 157.8102 141.9277)" class="st4 st5">下载 CLI 工具</text>
</g>
<g id="XMLID_59_" class="st6">
	<text transform="matrix(1 0 0 1 120.2172 169.4277)" class="st7 st8">https://github.com/kubebb</text>
</g>
<path class="st1" d="M238.7,77.5h-12.5V65h-12.5v12.5h-12.5L220,95L238.7,77.5z M201.2,100v5h37.5v-5H201.2z"/>
<g>
	<rect x="470" y="39.3" class="st2" width="280" height="160"/>
</g>
<g id="XMLID_2_" class="st3">
	<text transform="matrix(1 0 0 1 551.0401 141.9277)" class="st4 st5">启动 Kubebb</text>
</g>
<g id="XMLID_20_" class="st6">
	<text transform="matrix(1 0 0 1 523.3366 169.4277)" class="st7 st8">一键部署、启动 Kubebb</text>
</g>
<path class="st1" d="M610,65c-11.1,0-20,9-20,20c0,11,9,20,20,20c11.1,0,20-9,20-20C630,73.9,621.1,65,610,65z M619.8,86.1L606.3,94
	c-0.9,0.5-2.1-0.1-2.1-1.2V77.2c0-1.1,1.1-1.7,2.1-1.2l13.5,7.8C620.7,84.3,620.7,85.6,619.8,86.1z"/>
<g>
	<rect x="860" y="39.3" class="st2" width="280" height="160"/>
</g>
<g id="XMLID_74_" class="st3">
	<text transform="matrix(1 0 0 1 929.9996 141.9275)" class="st4 st5">安装、体验组件</text>
</g>
<g id="XMLID_29_" class="st6">
	<text transform="matrix(1 0 0 1 871.9998 169.4275)" class="st7 st8">进入组件市场，安装并体验内置组件</text>
</g>
<g>
	<path class="st1" d="M1000.8,89.8c-3.2,1.5-7.1,1-9.8-1.6c-2.4-2.4-3-5.7-2.1-8.6c0.5-0.1,0.7-0.1,1.2-0.3l2.7,2.9h2.5l1.8-1.8
		v-2.5l-2.9-2.7c0.1-0.5,0.1-0.7,0.3-1.2c3-1,6.3-0.3,8.7,2.1c2.6,2.6,3.2,6.6,1.7,9.8L1016,97c2.5-3.3,4-7.5,4-12c0-11-9-20-20-20
		c-11,0-20,9-20,20s9,20,20,20c4.5,0,8.6-1.5,12-4L1000.8,89.8z"/>
</g>
</svg>
