<?xml version="1.0" standalone="no"?><!DOCTYPE svg PUBLIC "-//W3C//DTD SVG 1.1//EN" "http://www.w3.org/Graphics/SVG/1.1/DTD/svg11.dtd"><svg t="1697080538504" class="icon" viewBox="0 0 1024 1024" version="1.1" xmlns="http://www.w3.org/2000/svg" p-id="22057" xmlns:xlink="http://www.w3.org/1999/xlink" width="200" height="200"><path d="M64 480h128v480H64V480z" fill="#4461EB" opacity=".6" p-id="22058"></path><path d="M320 352h128v608h-128V352z" fill="#4461EB" p-id="22059"></path><path d="M576 480h128v480h-128V480z" fill="#4461EB" opacity=".6" p-id="22060"></path><path d="M832 352h128v608h-128V352z" fill="#4461EB" p-id="22061"></path><path d="M560 272c0 44.8 35.2 80 80 80s80-35.2 80-80-35.2-80-80-80-80 35.2-80 80z" fill="#29DD90" opacity=".6" p-id="22062"></path><path d="M816 144c0 44.8 35.2 80 80 80s80-35.2 80-80-35.2-80-80-80-80 35.2-80 80z" fill="#29DD90" p-id="22063"></path><path d="M48 272c0 44.8 35.2 80 80 80s80-35.2 80-80-35.2-80-80-80-80 35.2-80 80z" fill="#29DD90" opacity=".6" p-id="22064"></path><path d="M304 144c0 44.8 35.2 80 80 80s80-35.2 80-80-35.2-80-80-80-80 35.2-80 80z" fill="#29DD90" p-id="22065"></path><path d="M304 152l-123.2 60.8c14.4 12.8 24 30.4 25.6 51.2l123.2-60.8c-12.8-12.8-22.4-32-25.6-51.2z" fill="#29DD90" opacity=".6" p-id="22066"></path><path d="M462.4 152l123.2 60.8c-14.4 12.8-24 30.4-25.6 51.2l-123.2-60.8c14.4-12.8 24-32 25.6-51.2z" fill="#29DD90" opacity=".8" p-id="22067"></path><path d="M816 152l-123.2 60.8c14.4 12.8 24 30.4 25.6 51.2l123.2-60.8c-12.8-12.8-22.4-32-25.6-51.2z" fill="#29DD90" p-id="22068"></path></svg>