<?xml version="1.0" standalone="no"?><!DOCTYPE svg PUBLIC "-//W3C//DTD SVG 1.1//EN" "http://www.w3.org/Graphics/SVG/1.1/DTD/svg11.dtd"><svg t="1697080518641" class="icon" viewBox="0 0 1024 1024" version="1.1" xmlns="http://www.w3.org/2000/svg" p-id="21775" xmlns:xlink="http://www.w3.org/1999/xlink" width="200" height="200"><path d="M512 660.8L446.4 624 256 515.2v244.8l256 147.2V660.8z" fill="#4461EB" p-id="21776"></path><path d="M766.4 508.8l-73.6 41.6L512 660.8v241.6l254.4-147.2V508.8z" fill="#29DD90" p-id="21777"></path><path d="M256 272l-64-38.4L1.6 124.8v244.8L256 518.4V272z" fill="#4461EB" opacity=".8" p-id="21778"></path><path d="M512 120l-73.6 41.6L257.6 272v241.6L512 366.4V120z" fill="#29DD90" opacity=".8" p-id="21779"></path><path d="M766.4 267.2l-65.6-38.4L512 120v244.8L766.4 512V267.2z" fill="#4461EB" opacity=".8" p-id="21780"></path><path d="M1022.4 116.8L948.8 160 768 268.8v241.6l254.4-147.2V116.8z" fill="#29DD90" opacity=".8" p-id="21781"></path></svg>