<?xml version="1.0" standalone="no"?><!DOCTYPE svg PUBLIC "-//W3C//DTD SVG 1.1//EN" "http://www.w3.org/Graphics/SVG/1.1/DTD/svg11.dtd"><svg t="1697080564634" class="icon" viewBox="0 0 1024 1024" version="1.1" xmlns="http://www.w3.org/2000/svg" p-id="29866" xmlns:xlink="http://www.w3.org/1999/xlink" width="200" height="200"><path d="M963.2 940.8c3.2-12.8 0-25.6-9.6-32l-192-192 3.2-3.2c60.8-70.4 92.8-160 92.8-252.8 0-214.4-176-390.4-390.4-390.4s-390.4 176-390.4 390.4S252.8 851.2 467.2 851.2c89.6 0 176-32 246.4-86.4l3.2-3.2 192 192c9.6 9.6 22.4 12.8 35.2 9.6 9.6 0 19.2-9.6 19.2-22.4zM467.2 784c-179.2 0-323.2-144-323.2-323.2s144-320 323.2-320 323.2 144 323.2 320S643.2 784 467.2 784z" p-id="29867"></path></svg>