<?xml version="1.0" standalone="no"?><!DOCTYPE svg PUBLIC "-//W3C//DTD SVG 1.1//EN" "http://www.w3.org/Graphics/SVG/1.1/DTD/svg11.dtd"><svg t="1697080499449" class="icon" viewBox="0 0 1024 1024" version="1.1" xmlns="http://www.w3.org/2000/svg" p-id="21489" xmlns:xlink="http://www.w3.org/1999/xlink" width="200" height="200"><path d="M781.653333 354.986667C760.035556 225.28 647.395556 126.293333 512 126.293333c-135.395556 0-248.035556 98.986667-269.653333 228.693334C111.502222 375.466667 11.377778 488.106667 11.377778 624.64c0 143.36 110.364444 260.551111 250.311111 271.928889l11.377778-91.022222c-94.435556-4.551111-170.666667-84.195556-170.666667-180.906667 0-100.124444 80.782222-180.906667 180.906667-182.044444H329.955556v-45.511112c1.137778-100.124444 81.92-180.906667 182.044444-180.906666s180.906667 80.782222 182.044444 180.906666v45.511112h46.648889c100.124444 1.137778 180.906667 81.92 180.906667 182.044444 0 95.573333-76.231111 175.217778-171.804444 180.906667l11.377777 91.022222c139.946667-11.377778 250.311111-129.706667 250.311111-271.928889 1.137778-136.533333-98.986667-249.173333-229.831111-269.653333z" fill="#4461EB" p-id="21490"></path><path d="M625.777778 897.706667h91.022222l-56.888889-432.355556h-79.644444l9.102222 91.022222H434.631111l9.102222-91.022222h-79.644444l-56.888889 432.355556h91.022222l9.102222-91.022223h208.213334l10.24 91.022223z m-208.213334-182.044445l9.102223-91.022222h169.528889l9.102222 91.022222H417.564444z" fill="#29DD90" p-id="21491"></path></svg>