<?xml version="1.0" standalone="no"?><!DOCTYPE svg PUBLIC "-//W3C//DTD SVG 1.1//EN" "http://www.w3.org/Graphics/SVG/1.1/DTD/svg11.dtd"><svg t="1697080508245" class="icon" viewBox="0 0 1024 1024" version="1.1" xmlns="http://www.w3.org/2000/svg" p-id="21627" xmlns:xlink="http://www.w3.org/1999/xlink" width="200" height="200"><path d="M480 172.8V17.6L112 233.6l132.8 76.8L480 172.8z" fill="#4461EB" opacity=".5" p-id="21628"></path><path d="M787.2 316.8l131.2-76.8L544 19.2v155.2l243.2 142.4z" fill="#4461EB" p-id="21629"></path><path d="M814.4 374.4V640l131.2 76.8V299.2l-131.2 75.2z" fill="#4461EB" opacity=".9" p-id="21630"></path><path d="M793.6 702.4L544 848v153.6l380.8-224-131.2-75.2z" fill="#4461EB" opacity=".8" p-id="21631"></path><path d="M238.4 708.8l-132.8 76.8L480 1006.4v-156.8l-241.6-140.8z" fill="#4461EB" opacity=".7" p-id="21632"></path><path d="M206.4 361.6l-128-73.6v440l128-75.2V361.6z" fill="#4461EB" opacity=".6" p-id="21633"></path><path d="M480 403.2v-156.8l-171.2 100.8 134.4 78.4 36.8-22.4z" fill="#29DD90" opacity=".5" p-id="21634"></path><path d="M403.2 476.8L270.4 400v216l132.8-76.8v-62.4z" fill="#29DD90" opacity=".6" p-id="21635"></path><path d="M435.2 595.2L302.4 672 480 776v-155.2l-44.8-25.6z" fill="#29DD90" opacity=".7" p-id="21636"></path><path d="M598.4 588.8l-54.4 32v153.6l185.6-108.8-131.2-76.8z" fill="#29DD90" opacity=".8" p-id="21637"></path><path d="M620.8 486.4V528l129.6 75.2V412.8l-129.6 73.6z" fill="#29DD90" opacity=".9" p-id="21638"></path><path d="M590.4 430.4l132.8-76.8L544 248v155.2l46.4 27.2z" fill="#29DD90" p-id="21639"></path></svg>